%TF.GenerationSoftware,KiCad,Pcbnew,9.0.0*%
%TF.CreationDate,2025-03-23T12:51:39+01:00*%
%TF.ProjectId,ppicoV1,70706963-6f56-4312-9e6b-696361645f70,rev?*%
%TF.SameCoordinates,Original*%
%TF.FileFunction,Copper,L1,Top*%
%TF.FilePolarity,Positive*%
%FSLAX46Y46*%
G04 Gerber Fmt 4.6, Leading zero omitted, Abs format (unit mm)*
G04 Created by KiCad (PCBNEW 9.0.0) date 2025-03-23 12:51:39*
%MOMM*%
%LPD*%
G01*
G04 APERTURE LIST*
G04 Aperture macros list*
%AMRoundRect*
0 Rectangle with rounded corners*
0 $1 Rounding radius*
0 $2 $3 $4 $5 $6 $7 $8 $9 X,Y pos of 4 corners*
0 Add a 4 corners polygon primitive as box body*
4,1,4,$2,$3,$4,$5,$6,$7,$8,$9,$2,$3,0*
0 Add four circle primitives for the rounded corners*
1,1,$1+$1,$2,$3*
1,1,$1+$1,$4,$5*
1,1,$1+$1,$6,$7*
1,1,$1+$1,$8,$9*
0 Add four rect primitives between the rounded corners*
20,1,$1+$1,$2,$3,$4,$5,0*
20,1,$1+$1,$4,$5,$6,$7,0*
20,1,$1+$1,$6,$7,$8,$9,0*
20,1,$1+$1,$8,$9,$2,$3,0*%
%AMOutline4P*
0 Free polygon, 4 corners , with rotation*
0 The origin of the aperture is its center*
0 number of corners: always 4*
0 $1 to $8 corner X, Y*
0 $9 Rotation angle, in degrees counterclockwise*
0 create outline with 4 corners*
4,1,4,$1,$2,$3,$4,$5,$6,$7,$8,$1,$2,$9*%
G04 Aperture macros list end*
%TA.AperFunction,EtchedComponent*%
%ADD10C,1.000000*%
%TD*%
%TA.AperFunction,SMDPad,CuDef*%
%ADD11RoundRect,0.250000X-0.337500X-0.475000X0.337500X-0.475000X0.337500X0.475000X-0.337500X0.475000X0*%
%TD*%
%TA.AperFunction,SMDPad,CuDef*%
%ADD12RoundRect,0.250000X0.337500X0.475000X-0.337500X0.475000X-0.337500X-0.475000X0.337500X-0.475000X0*%
%TD*%
%TA.AperFunction,SMDPad,CuDef*%
%ADD13RoundRect,0.250000X-0.475000X0.337500X-0.475000X-0.337500X0.475000X-0.337500X0.475000X0.337500X0*%
%TD*%
%TA.AperFunction,SMDPad,CuDef*%
%ADD14RoundRect,0.100000X0.400000X0.400000X-0.400000X0.400000X-0.400000X-0.400000X0.400000X-0.400000X0*%
%TD*%
%TA.AperFunction,SMDPad,CuDef*%
%ADD15RoundRect,0.105000X0.420000X0.995000X-0.420000X0.995000X-0.420000X-0.995000X0.420000X-0.995000X0*%
%TD*%
%TA.AperFunction,ComponentPad*%
%ADD16R,1.700000X1.700000*%
%TD*%
%TA.AperFunction,ComponentPad*%
%ADD17O,1.700000X1.700000*%
%TD*%
%TA.AperFunction,SMDPad,CuDef*%
%ADD18RoundRect,0.317500X1.157500X0.317500X-1.157500X0.317500X-1.157500X-0.317500X1.157500X-0.317500X0*%
%TD*%
%TA.AperFunction,ComponentPad*%
%ADD19C,1.000000*%
%TD*%
%TA.AperFunction,SMDPad,CuDef*%
%ADD20Outline4P,-0.350000X-0.400000X0.350000X-0.400000X0.050000X0.400000X-0.050000X0.400000X180.000000*%
%TD*%
%TA.AperFunction,ComponentPad*%
%ADD21R,2.000000X2.000000*%
%TD*%
%TA.AperFunction,ComponentPad*%
%ADD22C,2.000000*%
%TD*%
%TA.AperFunction,ViaPad*%
%ADD23C,0.600000*%
%TD*%
%TA.AperFunction,Conductor*%
%ADD24C,0.200000*%
%TD*%
%TA.AperFunction,Conductor*%
%ADD25C,1.000000*%
%TD*%
G04 APERTURE END LIST*
D10*
%TO.C,AE1*%
X121000000Y-52500000D02*
X121000000Y-41500000D01*
X123000000Y-41500000D02*
X123000000Y-46500000D01*
X125000000Y-41500000D02*
X125000000Y-46500000D01*
X127000000Y-41500000D02*
X127000000Y-46500000D01*
X129000000Y-41500000D02*
X129000000Y-46500000D01*
X131000000Y-41500000D02*
X131000000Y-46500000D01*
X133000000Y-41500000D02*
X133000000Y-46500000D01*
X135000000Y-41500000D02*
X135000000Y-46500000D01*
X137000000Y-41500000D02*
X137000000Y-46500000D01*
X139000000Y-41500000D02*
X139000000Y-46500000D01*
%TD*%
D11*
%TO.P,R3,1*%
%TO.N,+3V3*%
X125500000Y-55500000D03*
%TO.P,R3,2*%
%TO.N,SCL*%
X127575000Y-55500000D03*
%TD*%
D12*
%TO.P,R2,1*%
%TO.N,+3V3*%
X139537500Y-55500000D03*
%TO.P,R2,2*%
%TO.N,RFM_MISO*%
X137462500Y-55500000D03*
%TD*%
D11*
%TO.P,R1,1*%
%TO.N,+3V3*%
X131462500Y-55500000D03*
%TO.P,R1,2*%
%TO.N,RST*%
X133537500Y-55500000D03*
%TD*%
%TO.P,R5,1*%
%TO.N,Net-(J4-In)*%
X116462500Y-56500000D03*
%TO.P,R5,2*%
%TO.N,Net-(U2-ANT)*%
X118537500Y-56500000D03*
%TD*%
D13*
%TO.P,R4,1*%
%TO.N,Net-(AE1-A)*%
X121000000Y-54425000D03*
%TO.P,R4,2*%
%TO.N,Net-(U2-ANT)*%
X121000000Y-56500000D03*
%TD*%
D14*
%TO.P,J4,1,In*%
%TO.N,Net-(J4-In)*%
X117000000Y-54000000D03*
D15*
%TO.P,J4,2,Ext*%
%TO.N,GND*%
X115525000Y-52500000D03*
D14*
X117000000Y-51000000D03*
D15*
X118475000Y-52500000D03*
%TD*%
D16*
%TO.P,J3,1,Pin_1*%
%TO.N,+3V3*%
X117500000Y-59700000D03*
D17*
%TO.P,J3,2,Pin_2*%
%TO.N,GND*%
X117500000Y-62240000D03*
%TO.P,J3,3,Pin_3*%
%TO.N,SCL*%
X117500000Y-64780000D03*
%TO.P,J3,4,Pin_4*%
%TO.N,RFM_MISO*%
X117500000Y-67320000D03*
%TD*%
D16*
%TO.P,J2,1,Pin_1*%
%TO.N,+3V3*%
X142500000Y-59920000D03*
D17*
%TO.P,J2,2,Pin_2*%
%TO.N,GND*%
X142500000Y-62460000D03*
%TO.P,J2,3,Pin_3*%
%TO.N,SCL*%
X142500000Y-65000000D03*
%TO.P,J2,4,Pin_4*%
%TO.N,RFM_MISO*%
X142500000Y-67540000D03*
%TD*%
D18*
%TO.P,U2,1,GND*%
%TO.N,GND*%
X137525000Y-73500000D03*
%TO.P,U2,2,MISO*%
%TO.N,RFM_MISO*%
X137525000Y-71500000D03*
%TO.P,U2,3,MOSI*%
%TO.N,RFM_MOSI*%
X137525000Y-69500000D03*
%TO.P,U2,4,SCK*%
%TO.N,RFM_SCK*%
X137525000Y-67500000D03*
%TO.P,U2,5,NSS*%
%TO.N,RFM_NSS*%
X137525000Y-65500000D03*
%TO.P,U2,6,RESET*%
%TO.N,unconnected-(U2-RESET-Pad6)*%
X137525000Y-63500000D03*
%TO.P,U2,7,DIO5*%
%TO.N,unconnected-(U2-DIO5-Pad7)*%
X137525000Y-61500000D03*
%TO.P,U2,8,GND*%
%TO.N,GND*%
X137525000Y-59500000D03*
%TO.P,U2,9,ANT*%
%TO.N,Net-(U2-ANT)*%
X122475000Y-59500000D03*
%TO.P,U2,10,GND*%
%TO.N,GND*%
X122475000Y-61500000D03*
%TO.P,U2,11,DIO3*%
%TO.N,unconnected-(U2-DIO3-Pad11)*%
X122475000Y-63500000D03*
%TO.P,U2,12,DIO4*%
%TO.N,unconnected-(U2-DIO4-Pad12)*%
X122475000Y-65500000D03*
%TO.P,U2,13,3.3V*%
%TO.N,+3V3*%
X122475000Y-67500000D03*
%TO.P,U2,14,DIO0*%
%TO.N,unconnected-(U2-DIO0-Pad14)*%
X122475000Y-69500000D03*
%TO.P,U2,15,DIO1*%
%TO.N,unconnected-(U2-DIO1-Pad15)*%
X122475000Y-71500000D03*
%TO.P,U2,16,DIO2*%
%TO.N,unconnected-(U2-DIO2-Pad16)*%
X122475000Y-73500000D03*
%TD*%
D19*
%TO.P,AE1,*%
%TO.N,*%
X121000000Y-41500000D03*
X123000000Y-41500000D03*
X123000000Y-46500000D03*
X125000000Y-41500000D03*
X125000000Y-46500000D03*
X127000000Y-41500000D03*
X127000000Y-46500000D03*
X129000000Y-41500000D03*
X129000000Y-46500000D03*
X131000000Y-41500000D03*
X131000000Y-46500000D03*
X133000000Y-41500000D03*
X133000000Y-46500000D03*
X135000000Y-41500000D03*
X135000000Y-46500000D03*
X137000000Y-41500000D03*
X137000000Y-46500000D03*
X139000000Y-41500000D03*
X139000000Y-46500000D03*
D20*
%TO.P,AE1,1,A*%
%TO.N,Net-(AE1-A)*%
X121000000Y-53200000D03*
%TD*%
D16*
%TO.P,J1,1,Pin_1*%
%TO.N,+3V3*%
X133540000Y-92460000D03*
D17*
%TO.P,J1,2,Pin_2*%
%TO.N,RFM_MISO*%
X133540000Y-95000000D03*
%TO.P,J1,3,Pin_3*%
%TO.N,SCL*%
X131000000Y-92460000D03*
%TO.P,J1,4,Pin_4*%
%TO.N,GND*%
X131000000Y-95000000D03*
%TO.P,J1,5,Pin_5*%
%TO.N,RST*%
X128460000Y-92460000D03*
%TO.P,J1,6,Pin_6*%
%TO.N,RFM_NSS*%
X128460000Y-95000000D03*
%TO.P,J1,7,Pin_7*%
%TO.N,RFM_MOSI*%
X125920000Y-92460000D03*
%TO.P,J1,8,Pin_8*%
%TO.N,RFM_SCK*%
X125920000Y-95000000D03*
%TD*%
D21*
%TO.P,BT1,1,+*%
%TO.N,+3V3*%
X141857455Y-77500000D03*
D22*
%TO.P,BT1,2,-*%
%TO.N,GND*%
X121057455Y-77500000D03*
%TD*%
D23*
%TO.N,RFM_MISO*%
X137000000Y-89500000D03*
%TO.N,RFM_NSS*%
X133000000Y-75500000D03*
X137525000Y-65500000D03*
%TO.N,RFM_SCK*%
X125500000Y-77500000D03*
X133026457Y-70436000D03*
%TO.N,+3V3*%
X141000000Y-83500000D03*
%TO.N,SCL*%
X143500000Y-71000000D03*
%TO.N,RST*%
X130500000Y-63500000D03*
X127500000Y-72000000D03*
X130500000Y-61805000D03*
X132500000Y-65500000D03*
%TO.N,RFM_NSS*%
X137000000Y-58365000D03*
%TO.N,RFM_SCK*%
X126412500Y-59865000D03*
%TO.N,RFM_MOSI*%
X126412500Y-61135000D03*
X137525000Y-69500000D03*
%TO.N,RFM_MISO*%
X126412500Y-62405000D03*
%TO.N,RST*%
X133587500Y-58595000D03*
%TO.N,SCL*%
X129154990Y-61135000D03*
%TO.N,+3V3*%
X126412500Y-58595000D03*
%TO.N,GND*%
X133587500Y-62405000D03*
%TD*%
D24*
%TO.N,GND*%
X117025000Y-51025000D02*
X118475000Y-51025000D01*
X117000000Y-51000000D02*
X117025000Y-51025000D01*
X118475000Y-51025000D02*
X118475000Y-52500000D01*
X115525000Y-51025000D02*
X115500000Y-51000000D01*
X115525000Y-52500000D02*
X115525000Y-51025000D01*
X115500000Y-51000000D02*
X117000000Y-51000000D01*
%TO.N,RFM_MISO*%
X142500000Y-67540000D02*
X141524000Y-66564000D01*
X141524000Y-66564000D02*
X135441500Y-66564000D01*
X135441500Y-66564000D02*
X131282500Y-62405000D01*
X137000000Y-91540000D02*
X137000000Y-89500000D01*
X133540000Y-95000000D02*
X137000000Y-91540000D01*
%TO.N,GND*%
X131000000Y-95000000D02*
X129849000Y-96151000D01*
X129849000Y-96151000D02*
X125443240Y-96151000D01*
X125443240Y-96151000D02*
X121057455Y-91765215D01*
X121057455Y-91765215D02*
X121057455Y-77500000D01*
%TO.N,RFM_NSS*%
X129611000Y-78889000D02*
X133000000Y-75500000D01*
X129611000Y-93849000D02*
X129611000Y-78889000D01*
X128460000Y-95000000D02*
X129611000Y-93849000D01*
%TO.N,RFM_SCK*%
X124769000Y-78231000D02*
X125500000Y-77500000D01*
X124769000Y-93849000D02*
X124769000Y-78231000D01*
X125920000Y-95000000D02*
X124769000Y-93849000D01*
%TO.N,+3V3*%
X133540000Y-90960000D02*
X141000000Y-83500000D01*
X133540000Y-92460000D02*
X133540000Y-90960000D01*
%TO.N,SCL*%
X143500000Y-79960000D02*
X143500000Y-71000000D01*
X131000000Y-92460000D02*
X143500000Y-79960000D01*
%TO.N,RST*%
X130500000Y-61682500D02*
X133587500Y-58595000D01*
X128460000Y-92460000D02*
X127500000Y-91500000D01*
X127500000Y-91500000D02*
X127500000Y-72000000D01*
X132500000Y-65500000D02*
X130500000Y-63500000D01*
X130500000Y-61805000D02*
X130500000Y-61682500D01*
%TO.N,RFM_NSS*%
X135889600Y-58365000D02*
X137000000Y-58365000D01*
X134127300Y-60127300D02*
X135889600Y-58365000D01*
X137525000Y-65500000D02*
X135549715Y-65500000D01*
X135549715Y-65500000D02*
X132786500Y-62736785D01*
X132786500Y-62736785D02*
X132786500Y-61468100D01*
X132786500Y-61468100D02*
X134127300Y-60127300D01*
%TO.N,+3V3*%
X126412500Y-58595000D02*
X124798061Y-60209439D01*
X124798061Y-60209439D02*
X124798061Y-66651939D01*
X123950000Y-67500000D02*
X122475000Y-67500000D01*
X124798061Y-66651939D02*
X123950000Y-67500000D01*
%TO.N,RFM_SCK*%
X137525000Y-67500000D02*
X137874692Y-67500000D01*
X139301000Y-68926308D02*
X139301000Y-70073692D01*
X137874692Y-67500000D02*
X139301000Y-68926308D01*
X138938692Y-70436000D02*
X133026457Y-70436000D01*
X133026457Y-70436000D02*
X125199061Y-62608604D01*
X139301000Y-70073692D02*
X138938692Y-70436000D01*
X125199061Y-62608604D02*
X125199061Y-61078439D01*
X125199061Y-61078439D02*
X126412500Y-59865000D01*
%TO.N,RFM_MOSI*%
X137525000Y-69500000D02*
X132657557Y-69500000D01*
X125811500Y-62653943D02*
X125811500Y-61736000D01*
X132657557Y-69500000D02*
X125811500Y-62653943D01*
X125811500Y-61736000D02*
X126412500Y-61135000D01*
%TO.N,+3V3*%
X139537500Y-55500000D02*
X139537500Y-56957500D01*
X139537500Y-56957500D02*
X142500000Y-59920000D01*
%TO.N,RFM_MISO*%
X137462500Y-55500000D02*
X137462500Y-56225000D01*
X137462500Y-56225000D02*
X131282500Y-62405000D01*
X131282500Y-62405000D02*
X126412500Y-62405000D01*
%TO.N,RST*%
X133537500Y-55500000D02*
X133587500Y-55550000D01*
X133587500Y-55550000D02*
X133587500Y-58595000D01*
%TO.N,+3V3*%
X131462500Y-55500000D02*
X130436500Y-54474000D01*
X130436500Y-54474000D02*
X126526000Y-54474000D01*
X126526000Y-54474000D02*
X125500000Y-55500000D01*
%TO.N,SCL*%
X127575000Y-55500000D02*
X127575000Y-59555010D01*
X127575000Y-59555010D02*
X129154990Y-61135000D01*
%TO.N,+3V3*%
X125500000Y-55500000D02*
X125500000Y-57682500D01*
X125500000Y-57682500D02*
X126412500Y-58595000D01*
%TO.N,GND*%
X137525000Y-59500000D02*
X136050000Y-59500000D01*
D25*
X136050000Y-59500000D02*
X133587500Y-61962500D01*
X133587500Y-61962500D02*
X133587500Y-62405000D01*
%TO.N,+3V3*%
X141857455Y-77500000D02*
X136914100Y-77500000D01*
X136914100Y-77500000D02*
X126914100Y-67500000D01*
X126914100Y-67500000D02*
X122475000Y-67500000D01*
D24*
%TO.N,GND*%
X117000000Y-51000000D02*
X117000000Y-51025000D01*
X115525000Y-52500000D02*
X115525000Y-60265000D01*
X115525000Y-60265000D02*
X117500000Y-62240000D01*
D25*
%TO.N,Net-(J4-In)*%
X116462500Y-56500000D02*
X116462500Y-54537500D01*
X116462500Y-54537500D02*
X117000000Y-54000000D01*
%TO.N,Net-(U2-ANT)*%
X121000000Y-56500000D02*
X118537500Y-56500000D01*
D24*
%TO.N,Net-(AE1-A)*%
X121000000Y-54425000D02*
X121000000Y-53301000D01*
D25*
%TO.N,Net-(U2-ANT)*%
X121000000Y-58025000D02*
X121000000Y-56500000D01*
D24*
%TO.N,GND*%
X142500000Y-62460000D02*
X140460000Y-62460000D01*
X140460000Y-62460000D02*
X140000000Y-62000000D01*
X140000000Y-60500000D02*
X139000000Y-59500000D01*
X139000000Y-73500000D02*
X143651000Y-68849000D01*
X139000000Y-59500000D02*
X137525000Y-59500000D01*
X140000000Y-62000000D02*
X140000000Y-60500000D01*
X117500000Y-62240000D02*
X121735000Y-62240000D01*
X121735000Y-62240000D02*
X122475000Y-61500000D01*
X143651000Y-68849000D02*
X143651000Y-63611000D01*
X137525000Y-73500000D02*
X139000000Y-73500000D01*
X143651000Y-63611000D02*
X142500000Y-62460000D01*
%TO.N,RFM_MISO*%
X142500000Y-67540000D02*
X138540000Y-71500000D01*
X138540000Y-71500000D02*
X137525000Y-71500000D01*
D25*
%TO.N,Net-(U2-ANT)*%
X122475000Y-59500000D02*
X121000000Y-58025000D01*
%TD*%
%TA.AperFunction,Conductor*%
%TO.N,GND*%
G36*
X144942539Y-53519685D02*
G01*
X144988294Y-53572489D01*
X144999500Y-53624000D01*
X144999500Y-84498437D01*
X144999460Y-84501578D01*
X144980327Y-85256565D01*
X144980009Y-85262840D01*
X144922779Y-86014349D01*
X144922143Y-86020599D01*
X144826928Y-86768217D01*
X144825977Y-86774427D01*
X144693012Y-87516290D01*
X144691747Y-87522444D01*
X144521386Y-88256588D01*
X144519812Y-88262670D01*
X144312474Y-88987282D01*
X144310593Y-88993276D01*
X144066830Y-89706428D01*
X144064648Y-89712320D01*
X143785069Y-90412233D01*
X143782591Y-90418006D01*
X143467938Y-91102819D01*
X143465172Y-91108460D01*
X143116215Y-91776503D01*
X143113166Y-91781996D01*
X142730824Y-92431504D01*
X142727500Y-92436835D01*
X142312782Y-93066095D01*
X142309194Y-93071252D01*
X141863096Y-93678757D01*
X141859250Y-93683725D01*
X141382980Y-94267822D01*
X141378888Y-94272589D01*
X140873625Y-94831838D01*
X140869296Y-94836391D01*
X140336391Y-95369296D01*
X140331838Y-95373625D01*
X139772589Y-95878888D01*
X139767822Y-95882980D01*
X139183725Y-96359250D01*
X139178757Y-96363096D01*
X138571252Y-96809194D01*
X138566095Y-96812782D01*
X137936835Y-97227500D01*
X137931504Y-97230824D01*
X137281996Y-97613166D01*
X137276503Y-97616215D01*
X136608460Y-97965172D01*
X136602819Y-97967938D01*
X135918006Y-98282591D01*
X135912233Y-98285069D01*
X135212320Y-98564648D01*
X135206428Y-98566830D01*
X134493276Y-98810593D01*
X134487282Y-98812474D01*
X133762670Y-99019812D01*
X133756588Y-99021386D01*
X133022444Y-99191747D01*
X133016290Y-99193012D01*
X132274427Y-99325977D01*
X132268217Y-99326928D01*
X131520599Y-99422143D01*
X131514349Y-99422779D01*
X130923097Y-99467805D01*
X130854756Y-99453268D01*
X130805124Y-99404091D01*
X130789957Y-99335887D01*
X130814073Y-99270311D01*
X130840792Y-99243848D01*
X130977510Y-99144517D01*
X131144517Y-98977510D01*
X131283343Y-98786433D01*
X131390568Y-98575992D01*
X131463553Y-98351368D01*
X131488929Y-98191150D01*
X131500500Y-98118097D01*
X131500500Y-97881902D01*
X131463553Y-97648631D01*
X131390566Y-97424003D01*
X131334002Y-97312991D01*
X131283343Y-97213567D01*
X131144517Y-97022490D01*
X130977510Y-96855483D01*
X130786433Y-96716657D01*
X130575996Y-96609433D01*
X130351368Y-96536446D01*
X130118097Y-96499500D01*
X130118092Y-96499500D01*
X129881908Y-96499500D01*
X129881903Y-96499500D01*
X129648631Y-96536446D01*
X129424003Y-96609433D01*
X129213566Y-96716657D01*
X129104550Y-96795862D01*
X129022490Y-96855483D01*
X129022488Y-96855485D01*
X129022487Y-96855485D01*
X128855485Y-97022487D01*
X128855485Y-97022488D01*
X128855483Y-97022490D01*
X128795862Y-97104550D01*
X128716657Y-97213566D01*
X128609433Y-97424003D01*
X128536446Y-97648631D01*
X128499500Y-97881902D01*
X128499500Y-98118097D01*
X128536446Y-98351368D01*
X128609433Y-98575996D01*
X128716657Y-98786433D01*
X128855483Y-98977510D01*
X129022490Y-99144517D01*
X129159203Y-99243845D01*
X129201869Y-99299175D01*
X129207848Y-99368788D01*
X129175242Y-99430583D01*
X129114404Y-99464940D01*
X129076902Y-99467805D01*
X128485650Y-99422779D01*
X128479400Y-99422143D01*
X127731782Y-99326928D01*
X127725572Y-99325977D01*
X126983709Y-99193012D01*
X126977555Y-99191747D01*
X126243411Y-99021386D01*
X126237329Y-99019812D01*
X125512717Y-98812474D01*
X125506723Y-98810593D01*
X124793571Y-98566830D01*
X124787679Y-98564648D01*
X124087766Y-98285069D01*
X124081993Y-98282591D01*
X123397180Y-97967938D01*
X123391539Y-97965172D01*
X122723496Y-97616215D01*
X122718003Y-97613166D01*
X122068495Y-97230824D01*
X122063164Y-97227500D01*
X121433904Y-96812782D01*
X121428747Y-96809194D01*
X120821242Y-96363096D01*
X120816274Y-96359250D01*
X120232177Y-95882980D01*
X120227410Y-95878888D01*
X119668161Y-95373625D01*
X119663608Y-95369296D01*
X119130703Y-94836391D01*
X119126374Y-94831838D01*
X118621111Y-94272589D01*
X118617019Y-94267822D01*
X118238895Y-93804091D01*
X118140741Y-93683715D01*
X118136903Y-93678757D01*
X118128671Y-93667547D01*
X117690803Y-93071250D01*
X117687217Y-93066095D01*
X117363698Y-92575213D01*
X117272494Y-92436827D01*
X117269175Y-92431504D01*
X116886833Y-91781996D01*
X116883784Y-91776503D01*
X116534827Y-91108460D01*
X116532061Y-91102819D01*
X116217408Y-90418006D01*
X116214930Y-90412233D01*
X116082126Y-90079765D01*
X115935346Y-89712306D01*
X115933169Y-89706428D01*
X115889560Y-89578846D01*
X115689403Y-88993266D01*
X115687525Y-88987282D01*
X115480183Y-88262654D01*
X115478613Y-88256588D01*
X115308246Y-87522417D01*
X115306992Y-87516316D01*
X115174021Y-86774422D01*
X115173071Y-86768217D01*
X115077856Y-86020599D01*
X115077220Y-86014349D01*
X115019990Y-85262840D01*
X115019672Y-85256565D01*
X115000540Y-84501578D01*
X115000500Y-84498437D01*
X115000500Y-77381947D01*
X119557455Y-77381947D01*
X119557455Y-77618052D01*
X119594389Y-77851247D01*
X119667352Y-78075802D01*
X119774542Y-78286174D01*
X119834793Y-78369104D01*
X119834795Y-78369105D01*
X120379876Y-77824024D01*
X120392814Y-77855258D01*
X120474892Y-77978097D01*
X120579358Y-78082563D01*
X120702197Y-78164641D01*
X120733429Y-78177578D01*
X120188348Y-78722658D01*
X120271283Y-78782914D01*
X120481652Y-78890102D01*
X120706207Y-78963065D01*
X120706206Y-78963065D01*
X120939403Y-79000000D01*
X121175507Y-79000000D01*
X121408702Y-78963065D01*
X121633257Y-78890102D01*
X121843618Y-78782918D01*
X121843624Y-78782914D01*
X121926559Y-78722658D01*
X121926560Y-78722658D01*
X121381479Y-78177578D01*
X121412713Y-78164641D01*
X121535552Y-78082563D01*
X121640018Y-77978097D01*
X121722096Y-77855258D01*
X121735033Y-77824024D01*
X122280113Y-78369105D01*
X122280113Y-78369104D01*
X122340369Y-78286169D01*
X122340373Y-78286163D01*
X122447557Y-78075802D01*
X122520520Y-77851247D01*
X122557455Y-77618052D01*
X122557455Y-77381947D01*
X122520520Y-77148752D01*
X122447557Y-76924197D01*
X122340369Y-76713828D01*
X122280113Y-76630894D01*
X122280113Y-76630893D01*
X121735032Y-77175974D01*
X121722096Y-77144742D01*
X121640018Y-77021903D01*
X121535552Y-76917437D01*
X121412713Y-76835359D01*
X121381479Y-76822421D01*
X121926560Y-76277340D01*
X121926559Y-76277338D01*
X121843629Y-76217087D01*
X121633257Y-76109897D01*
X121408702Y-76036934D01*
X121408703Y-76036934D01*
X121175507Y-76000000D01*
X120939403Y-76000000D01*
X120706207Y-76036934D01*
X120481652Y-76109897D01*
X120271285Y-76217084D01*
X120188349Y-76277340D01*
X120733430Y-76822421D01*
X120702197Y-76835359D01*
X120579358Y-76917437D01*
X120474892Y-77021903D01*
X120392814Y-77144742D01*
X120379876Y-77175975D01*
X119834795Y-76630894D01*
X119774539Y-76713830D01*
X119667352Y-76924197D01*
X119594389Y-77148752D01*
X119557455Y-77381947D01*
X115000500Y-77381947D01*
X115000500Y-58802135D01*
X116149500Y-58802135D01*
X116149500Y-60597870D01*
X116149501Y-60597876D01*
X116155908Y-60657483D01*
X116206202Y-60792328D01*
X116206206Y-60792335D01*
X116292452Y-60907544D01*
X116292455Y-60907547D01*
X116407664Y-60993793D01*
X116407671Y-60993797D01*
X116459997Y-61013313D01*
X116539598Y-61043002D01*
X116595531Y-61084873D01*
X116619949Y-61150337D01*
X116605098Y-61218610D01*
X116583947Y-61246865D01*
X116470271Y-61360541D01*
X116345379Y-61532442D01*
X116248904Y-61721782D01*
X116183242Y-61923870D01*
X116183242Y-61923873D01*
X116172769Y-61990000D01*
X117066988Y-61990000D01*
X117034075Y-62047007D01*
X117000000Y-62174174D01*
X117000000Y-62305826D01*
X117034075Y-62432993D01*
X117066988Y-62490000D01*
X116172769Y-62490000D01*
X116183242Y-62556126D01*
X116183242Y-62556129D01*
X116248904Y-62758217D01*
X116345379Y-62947557D01*
X116470272Y-63119459D01*
X116470276Y-63119464D01*
X116620535Y-63269723D01*
X116620540Y-63269727D01*
X116792444Y-63394622D01*
X116801495Y-63399234D01*
X116852292Y-63447208D01*
X116869087Y-63515029D01*
X116846550Y-63581164D01*
X116801499Y-63620202D01*
X116792182Y-63624949D01*
X116620213Y-63749890D01*
X116469890Y-63900213D01*
X116344951Y-64072179D01*
X116248444Y-64261585D01*
X116182753Y-64463760D01*
X116151762Y-64659430D01*
X116149500Y-64673713D01*
X116149500Y-64886287D01*
X116182754Y-65096243D01*
X116195854Y-65136562D01*
X116248444Y-65298414D01*
X116344951Y-65487820D01*
X116469890Y-65659786D01*
X116620213Y-65810109D01*
X116792182Y-65935050D01*
X116800946Y-65939516D01*
X116851742Y-65987491D01*
X116868536Y-66055312D01*
X116845998Y-66121447D01*
X116800946Y-66160484D01*
X116792182Y-66164949D01*
X116620213Y-66289890D01*
X116469890Y-66440213D01*
X116344951Y-66612179D01*
X116248444Y-66801585D01*
X116182753Y-67003760D01*
X116149500Y-67213713D01*
X116149500Y-67426286D01*
X116182753Y-67636239D01*
X116248444Y-67838414D01*
X116344951Y-68027820D01*
X116469890Y-68199786D01*
X116620213Y-68350109D01*
X116792179Y-68475048D01*
X116792181Y-68475049D01*
X116792184Y-68475051D01*
X116981588Y-68571557D01*
X117183757Y-68637246D01*
X117393713Y-68670500D01*
X117393714Y-68670500D01*
X117606286Y-68670500D01*
X117606287Y-68670500D01*
X117816243Y-68637246D01*
X118018412Y-68571557D01*
X118207816Y-68475051D01*
X118248096Y-68445786D01*
X118379786Y-68350109D01*
X118379788Y-68350106D01*
X118379792Y-68350104D01*
X118530104Y-68199792D01*
X118530106Y-68199788D01*
X118530109Y-68199786D01*
X118655048Y-68027820D01*
X118655047Y-68027820D01*
X118655051Y-68027816D01*
X118751557Y-67838412D01*
X118817246Y-67636243D01*
X118850500Y-67426287D01*
X118850500Y-67213713D01*
X118817246Y-67003757D01*
X118751557Y-66801588D01*
X118655051Y-66612184D01*
X118655049Y-66612181D01*
X118655048Y-66612179D01*
X118530109Y-66440213D01*
X118379786Y-66289890D01*
X118207820Y-66164951D01*
X118207115Y-66164591D01*
X118199054Y-66160485D01*
X118148259Y-66112512D01*
X118131463Y-66044692D01*
X118153999Y-65978556D01*
X118199054Y-65939515D01*
X118207816Y-65935051D01*
X118255406Y-65900475D01*
X118379786Y-65810109D01*
X118379788Y-65810106D01*
X118379792Y-65810104D01*
X118530104Y-65659792D01*
X118530106Y-65659788D01*
X118530109Y-65659786D01*
X118655048Y-65487820D01*
X118655047Y-65487820D01*
X118655051Y-65487816D01*
X118751557Y-65298412D01*
X118817246Y-65096243D01*
X118850500Y-64886287D01*
X118850500Y-64673713D01*
X118817246Y-64463757D01*
X118751557Y-64261588D01*
X118655051Y-64072184D01*
X118655049Y-64072181D01*
X118655048Y-64072179D01*
X118530109Y-63900213D01*
X118379786Y-63749890D01*
X118207817Y-63624949D01*
X118198504Y-63620204D01*
X118147707Y-63572230D01*
X118130912Y-63504409D01*
X118153449Y-63438274D01*
X118198507Y-63399232D01*
X118207558Y-63394620D01*
X118379459Y-63269727D01*
X118379464Y-63269723D01*
X118529723Y-63119464D01*
X118529727Y-63119459D01*
X118654620Y-62947557D01*
X118751095Y-62758217D01*
X118816757Y-62556129D01*
X118816757Y-62556126D01*
X118827231Y-62490000D01*
X117933012Y-62490000D01*
X117965925Y-62432993D01*
X118000000Y-62305826D01*
X118000000Y-62174174D01*
X117965925Y-62047007D01*
X117933012Y-61990000D01*
X118827231Y-61990000D01*
X118816757Y-61923873D01*
X118816757Y-61923870D01*
X118751095Y-61721782D01*
X118654620Y-61532442D01*
X118529727Y-61360540D01*
X118529723Y-61360535D01*
X118416053Y-61246865D01*
X118382568Y-61185542D01*
X118387552Y-61115850D01*
X118429424Y-61059917D01*
X118460400Y-61043002D01*
X118577499Y-60999328D01*
X118592326Y-60993798D01*
X118592326Y-60993797D01*
X118592331Y-60993796D01*
X118707546Y-60907546D01*
X118793796Y-60792331D01*
X118844091Y-60657483D01*
X118850500Y-60597873D01*
X118850499Y-58802128D01*
X118844091Y-58742517D01*
X118832878Y-58712454D01*
X118793797Y-58607671D01*
X118793793Y-58607664D01*
X118707547Y-58492455D01*
X118707544Y-58492452D01*
X118592335Y-58406206D01*
X118592328Y-58406202D01*
X118457482Y-58355908D01*
X118457483Y-58355908D01*
X118397883Y-58349501D01*
X118397881Y-58349500D01*
X118397873Y-58349500D01*
X118397864Y-58349500D01*
X116602129Y-58349500D01*
X116602123Y-58349501D01*
X116542516Y-58355908D01*
X116407671Y-58406202D01*
X116407664Y-58406206D01*
X116292455Y-58492452D01*
X116292452Y-58492455D01*
X116206206Y-58607664D01*
X116206202Y-58607671D01*
X116155908Y-58742517D01*
X116149501Y-58802116D01*
X116149501Y-58802123D01*
X116149500Y-58802135D01*
X115000500Y-58802135D01*
X115000500Y-54223999D01*
X115020185Y-54156960D01*
X115072989Y-54111205D01*
X115124500Y-54099999D01*
X115378329Y-54099999D01*
X115445368Y-54119684D01*
X115491123Y-54172488D01*
X115501067Y-54241646D01*
X115499946Y-54248190D01*
X115462000Y-54438954D01*
X115462000Y-55635134D01*
X115443541Y-55700225D01*
X115441188Y-55704039D01*
X115440185Y-55705667D01*
X115425000Y-55751494D01*
X115385001Y-55872203D01*
X115385001Y-55872204D01*
X115385000Y-55872204D01*
X115374500Y-55974983D01*
X115374500Y-57025001D01*
X115374501Y-57025019D01*
X115385000Y-57127796D01*
X115385001Y-57127799D01*
X115421984Y-57239404D01*
X115440186Y-57294334D01*
X115532288Y-57443656D01*
X115656344Y-57567712D01*
X115805666Y-57659814D01*
X115972203Y-57714999D01*
X116074991Y-57725500D01*
X116850008Y-57725499D01*
X116850016Y-57725498D01*
X116850019Y-57725498D01*
X116906302Y-57719748D01*
X116952797Y-57714999D01*
X117119334Y-57659814D01*
X117268656Y-57567712D01*
X117392712Y-57443656D01*
X117394461Y-57440819D01*
X117396169Y-57439283D01*
X117397193Y-57437989D01*
X117397414Y-57438163D01*
X117446406Y-57394096D01*
X117515368Y-57382872D01*
X117579451Y-57410713D01*
X117605537Y-57440817D01*
X117607288Y-57443656D01*
X117731344Y-57567712D01*
X117880666Y-57659814D01*
X118047203Y-57714999D01*
X118149991Y-57725500D01*
X118925008Y-57725499D01*
X118925016Y-57725498D01*
X118925019Y-57725498D01*
X118981302Y-57719748D01*
X119027797Y-57714999D01*
X119194334Y-57659814D01*
X119343656Y-57567712D01*
X119374549Y-57536819D01*
X119435872Y-57503334D01*
X119462230Y-57500500D01*
X119875500Y-57500500D01*
X119942539Y-57520185D01*
X119988294Y-57572989D01*
X119999500Y-57624500D01*
X119999500Y-58123541D01*
X120007353Y-58163020D01*
X120037949Y-58316836D01*
X120054134Y-58355909D01*
X120057664Y-58364431D01*
X120057666Y-58364439D01*
X120113364Y-58498906D01*
X120113371Y-58498919D01*
X120222860Y-58662782D01*
X120366537Y-58806459D01*
X120366559Y-58806479D01*
X120477237Y-58917157D01*
X120510722Y-58978480D01*
X120512776Y-59018721D01*
X120499500Y-59136554D01*
X120499500Y-59863442D01*
X120514961Y-60000671D01*
X120575845Y-60174665D01*
X120673915Y-60330742D01*
X120755845Y-60412672D01*
X120789330Y-60473995D01*
X120784346Y-60543687D01*
X120755846Y-60588034D01*
X120674307Y-60669573D01*
X120576296Y-60825556D01*
X120515452Y-60999440D01*
X120515451Y-60999446D01*
X120500000Y-61136581D01*
X120500000Y-61250000D01*
X122351000Y-61250000D01*
X122418039Y-61269685D01*
X122463794Y-61322489D01*
X122475000Y-61374000D01*
X122475000Y-61626000D01*
X122455315Y-61693039D01*
X122402511Y-61738794D01*
X122351000Y-61750000D01*
X120500000Y-61750000D01*
X120500000Y-61863418D01*
X120515451Y-62000553D01*
X120515452Y-62000559D01*
X120576296Y-62174443D01*
X120674308Y-62330428D01*
X120755845Y-62411965D01*
X120789330Y-62473288D01*
X120784346Y-62542980D01*
X120755846Y-62587327D01*
X120673914Y-62669259D01*
X120575845Y-62825334D01*
X120514961Y-62999328D01*
X120499500Y-63136557D01*
X120499500Y-63863442D01*
X120514961Y-64000671D01*
X120575845Y-64174665D01*
X120673915Y-64330742D01*
X120755492Y-64412319D01*
X120788977Y-64473642D01*
X120783993Y-64543334D01*
X120755492Y-64587681D01*
X120673915Y-64669257D01*
X120575845Y-64825334D01*
X120514961Y-64999328D01*
X120499500Y-65136557D01*
X120499500Y-65863442D01*
X120514961Y-66000671D01*
X120557223Y-66121447D01*
X120568980Y-66155048D01*
X120575845Y-66174665D01*
X120673915Y-66330742D01*
X120755492Y-66412319D01*
X120788977Y-66473642D01*
X120783993Y-66543334D01*
X120755492Y-66587681D01*
X120673915Y-66669257D01*
X120575845Y-66825334D01*
X120514961Y-66999328D01*
X120499500Y-67136557D01*
X120499500Y-67863442D01*
X120514961Y-68000671D01*
X120575845Y-68174665D01*
X120673915Y-68330742D01*
X120755492Y-68412319D01*
X120788977Y-68473642D01*
X120783993Y-68543334D01*
X120755492Y-68587681D01*
X120673915Y-68669257D01*
X120575845Y-68825334D01*
X120514961Y-68999328D01*
X120499500Y-69136557D01*
X120499500Y-69863442D01*
X120514961Y-70000671D01*
X120575845Y-70174665D01*
X120673915Y-70330742D01*
X120755492Y-70412319D01*
X120788977Y-70473642D01*
X120783993Y-70543334D01*
X120755492Y-70587681D01*
X120673915Y-70669257D01*
X120575845Y-70825334D01*
X120514961Y-70999328D01*
X120499500Y-71136557D01*
X120499500Y-71863442D01*
X120514961Y-72000671D01*
X120575845Y-72174665D01*
X120673915Y-72330742D01*
X120755492Y-72412319D01*
X120788977Y-72473642D01*
X120783993Y-72543334D01*
X120755492Y-72587681D01*
X120673915Y-72669257D01*
X120575845Y-72825334D01*
X120514961Y-72999328D01*
X120499500Y-73136557D01*
X120499500Y-73863442D01*
X120514961Y-74000671D01*
X120561229Y-74132896D01*
X120575844Y-74174663D01*
X120673915Y-74330742D01*
X120804258Y-74461085D01*
X120960337Y-74559156D01*
X121092559Y-74605422D01*
X121134328Y-74620038D01*
X121222090Y-74629925D01*
X121271557Y-74635499D01*
X121271558Y-74635500D01*
X121271562Y-74635500D01*
X123678442Y-74635500D01*
X123678442Y-74635499D01*
X123740673Y-74628487D01*
X123815671Y-74620038D01*
X123817074Y-74619547D01*
X123989663Y-74559156D01*
X124145742Y-74461085D01*
X124276085Y-74330742D01*
X124374156Y-74174663D01*
X124435037Y-74000674D01*
X124435037Y-74000673D01*
X124435038Y-74000671D01*
X124443487Y-73925673D01*
X124450500Y-73863438D01*
X124450500Y-73136562D01*
X124435051Y-72999446D01*
X124435038Y-72999328D01*
X124420422Y-72957559D01*
X124374156Y-72825337D01*
X124276085Y-72669258D01*
X124194508Y-72587681D01*
X124161023Y-72526358D01*
X124166007Y-72456666D01*
X124194508Y-72412319D01*
X124227655Y-72379172D01*
X124276085Y-72330742D01*
X124374156Y-72174663D01*
X124435037Y-72000674D01*
X124435037Y-72000673D01*
X124435038Y-72000671D01*
X124443997Y-71921153D01*
X124450500Y-71863438D01*
X124450500Y-71136562D01*
X124443996Y-71078842D01*
X124435038Y-70999328D01*
X124407683Y-70921153D01*
X124374156Y-70825337D01*
X124276085Y-70669258D01*
X124194508Y-70587681D01*
X124161023Y-70526358D01*
X124166007Y-70456666D01*
X124194508Y-70412319D01*
X124228617Y-70378210D01*
X124276085Y-70330742D01*
X124374156Y-70174663D01*
X124435037Y-70000674D01*
X124435037Y-70000673D01*
X124435038Y-70000671D01*
X124443487Y-69925673D01*
X124450500Y-69863438D01*
X124450500Y-69136562D01*
X124442348Y-69064212D01*
X124435038Y-68999328D01*
X124414743Y-68941329D01*
X124374156Y-68825337D01*
X124374154Y-68825334D01*
X124374154Y-68825333D01*
X124289415Y-68690473D01*
X124270414Y-68623236D01*
X124290781Y-68556401D01*
X124344049Y-68511186D01*
X124394408Y-68500500D01*
X126448318Y-68500500D01*
X126515357Y-68520185D01*
X126535999Y-68536819D01*
X132615267Y-74616087D01*
X132648752Y-74677410D01*
X132643768Y-74747102D01*
X132601896Y-74803035D01*
X132596478Y-74806869D01*
X132489713Y-74878208D01*
X132489707Y-74878213D01*
X132378213Y-74989707D01*
X132378210Y-74989711D01*
X132290609Y-75120814D01*
X132290602Y-75120827D01*
X132230264Y-75266498D01*
X132230261Y-75266508D01*
X132199362Y-75421848D01*
X132166977Y-75483759D01*
X132165426Y-75485337D01*
X129244762Y-78406001D01*
X129244753Y-78406010D01*
X129242286Y-78408478D01*
X129242284Y-78408480D01*
X129130480Y-78520284D01*
X129114552Y-78547873D01*
X129051423Y-78657215D01*
X129010499Y-78809943D01*
X129010499Y-78809945D01*
X129010499Y-78978046D01*
X129010500Y-78978059D01*
X129010500Y-91048197D01*
X128990815Y-91115236D01*
X128938011Y-91160991D01*
X128868853Y-91170935D01*
X128848183Y-91166128D01*
X128776244Y-91142754D01*
X128776240Y-91142753D01*
X128614957Y-91117208D01*
X128566287Y-91109500D01*
X128353713Y-91109500D01*
X128300438Y-91117938D01*
X128243898Y-91126893D01*
X128174604Y-91117938D01*
X128121152Y-91072942D01*
X128100513Y-91006191D01*
X128100500Y-91004420D01*
X128100500Y-72579765D01*
X128120185Y-72512726D01*
X128121398Y-72510874D01*
X128209390Y-72379185D01*
X128209390Y-72379184D01*
X128209394Y-72379179D01*
X128269737Y-72233497D01*
X128300500Y-72078842D01*
X128300500Y-71921158D01*
X128300500Y-71921155D01*
X128300499Y-71921153D01*
X128269738Y-71766510D01*
X128269737Y-71766503D01*
X128269735Y-71766498D01*
X128209397Y-71620827D01*
X128209390Y-71620814D01*
X128121789Y-71489711D01*
X128121786Y-71489707D01*
X128010292Y-71378213D01*
X128010288Y-71378210D01*
X127879185Y-71290609D01*
X127879172Y-71290602D01*
X127733501Y-71230264D01*
X127733489Y-71230261D01*
X127578845Y-71199500D01*
X127578842Y-71199500D01*
X127421158Y-71199500D01*
X127421155Y-71199500D01*
X127266510Y-71230261D01*
X127266498Y-71230264D01*
X127120827Y-71290602D01*
X127120814Y-71290609D01*
X126989711Y-71378210D01*
X126989707Y-71378213D01*
X126878213Y-71489707D01*
X126878210Y-71489711D01*
X126790609Y-71620814D01*
X126790602Y-71620827D01*
X126730264Y-71766498D01*
X126730261Y-71766510D01*
X126699500Y-71921153D01*
X126699500Y-72078846D01*
X126730261Y-72233489D01*
X126730264Y-72233501D01*
X126790602Y-72379172D01*
X126790609Y-72379185D01*
X126878602Y-72510874D01*
X126899480Y-72577551D01*
X126899500Y-72579765D01*
X126899500Y-91258974D01*
X126879815Y-91326013D01*
X126827011Y-91371768D01*
X126757853Y-91381712D01*
X126702615Y-91359293D01*
X126627815Y-91304948D01*
X126438414Y-91208444D01*
X126438413Y-91208443D01*
X126438412Y-91208443D01*
X126236243Y-91142754D01*
X126236241Y-91142753D01*
X126236240Y-91142753D01*
X126074957Y-91117208D01*
X126026287Y-91109500D01*
X125813713Y-91109500D01*
X125790365Y-91113198D01*
X125603759Y-91142753D01*
X125603755Y-91142754D01*
X125531817Y-91166128D01*
X125461976Y-91168123D01*
X125402143Y-91132042D01*
X125371316Y-91069341D01*
X125369500Y-91048197D01*
X125369500Y-78531097D01*
X125378145Y-78501653D01*
X125384668Y-78471671D01*
X125388422Y-78466655D01*
X125389185Y-78464058D01*
X125405813Y-78443421D01*
X125514663Y-78334571D01*
X125575982Y-78301089D01*
X125578150Y-78300638D01*
X125650918Y-78286163D01*
X125733497Y-78269737D01*
X125879179Y-78209394D01*
X126010289Y-78121789D01*
X126121789Y-78010289D01*
X126209394Y-77879179D01*
X126269737Y-77733497D01*
X126300500Y-77578842D01*
X126300500Y-77421158D01*
X126300500Y-77421155D01*
X126300499Y-77421153D01*
X126269738Y-77266510D01*
X126269738Y-77266508D01*
X126269737Y-77266503D01*
X126269735Y-77266498D01*
X126209397Y-77120827D01*
X126209390Y-77120814D01*
X126121789Y-76989711D01*
X126121786Y-76989707D01*
X126010292Y-76878213D01*
X126010288Y-76878210D01*
X125879185Y-76790609D01*
X125879172Y-76790602D01*
X125733501Y-76730264D01*
X125733489Y-76730261D01*
X125578845Y-76699500D01*
X125578842Y-76699500D01*
X125421158Y-76699500D01*
X125421155Y-76699500D01*
X125266510Y-76730261D01*
X125266498Y-76730264D01*
X125120827Y-76790602D01*
X125120814Y-76790609D01*
X124989711Y-76878210D01*
X124989707Y-76878213D01*
X124878213Y-76989707D01*
X124878210Y-76989711D01*
X124790609Y-77120814D01*
X124790602Y-77120827D01*
X124730264Y-77266498D01*
X124730261Y-77266508D01*
X124699361Y-77421850D01*
X124666976Y-77483761D01*
X124665425Y-77485339D01*
X124288481Y-77862282D01*
X124288479Y-77862284D01*
X124278722Y-77879185D01*
X124258236Y-77914669D01*
X124209423Y-77999215D01*
X124168499Y-78151943D01*
X124168499Y-78151945D01*
X124168499Y-78320046D01*
X124168500Y-78320059D01*
X124168500Y-93762330D01*
X124168499Y-93762348D01*
X124168499Y-93928054D01*
X124168498Y-93928054D01*
X124209423Y-94080787D01*
X124228234Y-94113366D01*
X124228235Y-94113369D01*
X124288475Y-94217709D01*
X124288481Y-94217717D01*
X124407349Y-94336585D01*
X124407355Y-94336590D01*
X124586241Y-94515476D01*
X124619726Y-94576799D01*
X124616492Y-94641473D01*
X124602753Y-94683757D01*
X124583233Y-94807007D01*
X124569500Y-94893713D01*
X124569500Y-95106287D01*
X124579534Y-95169644D01*
X124602753Y-95316239D01*
X124668444Y-95518414D01*
X124764951Y-95707820D01*
X124889890Y-95879786D01*
X125040213Y-96030109D01*
X125212179Y-96155048D01*
X125212181Y-96155049D01*
X125212184Y-96155051D01*
X125401588Y-96251557D01*
X125603757Y-96317246D01*
X125813713Y-96350500D01*
X125813714Y-96350500D01*
X126026286Y-96350500D01*
X126026287Y-96350500D01*
X126236243Y-96317246D01*
X126438412Y-96251557D01*
X126627816Y-96155051D01*
X126714865Y-96091807D01*
X126799786Y-96030109D01*
X126799788Y-96030106D01*
X126799792Y-96030104D01*
X126950104Y-95879792D01*
X126950106Y-95879788D01*
X126950109Y-95879786D01*
X127075048Y-95707820D01*
X127075047Y-95707820D01*
X127075051Y-95707816D01*
X127079514Y-95699054D01*
X127127488Y-95648259D01*
X127195308Y-95631463D01*
X127261444Y-95653999D01*
X127300486Y-95699056D01*
X127304951Y-95707820D01*
X127429890Y-95879786D01*
X127580213Y-96030109D01*
X127752179Y-96155048D01*
X127752181Y-96155049D01*
X127752184Y-96155051D01*
X127941588Y-96251557D01*
X128143757Y-96317246D01*
X128353713Y-96350500D01*
X128353714Y-96350500D01*
X128566286Y-96350500D01*
X128566287Y-96350500D01*
X128776243Y-96317246D01*
X128978412Y-96251557D01*
X129167816Y-96155051D01*
X129254865Y-96091807D01*
X129339786Y-96030109D01*
X129339788Y-96030106D01*
X129339792Y-96030104D01*
X129490104Y-95879792D01*
X129490106Y-95879788D01*
X129490109Y-95879786D01*
X129615048Y-95707820D01*
X129615051Y-95707816D01*
X129619793Y-95698508D01*
X129667763Y-95647711D01*
X129735583Y-95630911D01*
X129801719Y-95653445D01*
X129840763Y-95698500D01*
X129845377Y-95707555D01*
X129970272Y-95879459D01*
X129970276Y-95879464D01*
X130120535Y-96029723D01*
X130120540Y-96029727D01*
X130292442Y-96154620D01*
X130481782Y-96251095D01*
X130683871Y-96316757D01*
X130750000Y-96327231D01*
X130750000Y-95433012D01*
X130807007Y-95465925D01*
X130934174Y-95500000D01*
X131065826Y-95500000D01*
X131192993Y-95465925D01*
X131250000Y-95433012D01*
X131250000Y-96327230D01*
X131316126Y-96316757D01*
X131316129Y-96316757D01*
X131518217Y-96251095D01*
X131707557Y-96154620D01*
X131879459Y-96029727D01*
X131879464Y-96029723D01*
X132029723Y-95879464D01*
X132029727Y-95879459D01*
X132154620Y-95707558D01*
X132159232Y-95698507D01*
X132207205Y-95647709D01*
X132275025Y-95630912D01*
X132341161Y-95653447D01*
X132380204Y-95698504D01*
X132384949Y-95707817D01*
X132509890Y-95879786D01*
X132660213Y-96030109D01*
X132832179Y-96155048D01*
X132832181Y-96155049D01*
X132832184Y-96155051D01*
X133021588Y-96251557D01*
X133223757Y-96317246D01*
X133433713Y-96350500D01*
X133433714Y-96350500D01*
X133646286Y-96350500D01*
X133646287Y-96350500D01*
X133856243Y-96317246D01*
X134058412Y-96251557D01*
X134247816Y-96155051D01*
X134334865Y-96091807D01*
X134419786Y-96030109D01*
X134419788Y-96030106D01*
X134419792Y-96030104D01*
X134570104Y-95879792D01*
X134570106Y-95879788D01*
X134570109Y-95879786D01*
X134695048Y-95707820D01*
X134695047Y-95707820D01*
X134695051Y-95707816D01*
X134791557Y-95518412D01*
X134857246Y-95316243D01*
X134890500Y-95106287D01*
X134890500Y-94893713D01*
X134857246Y-94683757D01*
X134843506Y-94641473D01*
X134841512Y-94571635D01*
X134873755Y-94515478D01*
X137368713Y-92020521D01*
X137368716Y-92020520D01*
X137480520Y-91908716D01*
X137530639Y-91821904D01*
X137559577Y-91771785D01*
X137600501Y-91619057D01*
X137600501Y-91460943D01*
X137600501Y-91453348D01*
X137600500Y-91453330D01*
X137600500Y-90079765D01*
X137620185Y-90012726D01*
X137621398Y-90010874D01*
X137709390Y-89879185D01*
X137709390Y-89879184D01*
X137709394Y-89879179D01*
X137769737Y-89733497D01*
X137800500Y-89578842D01*
X137800500Y-89421158D01*
X137800500Y-89421155D01*
X137800499Y-89421153D01*
X137786505Y-89350802D01*
X137769737Y-89266503D01*
X137769735Y-89266498D01*
X137709397Y-89120827D01*
X137709390Y-89120814D01*
X137621789Y-88989711D01*
X137621786Y-88989707D01*
X137510292Y-88878213D01*
X137510288Y-88878210D01*
X137379185Y-88790609D01*
X137379172Y-88790602D01*
X137233501Y-88730264D01*
X137233489Y-88730261D01*
X137078845Y-88699500D01*
X137078842Y-88699500D01*
X136949096Y-88699500D01*
X136882057Y-88679815D01*
X136836302Y-88627011D01*
X136826358Y-88557853D01*
X136855383Y-88494297D01*
X136861415Y-88487819D01*
X137342448Y-88006786D01*
X141014662Y-84334572D01*
X141075983Y-84301089D01*
X141078150Y-84300638D01*
X141136085Y-84289113D01*
X141233497Y-84269737D01*
X141379179Y-84209394D01*
X141510289Y-84121789D01*
X141621789Y-84010289D01*
X141709394Y-83879179D01*
X141769737Y-83733497D01*
X141800500Y-83578842D01*
X141800500Y-83421158D01*
X141800500Y-83421155D01*
X141800499Y-83421153D01*
X141769738Y-83266510D01*
X141769737Y-83266503D01*
X141769735Y-83266498D01*
X141709397Y-83120827D01*
X141709390Y-83120814D01*
X141621789Y-82989711D01*
X141621786Y-82989707D01*
X141558338Y-82926259D01*
X141524853Y-82864936D01*
X141529837Y-82795244D01*
X141558338Y-82750897D01*
X143980520Y-80328716D01*
X144059577Y-80191784D01*
X144100501Y-80039057D01*
X144100501Y-79880942D01*
X144100501Y-79873347D01*
X144100500Y-79873329D01*
X144100500Y-71579765D01*
X144120185Y-71512726D01*
X144121398Y-71510874D01*
X144168691Y-71440096D01*
X144209394Y-71379179D01*
X144269737Y-71233497D01*
X144300500Y-71078842D01*
X144300500Y-70921158D01*
X144300500Y-70921155D01*
X144300499Y-70921153D01*
X144281439Y-70825334D01*
X144269737Y-70766503D01*
X144229457Y-70669257D01*
X144209397Y-70620827D01*
X144209390Y-70620814D01*
X144121789Y-70489711D01*
X144121786Y-70489707D01*
X144010292Y-70378213D01*
X144010288Y-70378210D01*
X143879185Y-70290609D01*
X143879172Y-70290602D01*
X143733501Y-70230264D01*
X143733489Y-70230261D01*
X143578845Y-70199500D01*
X143578842Y-70199500D01*
X143421158Y-70199500D01*
X143421155Y-70199500D01*
X143266510Y-70230261D01*
X143266498Y-70230264D01*
X143120827Y-70290602D01*
X143120814Y-70290609D01*
X142989711Y-70378210D01*
X142989707Y-70378213D01*
X142878213Y-70489707D01*
X142878210Y-70489711D01*
X142790609Y-70620814D01*
X142790602Y-70620827D01*
X142730264Y-70766498D01*
X142730261Y-70766510D01*
X142699500Y-70921153D01*
X142699500Y-71078846D01*
X142730261Y-71233489D01*
X142730264Y-71233501D01*
X142790602Y-71379172D01*
X142790609Y-71379185D01*
X142878602Y-71510874D01*
X142899480Y-71577551D01*
X142899500Y-71579765D01*
X142899500Y-75875500D01*
X142879815Y-75942539D01*
X142827011Y-75988294D01*
X142775500Y-75999500D01*
X140809584Y-75999500D01*
X140809578Y-75999501D01*
X140749971Y-76005908D01*
X140615126Y-76056202D01*
X140615119Y-76056206D01*
X140499910Y-76142452D01*
X140499907Y-76142455D01*
X140413661Y-76257664D01*
X140413657Y-76257671D01*
X140363363Y-76392517D01*
X140361581Y-76400062D01*
X140359308Y-76399525D01*
X140337026Y-76453312D01*
X140279632Y-76493157D01*
X140240479Y-76499500D01*
X137379883Y-76499500D01*
X137312844Y-76479815D01*
X137292202Y-76463181D01*
X134692439Y-73863418D01*
X135550000Y-73863418D01*
X135565451Y-74000553D01*
X135565452Y-74000559D01*
X135626296Y-74174443D01*
X135724308Y-74330428D01*
X135854571Y-74460691D01*
X136010556Y-74558703D01*
X136184440Y-74619547D01*
X136184446Y-74619548D01*
X136321581Y-74634999D01*
X136321585Y-74635000D01*
X137275000Y-74635000D01*
X137775000Y-74635000D01*
X138728415Y-74635000D01*
X138728418Y-74634999D01*
X138865553Y-74619548D01*
X138865559Y-74619547D01*
X139039443Y-74558703D01*
X139195428Y-74460691D01*
X139325691Y-74330428D01*
X139423703Y-74174443D01*
X139484547Y-74000559D01*
X139484548Y-74000553D01*
X139499999Y-73863418D01*
X139500000Y-73863414D01*
X139500000Y-73750000D01*
X137775000Y-73750000D01*
X137775000Y-74635000D01*
X137275000Y-74635000D01*
X137275000Y-73750000D01*
X135550000Y-73750000D01*
X135550000Y-73863418D01*
X134692439Y-73863418D01*
X134615340Y-73786319D01*
X127698309Y-66869289D01*
X127698306Y-66869285D01*
X127698306Y-66869286D01*
X127691239Y-66862219D01*
X127691239Y-66862218D01*
X127551882Y-66722861D01*
X127551881Y-66722860D01*
X127551880Y-66722859D01*
X127388020Y-66613371D01*
X127388007Y-66613364D01*
X127226996Y-66546672D01*
X127226992Y-66546671D01*
X127217794Y-66542861D01*
X127205936Y-66537949D01*
X127109288Y-66518724D01*
X127107101Y-66518289D01*
X127107080Y-66518284D01*
X127012644Y-66499500D01*
X127012641Y-66499500D01*
X125522561Y-66499500D01*
X125455522Y-66479815D01*
X125409767Y-66427011D01*
X125398561Y-66375500D01*
X125398561Y-63956701D01*
X125418246Y-63889662D01*
X125471050Y-63843907D01*
X125540208Y-63833963D01*
X125603764Y-63862988D01*
X125610242Y-63869020D01*
X132191882Y-70450660D01*
X132225367Y-70511983D01*
X132225818Y-70514149D01*
X132256718Y-70669491D01*
X132256721Y-70669501D01*
X132317059Y-70815172D01*
X132317066Y-70815185D01*
X132404667Y-70946288D01*
X132404670Y-70946292D01*
X132516164Y-71057786D01*
X132516168Y-71057789D01*
X132647271Y-71145390D01*
X132647284Y-71145397D01*
X132777902Y-71199500D01*
X132792960Y-71205737D01*
X132916250Y-71230261D01*
X132947610Y-71236499D01*
X132947613Y-71236500D01*
X132947615Y-71236500D01*
X133105301Y-71236500D01*
X133105302Y-71236499D01*
X133259954Y-71205737D01*
X133405636Y-71145394D01*
X133418860Y-71136558D01*
X133537332Y-71057398D01*
X133604010Y-71036520D01*
X133606223Y-71036500D01*
X135425500Y-71036500D01*
X135492539Y-71056185D01*
X135538294Y-71108989D01*
X135549500Y-71160500D01*
X135549500Y-71863442D01*
X135564961Y-72000671D01*
X135625845Y-72174665D01*
X135723915Y-72330742D01*
X135805845Y-72412672D01*
X135839330Y-72473995D01*
X135834346Y-72543687D01*
X135805846Y-72588034D01*
X135724307Y-72669573D01*
X135626296Y-72825556D01*
X135565452Y-72999440D01*
X135565451Y-72999446D01*
X135550000Y-73136581D01*
X135550000Y-73250000D01*
X139500000Y-73250000D01*
X139500000Y-73136585D01*
X139499999Y-73136581D01*
X139484548Y-72999446D01*
X139484547Y-72999440D01*
X139423703Y-72825556D01*
X139325691Y-72669571D01*
X139244154Y-72588034D01*
X139210669Y-72526711D01*
X139215653Y-72457019D01*
X139244150Y-72412676D01*
X139326085Y-72330742D01*
X139424156Y-72174663D01*
X139485037Y-72000674D01*
X139485037Y-72000673D01*
X139485038Y-72000671D01*
X139493997Y-71921153D01*
X139500500Y-71863438D01*
X139500500Y-71440096D01*
X139520185Y-71373057D01*
X139536814Y-71352420D01*
X142015478Y-68873755D01*
X142076799Y-68840272D01*
X142141473Y-68843506D01*
X142183757Y-68857246D01*
X142393713Y-68890500D01*
X142393714Y-68890500D01*
X142606286Y-68890500D01*
X142606287Y-68890500D01*
X142816243Y-68857246D01*
X143018412Y-68791557D01*
X143207816Y-68695051D01*
X143243319Y-68669257D01*
X143379786Y-68570109D01*
X143379788Y-68570106D01*
X143379792Y-68570104D01*
X143530104Y-68419792D01*
X143530106Y-68419788D01*
X143530109Y-68419786D01*
X143655048Y-68247820D01*
X143655047Y-68247820D01*
X143655051Y-68247816D01*
X143751557Y-68058412D01*
X143817246Y-67856243D01*
X143850500Y-67646287D01*
X143850500Y-67433713D01*
X143817246Y-67223757D01*
X143751557Y-67021588D01*
X143655051Y-66832184D01*
X143655049Y-66832181D01*
X143655048Y-66832179D01*
X143530109Y-66660213D01*
X143379786Y-66509890D01*
X143207820Y-66384951D01*
X143207115Y-66384591D01*
X143199054Y-66380485D01*
X143148259Y-66332512D01*
X143131463Y-66264692D01*
X143153999Y-66198556D01*
X143199054Y-66159515D01*
X143207816Y-66155051D01*
X143254068Y-66121447D01*
X143379786Y-66030109D01*
X143379788Y-66030106D01*
X143379792Y-66030104D01*
X143530104Y-65879792D01*
X143530106Y-65879788D01*
X143530109Y-65879786D01*
X143655048Y-65707820D01*
X143655049Y-65707819D01*
X143655051Y-65707816D01*
X143751557Y-65518412D01*
X143817246Y-65316243D01*
X143850500Y-65106287D01*
X143850500Y-64893713D01*
X143817246Y-64683757D01*
X143751557Y-64481588D01*
X143655051Y-64292184D01*
X143655049Y-64292181D01*
X143655048Y-64292179D01*
X143530109Y-64120213D01*
X143379786Y-63969890D01*
X143207817Y-63844949D01*
X143198504Y-63840204D01*
X143147707Y-63792230D01*
X143130912Y-63724409D01*
X143153449Y-63658274D01*
X143198507Y-63619232D01*
X143207558Y-63614620D01*
X143379459Y-63489727D01*
X143379464Y-63489723D01*
X143529723Y-63339464D01*
X143529727Y-63339459D01*
X143654620Y-63167557D01*
X143751095Y-62978217D01*
X143816757Y-62776129D01*
X143816757Y-62776126D01*
X143827231Y-62710000D01*
X142933012Y-62710000D01*
X142965925Y-62652993D01*
X143000000Y-62525826D01*
X143000000Y-62394174D01*
X142965925Y-62267007D01*
X142933012Y-62210000D01*
X143827231Y-62210000D01*
X143816757Y-62143873D01*
X143816757Y-62143870D01*
X143751095Y-61941782D01*
X143654620Y-61752442D01*
X143529727Y-61580540D01*
X143529723Y-61580535D01*
X143416053Y-61466865D01*
X143382568Y-61405542D01*
X143387552Y-61335850D01*
X143429424Y-61279917D01*
X143460400Y-61263002D01*
X143579424Y-61218610D01*
X143592326Y-61213798D01*
X143592326Y-61213797D01*
X143592331Y-61213796D01*
X143707546Y-61127546D01*
X143793796Y-61012331D01*
X143844091Y-60877483D01*
X143850500Y-60817873D01*
X143850499Y-59022128D01*
X143844091Y-58962517D01*
X143793796Y-58827669D01*
X143793795Y-58827668D01*
X143793793Y-58827664D01*
X143707547Y-58712455D01*
X143707544Y-58712452D01*
X143592335Y-58626206D01*
X143592328Y-58626202D01*
X143457482Y-58575908D01*
X143457483Y-58575908D01*
X143397883Y-58569501D01*
X143397881Y-58569500D01*
X143397873Y-58569500D01*
X143397865Y-58569500D01*
X142050098Y-58569500D01*
X141983059Y-58549815D01*
X141962417Y-58533181D01*
X140240106Y-56810870D01*
X140206621Y-56749547D01*
X140211605Y-56679855D01*
X140253477Y-56623922D01*
X140262665Y-56617667D01*
X140343656Y-56567712D01*
X140467712Y-56443656D01*
X140559814Y-56294334D01*
X140614999Y-56127797D01*
X140625500Y-56025009D01*
X140625499Y-54974992D01*
X140614999Y-54872203D01*
X140559814Y-54705666D01*
X140467712Y-54556344D01*
X140343656Y-54432288D01*
X140194334Y-54340186D01*
X140027797Y-54285001D01*
X140027795Y-54285000D01*
X139925010Y-54274500D01*
X139149998Y-54274500D01*
X139149980Y-54274501D01*
X139047203Y-54285000D01*
X139047200Y-54285001D01*
X138880668Y-54340185D01*
X138880663Y-54340187D01*
X138731342Y-54432289D01*
X138607285Y-54556346D01*
X138605537Y-54559182D01*
X138603829Y-54560717D01*
X138602807Y-54562011D01*
X138602585Y-54561836D01*
X138553589Y-54605905D01*
X138484626Y-54617126D01*
X138420544Y-54589282D01*
X138394463Y-54559182D01*
X138392714Y-54556346D01*
X138268657Y-54432289D01*
X138268656Y-54432288D01*
X138119334Y-54340186D01*
X137952797Y-54285001D01*
X137952795Y-54285000D01*
X137850010Y-54274500D01*
X137074998Y-54274500D01*
X137074980Y-54274501D01*
X136972203Y-54285000D01*
X136972200Y-54285001D01*
X136805668Y-54340185D01*
X136805663Y-54340187D01*
X136656342Y-54432289D01*
X136532289Y-54556342D01*
X136440187Y-54705663D01*
X136440186Y-54705666D01*
X136385001Y-54872203D01*
X136385001Y-54872204D01*
X136385000Y-54872204D01*
X136374500Y-54974983D01*
X136374500Y-56025001D01*
X136374501Y-56025019D01*
X136385000Y-56127796D01*
X136385001Y-56127799D01*
X136441949Y-56299654D01*
X136444351Y-56369482D01*
X136411924Y-56426339D01*
X134523469Y-58314794D01*
X134501801Y-58326625D01*
X134482467Y-58341992D01*
X134471668Y-58343079D01*
X134462146Y-58348279D01*
X134437515Y-58346517D01*
X134412948Y-58348991D01*
X134403278Y-58344069D01*
X134392454Y-58343295D01*
X134372686Y-58328496D01*
X134350682Y-58317296D01*
X134343173Y-58306402D01*
X134336521Y-58301423D01*
X134328722Y-58289665D01*
X134324457Y-58282365D01*
X134296894Y-58215821D01*
X134209289Y-58084711D01*
X134208545Y-58083967D01*
X134204934Y-58077786D01*
X134197387Y-58047363D01*
X134188020Y-58017447D01*
X134188000Y-58015234D01*
X134188000Y-56732927D01*
X134207685Y-56665888D01*
X134246901Y-56627390D01*
X134343656Y-56567712D01*
X134467712Y-56443656D01*
X134559814Y-56294334D01*
X134614999Y-56127797D01*
X134625500Y-56025009D01*
X134625499Y-54974992D01*
X134614999Y-54872203D01*
X134559814Y-54705666D01*
X134467712Y-54556344D01*
X134343656Y-54432288D01*
X134194334Y-54340186D01*
X134027797Y-54285001D01*
X134027795Y-54285000D01*
X133925010Y-54274500D01*
X133149998Y-54274500D01*
X133149980Y-54274501D01*
X133047203Y-54285000D01*
X133047200Y-54285001D01*
X132880668Y-54340185D01*
X132880663Y-54340187D01*
X132731342Y-54432289D01*
X132607285Y-54556346D01*
X132605537Y-54559182D01*
X132603829Y-54560717D01*
X132602807Y-54562011D01*
X132602585Y-54561836D01*
X132553589Y-54605905D01*
X132484626Y-54617126D01*
X132420544Y-54589282D01*
X132394463Y-54559182D01*
X132392714Y-54556346D01*
X132268657Y-54432289D01*
X132268656Y-54432288D01*
X132119334Y-54340186D01*
X131952797Y-54285001D01*
X131952795Y-54285000D01*
X131850016Y-54274500D01*
X131850009Y-54274500D01*
X131137597Y-54274500D01*
X131108156Y-54265855D01*
X131078170Y-54259332D01*
X131073154Y-54255577D01*
X131070558Y-54254815D01*
X131049916Y-54238181D01*
X130924090Y-54112355D01*
X130924088Y-54112352D01*
X130805217Y-53993481D01*
X130805216Y-53993480D01*
X130718404Y-53943360D01*
X130718404Y-53943359D01*
X130718400Y-53943358D01*
X130668285Y-53914423D01*
X130515557Y-53873499D01*
X130357443Y-53873499D01*
X130349847Y-53873499D01*
X130349831Y-53873500D01*
X126605057Y-53873500D01*
X126446943Y-53873500D01*
X126294215Y-53914423D01*
X126294214Y-53914423D01*
X126294212Y-53914424D01*
X126294209Y-53914425D01*
X126244096Y-53943359D01*
X126244095Y-53943360D01*
X126200689Y-53968420D01*
X126157285Y-53993479D01*
X126157282Y-53993481D01*
X126045480Y-54105283D01*
X126045480Y-54105284D01*
X126045478Y-54105286D01*
X125978276Y-54172488D01*
X125912582Y-54238182D01*
X125851259Y-54271666D01*
X125824901Y-54274500D01*
X125112498Y-54274500D01*
X125112480Y-54274501D01*
X125009703Y-54285000D01*
X125009700Y-54285001D01*
X124843168Y-54340185D01*
X124843163Y-54340187D01*
X124693842Y-54432289D01*
X124569789Y-54556342D01*
X124477687Y-54705663D01*
X124477686Y-54705666D01*
X124422501Y-54872203D01*
X124422501Y-54872204D01*
X124422500Y-54872204D01*
X124412000Y-54974983D01*
X124412000Y-56025001D01*
X124412001Y-56025019D01*
X124422500Y-56127796D01*
X124422501Y-56127799D01*
X124462500Y-56248505D01*
X124477686Y-56294334D01*
X124569788Y-56443656D01*
X124693844Y-56567712D01*
X124840597Y-56658229D01*
X124887321Y-56710175D01*
X124899500Y-56763767D01*
X124899500Y-57595830D01*
X124899499Y-57595848D01*
X124899499Y-57761554D01*
X124899498Y-57761554D01*
X124940423Y-57914285D01*
X124969358Y-57964400D01*
X124969359Y-57964404D01*
X124969360Y-57964404D01*
X125004299Y-58024922D01*
X125019479Y-58051214D01*
X125019481Y-58051217D01*
X125138349Y-58170085D01*
X125138355Y-58170090D01*
X125475583Y-58507318D01*
X125509068Y-58568641D01*
X125504084Y-58638333D01*
X125475583Y-58682680D01*
X124662181Y-59496082D01*
X124600858Y-59529567D01*
X124531166Y-59524583D01*
X124475233Y-59482711D01*
X124450816Y-59417247D01*
X124450500Y-59408401D01*
X124450500Y-59136558D01*
X124450499Y-59136557D01*
X124435038Y-58999328D01*
X124406285Y-58917157D01*
X124374156Y-58825337D01*
X124276085Y-58669258D01*
X124145742Y-58538915D01*
X124110626Y-58516850D01*
X123989665Y-58440845D01*
X123989664Y-58440844D01*
X123989663Y-58440844D01*
X123947896Y-58426229D01*
X123815671Y-58379961D01*
X123678442Y-58364500D01*
X123678438Y-58364500D01*
X122805782Y-58364500D01*
X122738743Y-58344815D01*
X122718101Y-58328181D01*
X122036819Y-57646899D01*
X122022115Y-57619971D01*
X122005523Y-57594153D01*
X122004631Y-57587952D01*
X122003334Y-57585576D01*
X122000500Y-57559218D01*
X122000500Y-57424730D01*
X122020185Y-57357691D01*
X122036819Y-57337049D01*
X122047654Y-57326214D01*
X122067712Y-57306156D01*
X122159814Y-57156834D01*
X122214999Y-56990297D01*
X122225500Y-56887509D01*
X122225499Y-56112492D01*
X122214999Y-56009703D01*
X122159814Y-55843166D01*
X122067712Y-55693844D01*
X121943656Y-55569788D01*
X121940819Y-55568038D01*
X121939283Y-55566330D01*
X121937989Y-55565307D01*
X121938163Y-55565085D01*
X121894096Y-55516094D01*
X121882872Y-55447132D01*
X121910713Y-55383049D01*
X121940817Y-55356962D01*
X121943656Y-55355212D01*
X122067712Y-55231156D01*
X122159814Y-55081834D01*
X122214999Y-54915297D01*
X122225500Y-54812509D01*
X122225499Y-54037492D01*
X122224066Y-54023468D01*
X122214999Y-53934703D01*
X122214998Y-53934700D01*
X122212277Y-53926490D01*
X122159814Y-53768166D01*
X122111044Y-53689096D01*
X122092604Y-53621704D01*
X122113527Y-53555040D01*
X122167169Y-53510271D01*
X122216583Y-53500000D01*
X144875500Y-53500000D01*
X144942539Y-53519685D01*
G37*
%TD.AperFunction*%
%TA.AperFunction,Conductor*%
G36*
X138579451Y-56410713D02*
G01*
X138605537Y-56440817D01*
X138607288Y-56443656D01*
X138731344Y-56567712D01*
X138878097Y-56658229D01*
X138884919Y-56665814D01*
X138894203Y-56670054D01*
X138907890Y-56691352D01*
X138924821Y-56710175D01*
X138927465Y-56721811D01*
X138931977Y-56728832D01*
X138937000Y-56763767D01*
X138937000Y-56870830D01*
X138936999Y-56870848D01*
X138936999Y-57036554D01*
X138936998Y-57036554D01*
X138977923Y-57189285D01*
X139006858Y-57239400D01*
X139006859Y-57239404D01*
X139006860Y-57239404D01*
X139038574Y-57294336D01*
X139056979Y-57326214D01*
X139056981Y-57326217D01*
X139175849Y-57445085D01*
X139175855Y-57445090D01*
X141113181Y-59382416D01*
X141146666Y-59443739D01*
X141149500Y-59470097D01*
X141149500Y-60817870D01*
X141149501Y-60817876D01*
X141155908Y-60877483D01*
X141206202Y-61012328D01*
X141206206Y-61012335D01*
X141292452Y-61127544D01*
X141292455Y-61127547D01*
X141407664Y-61213793D01*
X141407671Y-61213797D01*
X141469902Y-61237007D01*
X141539598Y-61263002D01*
X141595531Y-61304873D01*
X141619949Y-61370337D01*
X141605098Y-61438610D01*
X141583947Y-61466865D01*
X141470271Y-61580541D01*
X141345379Y-61752442D01*
X141248904Y-61941782D01*
X141183242Y-62143870D01*
X141183242Y-62143873D01*
X141172769Y-62210000D01*
X142066988Y-62210000D01*
X142034075Y-62267007D01*
X142000000Y-62394174D01*
X142000000Y-62525826D01*
X142034075Y-62652993D01*
X142066988Y-62710000D01*
X141172769Y-62710000D01*
X141183242Y-62776126D01*
X141183242Y-62776129D01*
X141248904Y-62978217D01*
X141345379Y-63167557D01*
X141470272Y-63339459D01*
X141470276Y-63339464D01*
X141620535Y-63489723D01*
X141620540Y-63489727D01*
X141792444Y-63614622D01*
X141801495Y-63619234D01*
X141852292Y-63667208D01*
X141869087Y-63735029D01*
X141846550Y-63801164D01*
X141801499Y-63840202D01*
X141792182Y-63844949D01*
X141620213Y-63969890D01*
X141469890Y-64120213D01*
X141344951Y-64292179D01*
X141248444Y-64481585D01*
X141248443Y-64481587D01*
X141248443Y-64481588D01*
X141242461Y-64500000D01*
X141182753Y-64683760D01*
X141169905Y-64764881D01*
X141149500Y-64893713D01*
X141149500Y-65106287D01*
X141182754Y-65316243D01*
X141248443Y-65518412D01*
X141278880Y-65578149D01*
X141344951Y-65707819D01*
X141387668Y-65766615D01*
X141411148Y-65832421D01*
X141395322Y-65900475D01*
X141345216Y-65949170D01*
X141287350Y-65963500D01*
X139624500Y-65963500D01*
X139557461Y-65943815D01*
X139511706Y-65891011D01*
X139500500Y-65839500D01*
X139500500Y-65136558D01*
X139500499Y-65136557D01*
X139497088Y-65106286D01*
X139494925Y-65087090D01*
X139485038Y-64999328D01*
X139470422Y-64957559D01*
X139424156Y-64825337D01*
X139326085Y-64669258D01*
X139244508Y-64587681D01*
X139211023Y-64526358D01*
X139216007Y-64456666D01*
X139244508Y-64412319D01*
X139247561Y-64409266D01*
X139326085Y-64330742D01*
X139424156Y-64174663D01*
X139485037Y-64000674D01*
X139485037Y-64000673D01*
X139485038Y-64000671D01*
X139497545Y-63889662D01*
X139500500Y-63863438D01*
X139500500Y-63136562D01*
X139493900Y-63077989D01*
X139485038Y-62999328D01*
X139459353Y-62925925D01*
X139424156Y-62825337D01*
X139326085Y-62669258D01*
X139244508Y-62587681D01*
X139211023Y-62526358D01*
X139216007Y-62456666D01*
X139244508Y-62412319D01*
X139276864Y-62379963D01*
X139326085Y-62330742D01*
X139424156Y-62174663D01*
X139485037Y-62000674D01*
X139485037Y-62000673D01*
X139485038Y-62000671D01*
X139493487Y-61925673D01*
X139500500Y-61863438D01*
X139500500Y-61136562D01*
X139490081Y-61044091D01*
X139485038Y-60999328D01*
X139450807Y-60901503D01*
X139424156Y-60825337D01*
X139326085Y-60669258D01*
X139244154Y-60587327D01*
X139210669Y-60526004D01*
X139215653Y-60456312D01*
X139244154Y-60411964D01*
X139325693Y-60330425D01*
X139423703Y-60174443D01*
X139484547Y-60000559D01*
X139484548Y-60000553D01*
X139499999Y-59863418D01*
X139500000Y-59863414D01*
X139500000Y-59750000D01*
X137649000Y-59750000D01*
X137581961Y-59730315D01*
X137536206Y-59677511D01*
X137525000Y-59626000D01*
X137525000Y-59374000D01*
X137544685Y-59306961D01*
X137597489Y-59261206D01*
X137649000Y-59250000D01*
X139500000Y-59250000D01*
X139500000Y-59136585D01*
X139499999Y-59136581D01*
X139484548Y-58999446D01*
X139484547Y-58999440D01*
X139423703Y-58825556D01*
X139325691Y-58669571D01*
X139195428Y-58539308D01*
X139039443Y-58441296D01*
X138865559Y-58380452D01*
X138865553Y-58380451D01*
X138728418Y-58365000D01*
X137917947Y-58365000D01*
X137850908Y-58345315D01*
X137805153Y-58292511D01*
X137796330Y-58265191D01*
X137769738Y-58131510D01*
X137769737Y-58131503D01*
X137769735Y-58131498D01*
X137709397Y-57985827D01*
X137709390Y-57985814D01*
X137621789Y-57854711D01*
X137621786Y-57854707D01*
X137510292Y-57743213D01*
X137510288Y-57743210D01*
X137379185Y-57655609D01*
X137379172Y-57655602D01*
X137233501Y-57595264D01*
X137233495Y-57595262D01*
X137217447Y-57592070D01*
X137155537Y-57559682D01*
X137120965Y-57498966D01*
X137124707Y-57429196D01*
X137153957Y-57382776D01*
X137775631Y-56761102D01*
X137836952Y-56727619D01*
X137850702Y-56725428D01*
X137952797Y-56714999D01*
X138119334Y-56659814D01*
X138268656Y-56567712D01*
X138392712Y-56443656D01*
X138394461Y-56440819D01*
X138396169Y-56439283D01*
X138397193Y-56437989D01*
X138397414Y-56438163D01*
X138446406Y-56394096D01*
X138515368Y-56382872D01*
X138579451Y-56410713D01*
G37*
%TD.AperFunction*%
%TA.AperFunction,Conductor*%
G36*
X135455898Y-59736053D02*
G01*
X135469334Y-59737014D01*
X135487060Y-59750284D01*
X135507203Y-59759483D01*
X135514485Y-59770814D01*
X135525267Y-59778886D01*
X135533004Y-59799631D01*
X135544977Y-59818261D01*
X135548128Y-59840179D01*
X135549684Y-59844350D01*
X135550000Y-59853196D01*
X135550000Y-59863418D01*
X135565451Y-60000553D01*
X135565452Y-60000559D01*
X135626296Y-60174443D01*
X135724308Y-60330428D01*
X135805845Y-60411965D01*
X135839330Y-60473288D01*
X135834346Y-60542980D01*
X135805846Y-60587327D01*
X135723914Y-60669259D01*
X135625845Y-60825334D01*
X135564961Y-60999328D01*
X135549500Y-61136557D01*
X135549500Y-61863442D01*
X135564961Y-62000671D01*
X135585687Y-62059901D01*
X135618261Y-62152993D01*
X135625845Y-62174665D01*
X135723915Y-62330742D01*
X135805492Y-62412319D01*
X135838977Y-62473642D01*
X135833993Y-62543334D01*
X135805492Y-62587681D01*
X135723915Y-62669257D01*
X135625845Y-62825334D01*
X135564961Y-62999328D01*
X135549500Y-63136557D01*
X135549500Y-63863442D01*
X135564961Y-64000671D01*
X135625845Y-64174665D01*
X135723915Y-64330742D01*
X135805492Y-64412319D01*
X135809830Y-64420263D01*
X135817079Y-64425690D01*
X135826314Y-64450452D01*
X135838977Y-64473642D01*
X135838331Y-64482672D01*
X135841495Y-64491155D01*
X135835878Y-64516975D01*
X135833993Y-64543334D01*
X135828174Y-64552387D01*
X135826643Y-64559428D01*
X135805494Y-64587678D01*
X135733743Y-64659430D01*
X135733742Y-64659431D01*
X135672418Y-64692915D01*
X135602727Y-64687930D01*
X135558380Y-64659430D01*
X133423319Y-62524369D01*
X133389834Y-62463046D01*
X133387000Y-62436688D01*
X133387000Y-61768197D01*
X133406685Y-61701158D01*
X133423319Y-61680516D01*
X133996755Y-61107080D01*
X134607820Y-60496016D01*
X134607820Y-60496014D01*
X134618024Y-60485811D01*
X134618027Y-60485806D01*
X135338321Y-59765513D01*
X135357755Y-59754902D01*
X135374489Y-59740402D01*
X135387820Y-59738485D01*
X135399642Y-59732030D01*
X135421728Y-59733609D01*
X135443647Y-59730458D01*
X135455898Y-59736053D01*
G37*
%TD.AperFunction*%
%TA.AperFunction,Conductor*%
G36*
X118725000Y-54099999D02*
G01*
X118934658Y-54099999D01*
X119052928Y-54084429D01*
X119052940Y-54084426D01*
X119200108Y-54023468D01*
X119326490Y-53926490D01*
X119423468Y-53800108D01*
X119484426Y-53652940D01*
X119484427Y-53652935D01*
X119490368Y-53607815D01*
X119490678Y-53607113D01*
X119490569Y-53606353D01*
X119504795Y-53575200D01*
X119518634Y-53543919D01*
X119519274Y-53543496D01*
X119519594Y-53542797D01*
X119548395Y-53524287D01*
X119576958Y-53505447D01*
X119577941Y-53505299D01*
X119578372Y-53505023D01*
X119613307Y-53500000D01*
X119783417Y-53500000D01*
X119850456Y-53519685D01*
X119896211Y-53572489D01*
X119906155Y-53641647D01*
X119888956Y-53689096D01*
X119840189Y-53768159D01*
X119840186Y-53768166D01*
X119785001Y-53934703D01*
X119785001Y-53934704D01*
X119785000Y-53934704D01*
X119774500Y-54037483D01*
X119774500Y-54812501D01*
X119774501Y-54812519D01*
X119785000Y-54915296D01*
X119785001Y-54915299D01*
X119837756Y-55074500D01*
X119840186Y-55081834D01*
X119928439Y-55224916D01*
X119932289Y-55231157D01*
X119988951Y-55287819D01*
X120022436Y-55349142D01*
X120017452Y-55418834D01*
X119975580Y-55474767D01*
X119910116Y-55499184D01*
X119901270Y-55499500D01*
X119462230Y-55499500D01*
X119395191Y-55479815D01*
X119374549Y-55463181D01*
X119343657Y-55432289D01*
X119343656Y-55432288D01*
X119218695Y-55355212D01*
X119194336Y-55340187D01*
X119194331Y-55340185D01*
X119192862Y-55339698D01*
X119027797Y-55285001D01*
X119027795Y-55285000D01*
X118925010Y-55274500D01*
X118149998Y-55274500D01*
X118149980Y-55274501D01*
X118047203Y-55285000D01*
X118047200Y-55285001D01*
X117880668Y-55340185D01*
X117880663Y-55340187D01*
X117731342Y-55432289D01*
X117674681Y-55488951D01*
X117613358Y-55522436D01*
X117543666Y-55517452D01*
X117487733Y-55475580D01*
X117463316Y-55410116D01*
X117463000Y-55401270D01*
X117463000Y-55105316D01*
X117482685Y-55038277D01*
X117535489Y-54992522D01*
X117554912Y-54985540D01*
X117556760Y-54985044D01*
X117556762Y-54985044D01*
X117702841Y-54924536D01*
X117828282Y-54828282D01*
X117924536Y-54702841D01*
X117985044Y-54556762D01*
X118000500Y-54439361D01*
X118000500Y-54223999D01*
X118020185Y-54156960D01*
X118072989Y-54111205D01*
X118124500Y-54099999D01*
X118224999Y-54099999D01*
X118225000Y-54099998D01*
X118225000Y-53500000D01*
X118725000Y-53500000D01*
X118725000Y-54099999D01*
G37*
%TD.AperFunction*%
%TD*%
M02*
