%TF.GenerationSoftware,KiCad,Pcbnew,9.0.0*%
%TF.CreationDate,2025-03-23T12:51:39+01:00*%
%TF.ProjectId,ppicoV1,70706963-6f56-4312-9e6b-696361645f70,rev?*%
%TF.SameCoordinates,Original*%
%TF.FileFunction,Copper,L2,Bot*%
%TF.FilePolarity,Positive*%
%FSLAX46Y46*%
G04 Gerber Fmt 4.6, Leading zero omitted, Abs format (unit mm)*
G04 Created by KiCad (PCBNEW 9.0.0) date 2025-03-23 12:51:39*
%MOMM*%
%LPD*%
G01*
G04 APERTURE LIST*
G04 Aperture macros list*
%AMRoundRect*
0 Rectangle with rounded corners*
0 $1 Rounding radius*
0 $2 $3 $4 $5 $6 $7 $8 $9 X,Y pos of 4 corners*
0 Add a 4 corners polygon primitive as box body*
4,1,4,$2,$3,$4,$5,$6,$7,$8,$9,$2,$3,0*
0 Add four circle primitives for the rounded corners*
1,1,$1+$1,$2,$3*
1,1,$1+$1,$4,$5*
1,1,$1+$1,$6,$7*
1,1,$1+$1,$8,$9*
0 Add four rect primitives between the rounded corners*
20,1,$1+$1,$2,$3,$4,$5,0*
20,1,$1+$1,$4,$5,$6,$7,0*
20,1,$1+$1,$6,$7,$8,$9,0*
20,1,$1+$1,$8,$9,$2,$3,0*%
G04 Aperture macros list end*
%TA.AperFunction,EtchedComponent*%
%ADD10C,1.000000*%
%TD*%
%TA.AperFunction,ComponentPad*%
%ADD11R,1.700000X1.700000*%
%TD*%
%TA.AperFunction,ComponentPad*%
%ADD12O,1.700000X1.700000*%
%TD*%
%TA.AperFunction,ComponentPad*%
%ADD13C,1.000000*%
%TD*%
%TA.AperFunction,SMDPad,CuDef*%
%ADD14RoundRect,0.162500X0.650000X0.162500X-0.650000X0.162500X-0.650000X-0.162500X0.650000X-0.162500X0*%
%TD*%
%TA.AperFunction,ComponentPad*%
%ADD15R,2.000000X2.000000*%
%TD*%
%TA.AperFunction,ComponentPad*%
%ADD16C,2.000000*%
%TD*%
%TA.AperFunction,ViaPad*%
%ADD17C,0.600000*%
%TD*%
%TA.AperFunction,Conductor*%
%ADD18C,0.200000*%
%TD*%
%TA.AperFunction,Conductor*%
%ADD19C,1.000000*%
%TD*%
G04 APERTURE END LIST*
D10*
%TO.C,AE1*%
X121000000Y-41500000D02*
X122000000Y-42500000D01*
X122000000Y-42500000D02*
X122000000Y-45500000D01*
X122000000Y-45500000D02*
X123000000Y-46500000D01*
X123000000Y-41500000D02*
X124000000Y-42500000D01*
X124000000Y-42500000D02*
X124000000Y-45500000D01*
X124000000Y-45500000D02*
X125000000Y-46500000D01*
X125000000Y-41500000D02*
X126000000Y-42500000D01*
X126000000Y-42500000D02*
X126000000Y-45500000D01*
X126000000Y-45500000D02*
X127000000Y-46500000D01*
X127000000Y-41500000D02*
X128000000Y-42500000D01*
X128000000Y-42500000D02*
X128000000Y-45500000D01*
X128000000Y-45500000D02*
X129000000Y-46500000D01*
X129000000Y-41500000D02*
X130000000Y-42500000D01*
X130000000Y-42500000D02*
X130000000Y-45500000D01*
X130000000Y-45500000D02*
X131000000Y-46500000D01*
X131000000Y-41500000D02*
X132000000Y-42500000D01*
X132000000Y-42500000D02*
X132000000Y-45500000D01*
X132000000Y-45500000D02*
X133000000Y-46500000D01*
X133000000Y-41500000D02*
X134000000Y-42500000D01*
X134000000Y-42500000D02*
X134000000Y-45500000D01*
X134000000Y-45500000D02*
X135000000Y-46500000D01*
X135000000Y-41500000D02*
X136000000Y-42500000D01*
X136000000Y-42500000D02*
X136000000Y-45500000D01*
X136000000Y-45500000D02*
X137000000Y-46500000D01*
X137000000Y-41500000D02*
X138000000Y-42500000D01*
X138000000Y-42500000D02*
X138000000Y-45500000D01*
X138000000Y-45500000D02*
X139000000Y-46500000D01*
%TD*%
D11*
%TO.P,J3,1,Pin_1*%
%TO.N,+3V3*%
X117500000Y-59700000D03*
D12*
%TO.P,J3,2,Pin_2*%
%TO.N,GND*%
X117500000Y-62240000D03*
%TO.P,J3,3,Pin_3*%
%TO.N,SCL*%
X117500000Y-64780000D03*
%TO.P,J3,4,Pin_4*%
%TO.N,RFM_MISO*%
X117500000Y-67320000D03*
%TD*%
D11*
%TO.P,J2,1,Pin_1*%
%TO.N,+3V3*%
X142500000Y-59920000D03*
D12*
%TO.P,J2,2,Pin_2*%
%TO.N,GND*%
X142500000Y-62460000D03*
%TO.P,J2,3,Pin_3*%
%TO.N,SCL*%
X142500000Y-65000000D03*
%TO.P,J2,4,Pin_4*%
%TO.N,RFM_MISO*%
X142500000Y-67540000D03*
%TD*%
D13*
%TO.P,AE1,*%
%TO.N,*%
X121000000Y-41500000D03*
X123000000Y-41500000D03*
X123000000Y-46500000D03*
X125000000Y-41500000D03*
X125000000Y-46500000D03*
X127000000Y-41500000D03*
X127000000Y-46500000D03*
X129000000Y-41500000D03*
X129000000Y-46500000D03*
X131000000Y-41500000D03*
X131000000Y-46500000D03*
X133000000Y-41500000D03*
X133000000Y-46500000D03*
X135000000Y-41500000D03*
X135000000Y-46500000D03*
X137000000Y-41500000D03*
X137000000Y-46500000D03*
X139000000Y-41500000D03*
X139000000Y-46500000D03*
%TD*%
D11*
%TO.P,J1,1,Pin_1*%
%TO.N,+3V3*%
X133540000Y-92460000D03*
D12*
%TO.P,J1,2,Pin_2*%
%TO.N,RFM_MISO*%
X133540000Y-95000000D03*
%TO.P,J1,3,Pin_3*%
%TO.N,SCL*%
X131000000Y-92460000D03*
%TO.P,J1,4,Pin_4*%
%TO.N,GND*%
X131000000Y-95000000D03*
%TO.P,J1,5,Pin_5*%
%TO.N,RST*%
X128460000Y-92460000D03*
%TO.P,J1,6,Pin_6*%
%TO.N,RFM_NSS*%
X128460000Y-95000000D03*
%TO.P,J1,7,Pin_7*%
%TO.N,RFM_MOSI*%
X125920000Y-92460000D03*
%TO.P,J1,8,Pin_8*%
%TO.N,RFM_SCK*%
X125920000Y-95000000D03*
%TD*%
D14*
%TO.P,U1,1,~{RESET}/PB5*%
%TO.N,RST*%
X133587500Y-58595000D03*
%TO.P,U1,2,XTAL1/PB3*%
%TO.N,RFM_NSS*%
X133587500Y-59865000D03*
%TO.P,U1,3,XTAL2/PB4*%
%TO.N,SCL*%
X133587500Y-61135000D03*
%TO.P,U1,4,GND*%
%TO.N,GND*%
X133587500Y-62405000D03*
%TO.P,U1,5,AREF/PB0*%
%TO.N,RFM_MISO*%
X126412500Y-62405000D03*
%TO.P,U1,6,PB1*%
%TO.N,RFM_MOSI*%
X126412500Y-61135000D03*
%TO.P,U1,7,PB2*%
%TO.N,RFM_SCK*%
X126412500Y-59865000D03*
%TO.P,U1,8,VCC*%
%TO.N,+3V3*%
X126412500Y-58595000D03*
%TD*%
D15*
%TO.P,BT1,1,+*%
%TO.N,+3V3*%
X141857455Y-77500000D03*
D16*
%TO.P,BT1,2,-*%
%TO.N,GND*%
X121057455Y-77500000D03*
%TD*%
D17*
%TO.N,RFM_MISO*%
X137000000Y-89500000D03*
%TO.N,RFM_NSS*%
X133000000Y-75500000D03*
X137525000Y-65500000D03*
%TO.N,RFM_SCK*%
X125500000Y-77500000D03*
X133026457Y-70436000D03*
%TO.N,+3V3*%
X141000000Y-83500000D03*
%TO.N,SCL*%
X143500000Y-71000000D03*
%TO.N,RST*%
X130500000Y-63500000D03*
X127500000Y-72000000D03*
X130500000Y-61805000D03*
X132500000Y-65500000D03*
%TO.N,RFM_NSS*%
X137000000Y-58365000D03*
%TO.N,RFM_SCK*%
X126412500Y-59865000D03*
%TO.N,RFM_MOSI*%
X126412500Y-61135000D03*
X137525000Y-69500000D03*
%TO.N,RFM_MISO*%
X126412500Y-62405000D03*
%TO.N,RST*%
X133587500Y-58595000D03*
%TO.N,SCL*%
X129154990Y-61135000D03*
%TO.N,+3V3*%
X126412500Y-58595000D03*
%TO.N,GND*%
X133587500Y-62405000D03*
%TD*%
D18*
%TO.N,RFM_MISO*%
X137000000Y-89500000D02*
X137000000Y-73040000D01*
X137000000Y-73040000D02*
X142500000Y-67540000D01*
%TO.N,RFM_NSS*%
X133000000Y-75500000D02*
X138126000Y-70374000D01*
X138126000Y-70374000D02*
X138126000Y-66101000D01*
X138126000Y-66101000D02*
X137525000Y-65500000D01*
%TO.N,RFM_SCK*%
X125500000Y-77500000D02*
X127724600Y-77500000D01*
X127724600Y-77500000D02*
X133026457Y-72198143D01*
X133026457Y-72198143D02*
X133026457Y-70436000D01*
%TO.N,+3V3*%
X141000000Y-83500000D02*
X141857455Y-82642545D01*
X141857455Y-82642545D02*
X141857455Y-77500000D01*
%TO.N,SCL*%
X143651000Y-70849000D02*
X143651000Y-66151000D01*
X143500000Y-71000000D02*
X143651000Y-70849000D01*
X143651000Y-66151000D02*
X142500000Y-65000000D01*
%TO.N,RST*%
X132500000Y-67000000D02*
X132500000Y-65500000D01*
X127500000Y-72000000D02*
X132500000Y-67000000D01*
X130500000Y-63500000D02*
X130500000Y-61805000D01*
%TO.N,RFM_NSS*%
X137000000Y-58365000D02*
X135500000Y-59865000D01*
X135500000Y-59865000D02*
X133587500Y-59865000D01*
%TO.N,RFM_MOSI*%
X125920000Y-92460000D02*
X125920000Y-81105000D01*
X125920000Y-81105000D02*
X137525000Y-69500000D01*
D19*
%TO.N,GND*%
X133587500Y-62405000D02*
X121057455Y-74935045D01*
X121057455Y-74935045D02*
X121057455Y-77500000D01*
D18*
%TO.N,+3V3*%
X126412500Y-58595000D02*
X118605000Y-58595000D01*
X127507500Y-57500000D02*
X140080000Y-57500000D01*
X126412500Y-58595000D02*
X127507500Y-57500000D01*
X118605000Y-58595000D02*
X117500000Y-59700000D01*
X140080000Y-57500000D02*
X142500000Y-59920000D01*
%TO.N,RFM_MISO*%
X116349000Y-64303240D02*
X116349000Y-66169000D01*
X125188500Y-63629000D02*
X117023240Y-63629000D01*
X116349000Y-66169000D02*
X117500000Y-67320000D01*
X126412500Y-62405000D02*
X125188500Y-63629000D01*
X117023240Y-63629000D02*
X116349000Y-64303240D01*
%TO.N,SCL*%
X125509990Y-64780000D02*
X117500000Y-64780000D01*
X129154990Y-61135000D02*
X125509990Y-64780000D01*
X133587500Y-61135000D02*
X129154990Y-61135000D01*
X133587500Y-61135000D02*
X138635000Y-61135000D01*
X138635000Y-61135000D02*
X142500000Y-65000000D01*
%TD*%
%TA.AperFunction,Conductor*%
%TO.N,GND*%
G36*
X125141443Y-59215185D02*
G01*
X125187198Y-59267989D01*
X125197142Y-59337147D01*
X125180520Y-59383651D01*
X125153470Y-59428396D01*
X125105569Y-59582116D01*
X125099500Y-59648911D01*
X125099500Y-60081098D01*
X125105568Y-60147882D01*
X125105571Y-60147893D01*
X125153467Y-60301599D01*
X125234625Y-60435850D01*
X125252461Y-60503405D01*
X125234625Y-60564150D01*
X125153469Y-60698397D01*
X125105569Y-60852116D01*
X125099500Y-60918911D01*
X125099500Y-61351098D01*
X125105568Y-61417882D01*
X125105571Y-61417893D01*
X125153467Y-61571599D01*
X125234625Y-61705850D01*
X125252461Y-61773405D01*
X125234625Y-61834150D01*
X125153469Y-61968397D01*
X125105569Y-62122116D01*
X125102581Y-62155000D01*
X125099931Y-62184172D01*
X125099500Y-62188911D01*
X125099500Y-62621098D01*
X125105569Y-62687884D01*
X125124799Y-62749599D01*
X125125037Y-62764076D01*
X125130097Y-62777641D01*
X125125600Y-62798310D01*
X125125949Y-62819460D01*
X125118049Y-62833027D01*
X125115246Y-62845914D01*
X125094095Y-62874168D01*
X124976085Y-62992180D01*
X124914762Y-63025666D01*
X124888403Y-63028500D01*
X118815729Y-63028500D01*
X118748690Y-63008815D01*
X118702935Y-62956011D01*
X118692991Y-62886853D01*
X118705244Y-62848205D01*
X118751095Y-62758217D01*
X118816757Y-62556129D01*
X118816757Y-62556126D01*
X118827231Y-62490000D01*
X117933012Y-62490000D01*
X117965925Y-62432993D01*
X118000000Y-62305826D01*
X118000000Y-62174174D01*
X117965925Y-62047007D01*
X117933012Y-61990000D01*
X118827231Y-61990000D01*
X118816757Y-61923873D01*
X118816757Y-61923870D01*
X118751095Y-61721782D01*
X118654620Y-61532442D01*
X118529727Y-61360540D01*
X118529723Y-61360535D01*
X118416053Y-61246865D01*
X118382568Y-61185542D01*
X118387552Y-61115850D01*
X118429424Y-61059917D01*
X118460400Y-61043002D01*
X118592331Y-60993796D01*
X118707546Y-60907546D01*
X118793796Y-60792331D01*
X118844091Y-60657483D01*
X118850500Y-60597873D01*
X118850499Y-59319499D01*
X118870184Y-59252461D01*
X118922987Y-59206706D01*
X118974499Y-59195500D01*
X125074404Y-59195500D01*
X125141443Y-59215185D01*
G37*
%TD.AperFunction*%
%TA.AperFunction,Conductor*%
G36*
X139846942Y-58120185D02*
G01*
X139867584Y-58136819D01*
X141113181Y-59382416D01*
X141146666Y-59443739D01*
X141149500Y-59470097D01*
X141149500Y-60817870D01*
X141149501Y-60817876D01*
X141155908Y-60877483D01*
X141206202Y-61012328D01*
X141206206Y-61012335D01*
X141292452Y-61127544D01*
X141292455Y-61127547D01*
X141407664Y-61213793D01*
X141407671Y-61213797D01*
X141469902Y-61237007D01*
X141539598Y-61263002D01*
X141595531Y-61304873D01*
X141619949Y-61370337D01*
X141605098Y-61438610D01*
X141583947Y-61466865D01*
X141470271Y-61580541D01*
X141345379Y-61752442D01*
X141248904Y-61941782D01*
X141183242Y-62143870D01*
X141183242Y-62143873D01*
X141172769Y-62210000D01*
X142066988Y-62210000D01*
X142034075Y-62267007D01*
X142000000Y-62394174D01*
X142000000Y-62525826D01*
X142034075Y-62652993D01*
X142066988Y-62710000D01*
X141115604Y-62710000D01*
X141115604Y-62707663D01*
X141079187Y-62707916D01*
X141025616Y-62676381D01*
X139122590Y-60773355D01*
X139122588Y-60773352D01*
X139003717Y-60654481D01*
X139003709Y-60654475D01*
X138886200Y-60586632D01*
X138886200Y-60586631D01*
X138886195Y-60586630D01*
X138879422Y-60582719D01*
X138866786Y-60575423D01*
X138811510Y-60560612D01*
X138714057Y-60534499D01*
X138555943Y-60534499D01*
X138548347Y-60534499D01*
X138548331Y-60534500D01*
X135979098Y-60534500D01*
X135957852Y-60528261D01*
X135935766Y-60526682D01*
X135924982Y-60518609D01*
X135912059Y-60514815D01*
X135897560Y-60498082D01*
X135879832Y-60484812D01*
X135875123Y-60472189D01*
X135866304Y-60462011D01*
X135863152Y-60440095D01*
X135855414Y-60419348D01*
X135858277Y-60406185D01*
X135856360Y-60392853D01*
X135865558Y-60372710D01*
X135870265Y-60351075D01*
X135883534Y-60333348D01*
X135885385Y-60329297D01*
X135891401Y-60322834D01*
X135980520Y-60233716D01*
X135980521Y-60233713D01*
X137014662Y-59199572D01*
X137075983Y-59166089D01*
X137078150Y-59165638D01*
X137136085Y-59154113D01*
X137233497Y-59134737D01*
X137379179Y-59074394D01*
X137510289Y-58986789D01*
X137621789Y-58875289D01*
X137709394Y-58744179D01*
X137710083Y-58742517D01*
X137723067Y-58711166D01*
X137769737Y-58598497D01*
X137800500Y-58443842D01*
X137800500Y-58286158D01*
X137800500Y-58286155D01*
X137800499Y-58286153D01*
X137793048Y-58248691D01*
X137799275Y-58179100D01*
X137842138Y-58123922D01*
X137908028Y-58100678D01*
X137914665Y-58100500D01*
X139779903Y-58100500D01*
X139846942Y-58120185D01*
G37*
%TD.AperFunction*%
%TA.AperFunction,Conductor*%
G36*
X144942539Y-53519685D02*
G01*
X144988294Y-53572489D01*
X144999500Y-53624000D01*
X144999500Y-84498437D01*
X144999460Y-84501578D01*
X144980327Y-85256565D01*
X144980009Y-85262840D01*
X144922779Y-86014349D01*
X144922143Y-86020599D01*
X144826928Y-86768217D01*
X144825977Y-86774427D01*
X144693012Y-87516290D01*
X144691747Y-87522444D01*
X144521386Y-88256588D01*
X144519812Y-88262670D01*
X144312474Y-88987282D01*
X144310593Y-88993276D01*
X144066830Y-89706428D01*
X144064648Y-89712320D01*
X143785069Y-90412233D01*
X143782591Y-90418006D01*
X143467938Y-91102819D01*
X143465172Y-91108460D01*
X143116215Y-91776503D01*
X143113166Y-91781996D01*
X142730824Y-92431504D01*
X142727500Y-92436835D01*
X142312782Y-93066095D01*
X142309194Y-93071252D01*
X141863096Y-93678757D01*
X141859250Y-93683725D01*
X141382980Y-94267822D01*
X141378888Y-94272589D01*
X140873625Y-94831838D01*
X140869296Y-94836391D01*
X140336391Y-95369296D01*
X140331838Y-95373625D01*
X139772589Y-95878888D01*
X139767822Y-95882980D01*
X139183725Y-96359250D01*
X139178757Y-96363096D01*
X138571252Y-96809194D01*
X138566095Y-96812782D01*
X137936835Y-97227500D01*
X137931504Y-97230824D01*
X137281996Y-97613166D01*
X137276503Y-97616215D01*
X136608460Y-97965172D01*
X136602819Y-97967938D01*
X135918006Y-98282591D01*
X135912233Y-98285069D01*
X135212320Y-98564648D01*
X135206428Y-98566830D01*
X134493276Y-98810593D01*
X134487282Y-98812474D01*
X133762670Y-99019812D01*
X133756588Y-99021386D01*
X133022444Y-99191747D01*
X133016290Y-99193012D01*
X132274427Y-99325977D01*
X132268217Y-99326928D01*
X131520599Y-99422143D01*
X131514349Y-99422779D01*
X130923097Y-99467805D01*
X130854756Y-99453268D01*
X130805124Y-99404091D01*
X130789957Y-99335887D01*
X130814073Y-99270311D01*
X130840792Y-99243848D01*
X130977510Y-99144517D01*
X131144517Y-98977510D01*
X131283343Y-98786433D01*
X131390568Y-98575992D01*
X131463553Y-98351368D01*
X131488929Y-98191150D01*
X131500500Y-98118097D01*
X131500500Y-97881902D01*
X131463553Y-97648631D01*
X131390566Y-97424003D01*
X131334002Y-97312991D01*
X131283343Y-97213567D01*
X131144517Y-97022490D01*
X130977510Y-96855483D01*
X130786433Y-96716657D01*
X130575996Y-96609433D01*
X130351368Y-96536446D01*
X130118097Y-96499500D01*
X130118092Y-96499500D01*
X129881908Y-96499500D01*
X129881903Y-96499500D01*
X129648631Y-96536446D01*
X129424003Y-96609433D01*
X129213566Y-96716657D01*
X129104550Y-96795862D01*
X129022490Y-96855483D01*
X129022488Y-96855485D01*
X129022487Y-96855485D01*
X128855485Y-97022487D01*
X128855485Y-97022488D01*
X128855483Y-97022490D01*
X128795862Y-97104550D01*
X128716657Y-97213566D01*
X128609433Y-97424003D01*
X128536446Y-97648631D01*
X128499500Y-97881902D01*
X128499500Y-98118097D01*
X128536446Y-98351368D01*
X128609433Y-98575996D01*
X128716657Y-98786433D01*
X128855483Y-98977510D01*
X129022490Y-99144517D01*
X129159203Y-99243845D01*
X129201869Y-99299175D01*
X129207848Y-99368788D01*
X129175242Y-99430583D01*
X129114404Y-99464940D01*
X129076902Y-99467805D01*
X128485650Y-99422779D01*
X128479400Y-99422143D01*
X127731782Y-99326928D01*
X127725572Y-99325977D01*
X126983709Y-99193012D01*
X126977555Y-99191747D01*
X126243411Y-99021386D01*
X126237329Y-99019812D01*
X125512717Y-98812474D01*
X125506723Y-98810593D01*
X124793571Y-98566830D01*
X124787679Y-98564648D01*
X124087766Y-98285069D01*
X124081993Y-98282591D01*
X123397180Y-97967938D01*
X123391539Y-97965172D01*
X122723496Y-97616215D01*
X122718003Y-97613166D01*
X122068495Y-97230824D01*
X122063164Y-97227500D01*
X121433904Y-96812782D01*
X121428747Y-96809194D01*
X120821242Y-96363096D01*
X120816274Y-96359250D01*
X120232177Y-95882980D01*
X120227410Y-95878888D01*
X119668161Y-95373625D01*
X119663608Y-95369296D01*
X119130703Y-94836391D01*
X119126374Y-94831838D01*
X118621111Y-94272589D01*
X118617019Y-94267822D01*
X118238895Y-93804091D01*
X118140741Y-93683715D01*
X118136903Y-93678757D01*
X118128832Y-93667766D01*
X117690803Y-93071250D01*
X117687217Y-93066095D01*
X117496188Y-92776243D01*
X117272494Y-92436827D01*
X117269175Y-92431504D01*
X116886833Y-91781996D01*
X116883784Y-91776503D01*
X116534827Y-91108460D01*
X116532061Y-91102819D01*
X116217408Y-90418006D01*
X116214930Y-90412233D01*
X116170298Y-90300500D01*
X115935346Y-89712306D01*
X115933169Y-89706428D01*
X115889560Y-89578846D01*
X115689403Y-88993266D01*
X115687525Y-88987282D01*
X115480183Y-88262654D01*
X115478613Y-88256588D01*
X115308246Y-87522417D01*
X115306992Y-87516316D01*
X115174021Y-86774422D01*
X115173071Y-86768217D01*
X115077856Y-86020599D01*
X115077220Y-86014349D01*
X115019990Y-85262840D01*
X115019672Y-85256565D01*
X115000540Y-84501578D01*
X115000500Y-84498437D01*
X115000500Y-77381947D01*
X119557455Y-77381947D01*
X119557455Y-77618052D01*
X119594389Y-77851247D01*
X119667352Y-78075802D01*
X119774542Y-78286174D01*
X119834793Y-78369104D01*
X119834795Y-78369105D01*
X120379876Y-77824024D01*
X120392814Y-77855258D01*
X120474892Y-77978097D01*
X120579358Y-78082563D01*
X120702197Y-78164641D01*
X120733429Y-78177578D01*
X120188348Y-78722658D01*
X120271283Y-78782914D01*
X120481652Y-78890102D01*
X120706207Y-78963065D01*
X120706206Y-78963065D01*
X120939403Y-79000000D01*
X121175507Y-79000000D01*
X121408702Y-78963065D01*
X121633257Y-78890102D01*
X121843618Y-78782918D01*
X121843624Y-78782914D01*
X121926559Y-78722658D01*
X121926560Y-78722658D01*
X121381479Y-78177578D01*
X121412713Y-78164641D01*
X121535552Y-78082563D01*
X121640018Y-77978097D01*
X121722096Y-77855258D01*
X121735033Y-77824024D01*
X122280113Y-78369105D01*
X122280113Y-78369104D01*
X122340369Y-78286169D01*
X122340373Y-78286163D01*
X122447557Y-78075802D01*
X122520520Y-77851247D01*
X122557455Y-77618052D01*
X122557455Y-77381947D01*
X122520520Y-77148752D01*
X122447557Y-76924197D01*
X122340369Y-76713828D01*
X122280113Y-76630894D01*
X122280113Y-76630893D01*
X121735032Y-77175974D01*
X121722096Y-77144742D01*
X121640018Y-77021903D01*
X121535552Y-76917437D01*
X121412713Y-76835359D01*
X121381479Y-76822421D01*
X121926560Y-76277340D01*
X121926559Y-76277338D01*
X121843629Y-76217087D01*
X121633257Y-76109897D01*
X121408702Y-76036934D01*
X121408703Y-76036934D01*
X121175507Y-76000000D01*
X120939403Y-76000000D01*
X120706207Y-76036934D01*
X120481652Y-76109897D01*
X120271285Y-76217084D01*
X120188349Y-76277340D01*
X120733430Y-76822421D01*
X120702197Y-76835359D01*
X120579358Y-76917437D01*
X120474892Y-77021903D01*
X120392814Y-77144742D01*
X120379876Y-77175975D01*
X119834795Y-76630894D01*
X119774539Y-76713830D01*
X119667352Y-76924197D01*
X119594389Y-77148752D01*
X119557455Y-77381947D01*
X115000500Y-77381947D01*
X115000500Y-71921153D01*
X126699500Y-71921153D01*
X126699500Y-72078846D01*
X126730261Y-72233489D01*
X126730264Y-72233501D01*
X126790602Y-72379172D01*
X126790609Y-72379185D01*
X126878210Y-72510288D01*
X126878213Y-72510292D01*
X126989707Y-72621786D01*
X126989711Y-72621789D01*
X127120814Y-72709390D01*
X127120827Y-72709397D01*
X127266498Y-72769735D01*
X127266503Y-72769737D01*
X127421153Y-72800499D01*
X127421156Y-72800500D01*
X127421158Y-72800500D01*
X127578844Y-72800500D01*
X127578845Y-72800499D01*
X127733497Y-72769737D01*
X127879179Y-72709394D01*
X128010289Y-72621789D01*
X128121789Y-72510289D01*
X128209394Y-72379179D01*
X128269737Y-72233497D01*
X128292495Y-72119086D01*
X128300638Y-72078150D01*
X128333023Y-72016239D01*
X128334519Y-72014715D01*
X132858506Y-67490727D01*
X132858511Y-67490724D01*
X132868714Y-67480520D01*
X132868716Y-67480520D01*
X132980520Y-67368716D01*
X133050120Y-67248165D01*
X133059577Y-67231785D01*
X133100501Y-67079057D01*
X133100501Y-66920943D01*
X133100501Y-66913348D01*
X133100500Y-66913330D01*
X133100500Y-66079765D01*
X133120185Y-66012726D01*
X133121398Y-66010874D01*
X133209390Y-65879185D01*
X133209390Y-65879184D01*
X133209394Y-65879179D01*
X133269737Y-65733497D01*
X133300500Y-65578842D01*
X133300500Y-65421158D01*
X133300500Y-65421155D01*
X133300499Y-65421153D01*
X133292413Y-65380501D01*
X133269737Y-65266503D01*
X133267258Y-65260518D01*
X133209397Y-65120827D01*
X133209390Y-65120814D01*
X133121789Y-64989711D01*
X133121786Y-64989707D01*
X133010292Y-64878213D01*
X133010288Y-64878210D01*
X132879185Y-64790609D01*
X132879172Y-64790602D01*
X132733501Y-64730264D01*
X132733489Y-64730261D01*
X132578845Y-64699500D01*
X132578842Y-64699500D01*
X132421158Y-64699500D01*
X132421155Y-64699500D01*
X132266510Y-64730261D01*
X132266498Y-64730264D01*
X132120827Y-64790602D01*
X132120814Y-64790609D01*
X131989711Y-64878210D01*
X131989707Y-64878213D01*
X131878213Y-64989707D01*
X131878210Y-64989711D01*
X131790609Y-65120814D01*
X131790602Y-65120827D01*
X131730264Y-65266498D01*
X131730261Y-65266510D01*
X131699500Y-65421153D01*
X131699500Y-65578846D01*
X131730261Y-65733489D01*
X131730264Y-65733501D01*
X131790602Y-65879172D01*
X131790609Y-65879185D01*
X131878602Y-66010874D01*
X131899480Y-66077551D01*
X131899500Y-66079765D01*
X131899500Y-66699903D01*
X131879815Y-66766942D01*
X131863181Y-66787584D01*
X127485339Y-71165425D01*
X127424016Y-71198910D01*
X127421850Y-71199361D01*
X127266508Y-71230261D01*
X127266498Y-71230264D01*
X127120827Y-71290602D01*
X127120814Y-71290609D01*
X126989711Y-71378210D01*
X126989707Y-71378213D01*
X126878213Y-71489707D01*
X126878210Y-71489711D01*
X126790609Y-71620814D01*
X126790602Y-71620827D01*
X126730264Y-71766498D01*
X126730261Y-71766510D01*
X126699500Y-71921153D01*
X115000500Y-71921153D01*
X115000500Y-66248054D01*
X115748498Y-66248054D01*
X115789423Y-66400787D01*
X115808234Y-66433366D01*
X115808235Y-66433369D01*
X115868475Y-66537709D01*
X115868481Y-66537717D01*
X115987349Y-66656585D01*
X115987355Y-66656590D01*
X116166241Y-66835476D01*
X116199726Y-66896799D01*
X116196492Y-66961473D01*
X116182753Y-67003757D01*
X116149500Y-67213713D01*
X116149500Y-67426286D01*
X116182753Y-67636239D01*
X116248444Y-67838414D01*
X116344951Y-68027820D01*
X116469890Y-68199786D01*
X116620213Y-68350109D01*
X116792179Y-68475048D01*
X116792181Y-68475049D01*
X116792184Y-68475051D01*
X116981588Y-68571557D01*
X117183757Y-68637246D01*
X117393713Y-68670500D01*
X117393714Y-68670500D01*
X117606286Y-68670500D01*
X117606287Y-68670500D01*
X117816243Y-68637246D01*
X118018412Y-68571557D01*
X118207816Y-68475051D01*
X118229789Y-68459086D01*
X118379786Y-68350109D01*
X118379788Y-68350106D01*
X118379792Y-68350104D01*
X118530104Y-68199792D01*
X118530106Y-68199788D01*
X118530109Y-68199786D01*
X118655048Y-68027820D01*
X118655047Y-68027820D01*
X118655051Y-68027816D01*
X118751557Y-67838412D01*
X118817246Y-67636243D01*
X118850500Y-67426287D01*
X118850500Y-67213713D01*
X118817246Y-67003757D01*
X118751557Y-66801588D01*
X118655051Y-66612184D01*
X118655049Y-66612181D01*
X118655048Y-66612179D01*
X118530109Y-66440213D01*
X118379786Y-66289890D01*
X118207820Y-66164951D01*
X118207115Y-66164591D01*
X118199054Y-66160485D01*
X118148259Y-66112512D01*
X118131463Y-66044692D01*
X118153999Y-65978556D01*
X118199054Y-65939515D01*
X118207816Y-65935051D01*
X118283874Y-65879792D01*
X118379786Y-65810109D01*
X118379788Y-65810106D01*
X118379792Y-65810104D01*
X118530104Y-65659792D01*
X118530106Y-65659788D01*
X118530109Y-65659786D01*
X118632820Y-65518414D01*
X118655051Y-65487816D01*
X118656729Y-65484522D01*
X118675235Y-65448205D01*
X118723209Y-65397409D01*
X118785719Y-65380500D01*
X125423321Y-65380500D01*
X125423337Y-65380501D01*
X125430933Y-65380501D01*
X125589044Y-65380501D01*
X125589047Y-65380501D01*
X125741775Y-65339577D01*
X125741777Y-65339575D01*
X125741779Y-65339575D01*
X125741780Y-65339574D01*
X125792559Y-65310257D01*
X125792560Y-65310256D01*
X125878706Y-65260520D01*
X125990510Y-65148716D01*
X125990510Y-65148714D01*
X126000714Y-65138511D01*
X126000717Y-65138506D01*
X129169652Y-61969572D01*
X129230973Y-61936089D01*
X129233140Y-61935638D01*
X129292300Y-61923870D01*
X129388487Y-61904737D01*
X129497700Y-61859500D01*
X129539798Y-61842063D01*
X129540880Y-61844676D01*
X129597391Y-61832874D01*
X129662651Y-61857833D01*
X129704056Y-61914112D01*
X129709136Y-61932288D01*
X129730261Y-62038491D01*
X129730264Y-62038501D01*
X129790602Y-62184172D01*
X129790609Y-62184185D01*
X129878602Y-62315874D01*
X129899480Y-62382551D01*
X129899500Y-62384765D01*
X129899500Y-62920234D01*
X129879815Y-62987273D01*
X129878602Y-62989125D01*
X129790609Y-63120814D01*
X129790602Y-63120827D01*
X129730264Y-63266498D01*
X129730261Y-63266510D01*
X129699500Y-63421153D01*
X129699500Y-63578846D01*
X129730261Y-63733489D01*
X129730264Y-63733501D01*
X129790602Y-63879172D01*
X129790609Y-63879185D01*
X129878210Y-64010288D01*
X129878213Y-64010292D01*
X129989707Y-64121786D01*
X129989711Y-64121789D01*
X130120814Y-64209390D01*
X130120827Y-64209397D01*
X130266498Y-64269735D01*
X130266503Y-64269737D01*
X130379326Y-64292179D01*
X130421153Y-64300499D01*
X130421156Y-64300500D01*
X130421158Y-64300500D01*
X130578844Y-64300500D01*
X130578845Y-64300499D01*
X130733497Y-64269737D01*
X130879179Y-64209394D01*
X131010289Y-64121789D01*
X131121789Y-64010289D01*
X131209394Y-63879179D01*
X131269737Y-63733497D01*
X131300500Y-63578842D01*
X131300500Y-63421158D01*
X131300500Y-63421155D01*
X131300499Y-63421153D01*
X131269738Y-63266510D01*
X131269737Y-63266503D01*
X131254617Y-63230000D01*
X131209397Y-63120827D01*
X131209390Y-63120814D01*
X131121398Y-62989125D01*
X131100520Y-62922447D01*
X131100500Y-62920234D01*
X131100500Y-62655000D01*
X132278085Y-62655000D01*
X132281064Y-62687792D01*
X132281067Y-62687802D01*
X132328927Y-62841392D01*
X132412163Y-62979080D01*
X132525919Y-63092836D01*
X132663603Y-63176070D01*
X132817207Y-63223934D01*
X132883957Y-63230000D01*
X133337500Y-63230000D01*
X133837500Y-63230000D01*
X134291043Y-63230000D01*
X134357792Y-63223934D01*
X134511396Y-63176070D01*
X134649080Y-63092836D01*
X134762836Y-62979080D01*
X134846072Y-62841392D01*
X134893932Y-62687802D01*
X134893935Y-62687792D01*
X134896914Y-62655000D01*
X133837500Y-62655000D01*
X133837500Y-63230000D01*
X133337500Y-63230000D01*
X133337500Y-62655000D01*
X132278085Y-62655000D01*
X131100500Y-62655000D01*
X131100500Y-62384765D01*
X131120185Y-62317726D01*
X131121398Y-62315874D01*
X131209390Y-62184185D01*
X131209390Y-62184184D01*
X131209394Y-62184179D01*
X131269737Y-62038497D01*
X131300500Y-61883842D01*
X131300500Y-61859500D01*
X131320185Y-61792461D01*
X131372989Y-61746706D01*
X131424500Y-61735500D01*
X132249988Y-61735500D01*
X132317027Y-61755185D01*
X132362782Y-61807989D01*
X132372726Y-61877147D01*
X132356105Y-61923650D01*
X132328927Y-61968606D01*
X132281067Y-62122197D01*
X132281064Y-62122207D01*
X132278085Y-62154999D01*
X132278085Y-62155000D01*
X134896915Y-62155000D01*
X134896914Y-62154999D01*
X134893935Y-62122207D01*
X134893932Y-62122197D01*
X134846072Y-61968606D01*
X134818895Y-61923650D01*
X134801059Y-61856095D01*
X134822577Y-61789621D01*
X134876617Y-61745334D01*
X134925012Y-61735500D01*
X138334903Y-61735500D01*
X138401942Y-61755185D01*
X138422584Y-61771819D01*
X141166241Y-64515476D01*
X141199726Y-64576799D01*
X141196492Y-64641473D01*
X141182753Y-64683757D01*
X141149500Y-64893713D01*
X141149500Y-65106286D01*
X141182753Y-65316239D01*
X141182753Y-65316241D01*
X141182754Y-65316243D01*
X141238501Y-65487815D01*
X141248444Y-65518414D01*
X141344951Y-65707820D01*
X141469890Y-65879786D01*
X141620213Y-66030109D01*
X141792182Y-66155050D01*
X141800946Y-66159516D01*
X141851742Y-66207491D01*
X141868536Y-66275312D01*
X141845998Y-66341447D01*
X141800946Y-66380484D01*
X141792182Y-66384949D01*
X141620213Y-66509890D01*
X141469890Y-66660213D01*
X141344951Y-66832179D01*
X141248444Y-67021585D01*
X141182753Y-67223760D01*
X141149500Y-67433713D01*
X141149500Y-67646286D01*
X141182754Y-67856244D01*
X141182754Y-67856247D01*
X141196491Y-67898523D01*
X141198486Y-67968364D01*
X141166241Y-68024522D01*
X138938181Y-70252582D01*
X138876858Y-70286067D01*
X138807166Y-70281083D01*
X138751233Y-70239211D01*
X138726816Y-70173747D01*
X138726500Y-70164901D01*
X138726500Y-66021942D01*
X138723377Y-66010288D01*
X138723376Y-66010285D01*
X138697756Y-65914670D01*
X138697756Y-65914669D01*
X138685577Y-65869216D01*
X138635388Y-65782285D01*
X138606524Y-65732290D01*
X138606521Y-65732286D01*
X138606520Y-65732284D01*
X138494716Y-65620480D01*
X138494715Y-65620479D01*
X138490385Y-65616149D01*
X138490374Y-65616139D01*
X138359574Y-65485339D01*
X138326089Y-65424016D01*
X138325638Y-65421849D01*
X138294738Y-65266510D01*
X138294737Y-65266503D01*
X138292258Y-65260518D01*
X138234397Y-65120827D01*
X138234390Y-65120814D01*
X138146789Y-64989711D01*
X138146786Y-64989707D01*
X138035292Y-64878213D01*
X138035288Y-64878210D01*
X137904185Y-64790609D01*
X137904172Y-64790602D01*
X137758501Y-64730264D01*
X137758489Y-64730261D01*
X137603845Y-64699500D01*
X137603842Y-64699500D01*
X137446158Y-64699500D01*
X137446155Y-64699500D01*
X137291510Y-64730261D01*
X137291498Y-64730264D01*
X137145827Y-64790602D01*
X137145814Y-64790609D01*
X137014711Y-64878210D01*
X137014707Y-64878213D01*
X136903213Y-64989707D01*
X136903210Y-64989711D01*
X136815609Y-65120814D01*
X136815602Y-65120827D01*
X136755264Y-65266498D01*
X136755261Y-65266510D01*
X136724500Y-65421153D01*
X136724500Y-65578846D01*
X136755261Y-65733489D01*
X136755264Y-65733501D01*
X136815602Y-65879172D01*
X136815609Y-65879185D01*
X136903210Y-66010288D01*
X136903213Y-66010292D01*
X137014707Y-66121786D01*
X137014711Y-66121789D01*
X137145814Y-66209390D01*
X137145827Y-66209397D01*
X137239155Y-66248054D01*
X137291503Y-66269737D01*
X137385544Y-66288443D01*
X137425691Y-66296429D01*
X137487602Y-66328814D01*
X137522176Y-66389529D01*
X137525500Y-66418046D01*
X137525500Y-68581953D01*
X137505815Y-68648992D01*
X137453011Y-68694747D01*
X137425692Y-68703570D01*
X137291508Y-68730261D01*
X137291498Y-68730264D01*
X137145827Y-68790602D01*
X137145814Y-68790609D01*
X137014711Y-68878210D01*
X137014707Y-68878213D01*
X136903213Y-68989707D01*
X136903210Y-68989711D01*
X136815609Y-69120814D01*
X136815602Y-69120827D01*
X136755264Y-69266498D01*
X136755261Y-69266508D01*
X136724361Y-69421850D01*
X136691976Y-69483761D01*
X136690425Y-69485339D01*
X133838638Y-72337126D01*
X133777315Y-72370611D01*
X133707623Y-72365627D01*
X133651690Y-72323755D01*
X133627273Y-72258291D01*
X133626957Y-72249445D01*
X133626957Y-71015765D01*
X133646642Y-70948726D01*
X133647855Y-70946874D01*
X133735847Y-70815185D01*
X133735847Y-70815184D01*
X133735851Y-70815179D01*
X133796194Y-70669497D01*
X133826957Y-70514842D01*
X133826957Y-70357158D01*
X133826957Y-70357155D01*
X133826956Y-70357153D01*
X133814581Y-70294942D01*
X133796194Y-70202503D01*
X133780619Y-70164901D01*
X133735854Y-70056827D01*
X133735847Y-70056814D01*
X133648246Y-69925711D01*
X133648243Y-69925707D01*
X133536749Y-69814213D01*
X133536745Y-69814210D01*
X133405642Y-69726609D01*
X133405629Y-69726602D01*
X133259958Y-69666264D01*
X133259946Y-69666261D01*
X133105302Y-69635500D01*
X133105299Y-69635500D01*
X132947615Y-69635500D01*
X132947612Y-69635500D01*
X132792967Y-69666261D01*
X132792955Y-69666264D01*
X132647284Y-69726602D01*
X132647271Y-69726609D01*
X132516168Y-69814210D01*
X132516164Y-69814213D01*
X132404670Y-69925707D01*
X132404667Y-69925711D01*
X132317066Y-70056814D01*
X132317059Y-70056827D01*
X132256721Y-70202498D01*
X132256718Y-70202510D01*
X132225957Y-70357153D01*
X132225957Y-70514846D01*
X132256718Y-70669489D01*
X132256721Y-70669501D01*
X132317059Y-70815172D01*
X132317066Y-70815185D01*
X132405059Y-70946874D01*
X132425937Y-71013551D01*
X132425957Y-71015765D01*
X132425957Y-71898046D01*
X132406272Y-71965085D01*
X132389638Y-71985727D01*
X127512184Y-76863181D01*
X127450861Y-76896666D01*
X127424503Y-76899500D01*
X126079766Y-76899500D01*
X126012727Y-76879815D01*
X126010875Y-76878602D01*
X125879185Y-76790609D01*
X125879172Y-76790602D01*
X125733501Y-76730264D01*
X125733489Y-76730261D01*
X125578845Y-76699500D01*
X125578842Y-76699500D01*
X125421158Y-76699500D01*
X125421155Y-76699500D01*
X125266510Y-76730261D01*
X125266498Y-76730264D01*
X125120827Y-76790602D01*
X125120814Y-76790609D01*
X124989711Y-76878210D01*
X124989707Y-76878213D01*
X124878213Y-76989707D01*
X124878210Y-76989711D01*
X124790609Y-77120814D01*
X124790602Y-77120827D01*
X124730264Y-77266498D01*
X124730261Y-77266510D01*
X124699500Y-77421153D01*
X124699500Y-77578846D01*
X124730261Y-77733489D01*
X124730264Y-77733501D01*
X124790602Y-77879172D01*
X124790609Y-77879185D01*
X124878210Y-78010288D01*
X124878213Y-78010292D01*
X124989707Y-78121786D01*
X124989711Y-78121789D01*
X125120814Y-78209390D01*
X125120827Y-78209397D01*
X125218853Y-78250000D01*
X125266503Y-78269737D01*
X125421153Y-78300499D01*
X125421156Y-78300500D01*
X125421158Y-78300500D01*
X125578844Y-78300500D01*
X125578845Y-78300499D01*
X125733497Y-78269737D01*
X125879179Y-78209394D01*
X125879185Y-78209390D01*
X126010875Y-78121398D01*
X126077553Y-78100520D01*
X126079766Y-78100500D01*
X127637932Y-78100500D01*
X127645539Y-78100500D01*
X127645543Y-78100501D01*
X127775902Y-78100501D01*
X127842941Y-78120186D01*
X127888696Y-78172990D01*
X127894342Y-78212264D01*
X127898639Y-78242148D01*
X127869614Y-78305704D01*
X127863582Y-78312182D01*
X125439481Y-80736282D01*
X125439479Y-80736285D01*
X125389361Y-80823094D01*
X125389359Y-80823096D01*
X125360425Y-80873209D01*
X125360424Y-80873210D01*
X125360423Y-80873215D01*
X125319499Y-81025943D01*
X125319499Y-81025945D01*
X125319499Y-81194046D01*
X125319500Y-81194059D01*
X125319500Y-91174281D01*
X125299815Y-91241320D01*
X125251795Y-91284765D01*
X125212185Y-91304947D01*
X125212184Y-91304948D01*
X125040213Y-91429890D01*
X124889890Y-91580213D01*
X124764951Y-91752179D01*
X124668444Y-91941585D01*
X124602753Y-92143760D01*
X124569500Y-92353713D01*
X124569500Y-92566286D01*
X124602753Y-92776239D01*
X124668444Y-92978414D01*
X124764951Y-93167820D01*
X124889890Y-93339786D01*
X125040213Y-93490109D01*
X125212182Y-93615050D01*
X125220946Y-93619516D01*
X125271742Y-93667491D01*
X125288536Y-93735312D01*
X125265998Y-93801447D01*
X125220946Y-93840484D01*
X125212182Y-93844949D01*
X125040213Y-93969890D01*
X124889890Y-94120213D01*
X124764951Y-94292179D01*
X124668444Y-94481585D01*
X124602753Y-94683760D01*
X124601291Y-94692993D01*
X124569500Y-94893713D01*
X124569500Y-95106287D01*
X124579534Y-95169644D01*
X124602753Y-95316239D01*
X124668444Y-95518414D01*
X124764951Y-95707820D01*
X124889890Y-95879786D01*
X125040213Y-96030109D01*
X125212179Y-96155048D01*
X125212181Y-96155049D01*
X125212184Y-96155051D01*
X125401588Y-96251557D01*
X125603757Y-96317246D01*
X125813713Y-96350500D01*
X125813714Y-96350500D01*
X126026286Y-96350500D01*
X126026287Y-96350500D01*
X126236243Y-96317246D01*
X126438412Y-96251557D01*
X126627816Y-96155051D01*
X126714865Y-96091807D01*
X126799786Y-96030109D01*
X126799788Y-96030106D01*
X126799792Y-96030104D01*
X126950104Y-95879792D01*
X126950106Y-95879788D01*
X126950109Y-95879786D01*
X127075048Y-95707820D01*
X127075047Y-95707820D01*
X127075051Y-95707816D01*
X127079514Y-95699054D01*
X127127488Y-95648259D01*
X127195308Y-95631463D01*
X127261444Y-95653999D01*
X127300486Y-95699056D01*
X127304951Y-95707820D01*
X127429890Y-95879786D01*
X127580213Y-96030109D01*
X127752179Y-96155048D01*
X127752181Y-96155049D01*
X127752184Y-96155051D01*
X127941588Y-96251557D01*
X128143757Y-96317246D01*
X128353713Y-96350500D01*
X128353714Y-96350500D01*
X128566286Y-96350500D01*
X128566287Y-96350500D01*
X128776243Y-96317246D01*
X128978412Y-96251557D01*
X129167816Y-96155051D01*
X129254865Y-96091807D01*
X129339786Y-96030109D01*
X129339788Y-96030106D01*
X129339792Y-96030104D01*
X129490104Y-95879792D01*
X129490106Y-95879788D01*
X129490109Y-95879786D01*
X129615048Y-95707820D01*
X129615051Y-95707816D01*
X129619793Y-95698508D01*
X129667763Y-95647711D01*
X129735583Y-95630911D01*
X129801719Y-95653445D01*
X129840763Y-95698500D01*
X129845377Y-95707555D01*
X129970272Y-95879459D01*
X129970276Y-95879464D01*
X130120535Y-96029723D01*
X130120540Y-96029727D01*
X130292442Y-96154620D01*
X130481782Y-96251095D01*
X130683871Y-96316757D01*
X130750000Y-96327231D01*
X130750000Y-95433012D01*
X130807007Y-95465925D01*
X130934174Y-95500000D01*
X131065826Y-95500000D01*
X131192993Y-95465925D01*
X131250000Y-95433012D01*
X131250000Y-96327230D01*
X131316126Y-96316757D01*
X131316129Y-96316757D01*
X131518217Y-96251095D01*
X131707557Y-96154620D01*
X131879459Y-96029727D01*
X131879464Y-96029723D01*
X132029723Y-95879464D01*
X132029727Y-95879459D01*
X132154620Y-95707558D01*
X132159232Y-95698507D01*
X132207205Y-95647709D01*
X132275025Y-95630912D01*
X132341161Y-95653447D01*
X132380204Y-95698504D01*
X132384949Y-95707817D01*
X132509890Y-95879786D01*
X132660213Y-96030109D01*
X132832179Y-96155048D01*
X132832181Y-96155049D01*
X132832184Y-96155051D01*
X133021588Y-96251557D01*
X133223757Y-96317246D01*
X133433713Y-96350500D01*
X133433714Y-96350500D01*
X133646286Y-96350500D01*
X133646287Y-96350500D01*
X133856243Y-96317246D01*
X134058412Y-96251557D01*
X134247816Y-96155051D01*
X134334865Y-96091807D01*
X134419786Y-96030109D01*
X134419788Y-96030106D01*
X134419792Y-96030104D01*
X134570104Y-95879792D01*
X134570106Y-95879788D01*
X134570109Y-95879786D01*
X134695048Y-95707820D01*
X134695047Y-95707820D01*
X134695051Y-95707816D01*
X134791557Y-95518412D01*
X134857246Y-95316243D01*
X134890500Y-95106287D01*
X134890500Y-94893713D01*
X134857246Y-94683757D01*
X134791557Y-94481588D01*
X134695051Y-94292184D01*
X134695049Y-94292181D01*
X134695048Y-94292179D01*
X134570109Y-94120213D01*
X134456569Y-94006673D01*
X134423084Y-93945350D01*
X134428068Y-93875658D01*
X134469940Y-93819725D01*
X134500915Y-93802810D01*
X134632331Y-93753796D01*
X134747546Y-93667546D01*
X134833796Y-93552331D01*
X134884091Y-93417483D01*
X134890500Y-93357873D01*
X134890499Y-91562128D01*
X134884091Y-91502517D01*
X134882810Y-91499083D01*
X134833797Y-91367671D01*
X134833793Y-91367664D01*
X134747547Y-91252455D01*
X134747544Y-91252452D01*
X134632335Y-91166206D01*
X134632328Y-91166202D01*
X134497482Y-91115908D01*
X134497483Y-91115908D01*
X134437883Y-91109501D01*
X134437881Y-91109500D01*
X134437873Y-91109500D01*
X134437864Y-91109500D01*
X132642129Y-91109500D01*
X132642123Y-91109501D01*
X132582516Y-91115908D01*
X132447671Y-91166202D01*
X132447664Y-91166206D01*
X132332455Y-91252452D01*
X132332452Y-91252455D01*
X132246206Y-91367664D01*
X132246203Y-91367669D01*
X132197189Y-91499083D01*
X132155317Y-91555016D01*
X132089853Y-91579433D01*
X132021580Y-91564581D01*
X131993326Y-91543430D01*
X131879786Y-91429890D01*
X131707820Y-91304951D01*
X131518414Y-91208444D01*
X131518413Y-91208443D01*
X131518412Y-91208443D01*
X131316243Y-91142754D01*
X131316241Y-91142753D01*
X131316240Y-91142753D01*
X131154957Y-91117208D01*
X131106287Y-91109500D01*
X130893713Y-91109500D01*
X130845042Y-91117208D01*
X130683760Y-91142753D01*
X130481585Y-91208444D01*
X130292179Y-91304951D01*
X130120213Y-91429890D01*
X129969890Y-91580213D01*
X129844949Y-91752182D01*
X129840484Y-91760946D01*
X129792509Y-91811742D01*
X129724688Y-91828536D01*
X129658553Y-91805998D01*
X129619516Y-91760946D01*
X129615050Y-91752182D01*
X129490109Y-91580213D01*
X129339786Y-91429890D01*
X129167820Y-91304951D01*
X128978414Y-91208444D01*
X128978413Y-91208443D01*
X128978412Y-91208443D01*
X128776243Y-91142754D01*
X128776241Y-91142753D01*
X128776240Y-91142753D01*
X128614957Y-91117208D01*
X128566287Y-91109500D01*
X128353713Y-91109500D01*
X128305042Y-91117208D01*
X128143760Y-91142753D01*
X127941585Y-91208444D01*
X127752179Y-91304951D01*
X127580213Y-91429890D01*
X127429890Y-91580213D01*
X127304949Y-91752182D01*
X127300484Y-91760946D01*
X127252509Y-91811742D01*
X127184688Y-91828536D01*
X127118553Y-91805998D01*
X127079516Y-91760946D01*
X127075050Y-91752182D01*
X126950109Y-91580213D01*
X126799786Y-91429890D01*
X126627815Y-91304948D01*
X126627814Y-91304947D01*
X126588205Y-91284765D01*
X126537409Y-91236791D01*
X126520500Y-91174281D01*
X126520500Y-81405096D01*
X126540185Y-81338057D01*
X126556814Y-81317420D01*
X132072818Y-75801415D01*
X132134139Y-75767932D01*
X132203831Y-75772916D01*
X132259764Y-75814788D01*
X132275057Y-75841644D01*
X132290601Y-75879170D01*
X132290609Y-75879185D01*
X132378210Y-76010288D01*
X132378213Y-76010292D01*
X132489707Y-76121786D01*
X132489711Y-76121789D01*
X132620814Y-76209390D01*
X132620827Y-76209397D01*
X132766498Y-76269735D01*
X132766503Y-76269737D01*
X132921153Y-76300499D01*
X132921156Y-76300500D01*
X132921158Y-76300500D01*
X133078844Y-76300500D01*
X133078845Y-76300499D01*
X133233497Y-76269737D01*
X133379179Y-76209394D01*
X133510289Y-76121789D01*
X133621789Y-76010289D01*
X133709394Y-75879179D01*
X133769737Y-75733497D01*
X133800500Y-75578842D01*
X133800638Y-75578150D01*
X133833023Y-75516239D01*
X133834519Y-75514715D01*
X136187819Y-73161414D01*
X136249142Y-73127930D01*
X136318834Y-73132914D01*
X136374767Y-73174786D01*
X136399184Y-73240250D01*
X136399500Y-73249096D01*
X136399500Y-88920234D01*
X136379815Y-88987273D01*
X136378602Y-88989125D01*
X136290609Y-89120814D01*
X136290602Y-89120827D01*
X136230264Y-89266498D01*
X136230261Y-89266510D01*
X136199500Y-89421153D01*
X136199500Y-89578846D01*
X136230261Y-89733489D01*
X136230264Y-89733501D01*
X136290602Y-89879172D01*
X136290609Y-89879185D01*
X136378210Y-90010288D01*
X136378213Y-90010292D01*
X136489707Y-90121786D01*
X136489711Y-90121789D01*
X136620814Y-90209390D01*
X136620827Y-90209397D01*
X136743565Y-90260236D01*
X136766503Y-90269737D01*
X136921153Y-90300499D01*
X136921156Y-90300500D01*
X136921158Y-90300500D01*
X137078844Y-90300500D01*
X137078845Y-90300499D01*
X137233497Y-90269737D01*
X137379179Y-90209394D01*
X137510289Y-90121789D01*
X137621789Y-90010289D01*
X137709394Y-89879179D01*
X137769737Y-89733497D01*
X137800500Y-89578842D01*
X137800500Y-89421158D01*
X137800500Y-89421155D01*
X137800499Y-89421153D01*
X137769738Y-89266510D01*
X137769737Y-89266503D01*
X137769735Y-89266498D01*
X137709397Y-89120827D01*
X137709390Y-89120814D01*
X137621398Y-88989125D01*
X137600520Y-88922447D01*
X137600500Y-88920234D01*
X137600500Y-83421153D01*
X140199500Y-83421153D01*
X140199500Y-83578846D01*
X140230261Y-83733489D01*
X140230264Y-83733501D01*
X140290602Y-83879172D01*
X140290609Y-83879185D01*
X140378210Y-84010288D01*
X140378213Y-84010292D01*
X140489707Y-84121786D01*
X140489711Y-84121789D01*
X140620814Y-84209390D01*
X140620827Y-84209397D01*
X140766498Y-84269735D01*
X140766503Y-84269737D01*
X140921153Y-84300499D01*
X140921156Y-84300500D01*
X140921158Y-84300500D01*
X141078844Y-84300500D01*
X141078845Y-84300499D01*
X141233497Y-84269737D01*
X141379179Y-84209394D01*
X141510289Y-84121789D01*
X141621789Y-84010289D01*
X141709394Y-83879179D01*
X141769737Y-83733497D01*
X141789113Y-83636085D01*
X141800638Y-83578150D01*
X141833023Y-83516239D01*
X141834523Y-83514711D01*
X142215961Y-83133272D01*
X142215966Y-83133269D01*
X142226169Y-83123065D01*
X142226171Y-83123065D01*
X142337975Y-83011261D01*
X142417032Y-82874329D01*
X142446989Y-82762526D01*
X142457955Y-82721603D01*
X142457955Y-82563488D01*
X142457955Y-79124499D01*
X142477640Y-79057460D01*
X142530444Y-79011705D01*
X142581955Y-79000499D01*
X142905326Y-79000499D01*
X142905327Y-79000499D01*
X142964938Y-78994091D01*
X143099786Y-78943796D01*
X143215001Y-78857546D01*
X143301251Y-78742331D01*
X143351546Y-78607483D01*
X143357955Y-78547873D01*
X143357954Y-76452128D01*
X143351546Y-76392517D01*
X143305752Y-76269738D01*
X143301252Y-76257671D01*
X143301248Y-76257664D01*
X143215002Y-76142455D01*
X143214999Y-76142452D01*
X143099790Y-76056206D01*
X143099783Y-76056202D01*
X142964937Y-76005908D01*
X142964938Y-76005908D01*
X142905338Y-75999501D01*
X142905336Y-75999500D01*
X142905328Y-75999500D01*
X142905319Y-75999500D01*
X140809584Y-75999500D01*
X140809578Y-75999501D01*
X140749971Y-76005908D01*
X140615126Y-76056202D01*
X140615119Y-76056206D01*
X140499910Y-76142452D01*
X140499907Y-76142455D01*
X140413661Y-76257664D01*
X140413657Y-76257671D01*
X140363363Y-76392517D01*
X140356956Y-76452116D01*
X140356956Y-76452123D01*
X140356955Y-76452135D01*
X140356955Y-78547870D01*
X140356956Y-78547876D01*
X140363363Y-78607483D01*
X140413657Y-78742328D01*
X140413661Y-78742335D01*
X140499907Y-78857544D01*
X140499910Y-78857547D01*
X140615119Y-78943793D01*
X140615126Y-78943797D01*
X140660073Y-78960561D01*
X140749972Y-78994091D01*
X140809582Y-79000500D01*
X141132955Y-79000499D01*
X141199994Y-79020183D01*
X141245749Y-79072987D01*
X141256955Y-79124499D01*
X141256955Y-82342448D01*
X141237270Y-82409487D01*
X141220636Y-82430129D01*
X140985339Y-82665425D01*
X140924016Y-82698910D01*
X140921850Y-82699361D01*
X140766508Y-82730261D01*
X140766498Y-82730264D01*
X140620827Y-82790602D01*
X140620814Y-82790609D01*
X140489711Y-82878210D01*
X140489707Y-82878213D01*
X140378213Y-82989707D01*
X140378210Y-82989711D01*
X140290609Y-83120814D01*
X140290602Y-83120827D01*
X140230264Y-83266498D01*
X140230261Y-83266510D01*
X140199500Y-83421153D01*
X137600500Y-83421153D01*
X137600500Y-73340096D01*
X137620185Y-73273057D01*
X137636814Y-73252420D01*
X142015478Y-68873755D01*
X142076799Y-68840272D01*
X142141473Y-68843506D01*
X142183757Y-68857246D01*
X142393713Y-68890500D01*
X142393714Y-68890500D01*
X142606286Y-68890500D01*
X142606287Y-68890500D01*
X142816243Y-68857246D01*
X142888183Y-68833870D01*
X142958023Y-68831876D01*
X143017856Y-68867956D01*
X143048684Y-68930657D01*
X143050500Y-68951802D01*
X143050500Y-70271313D01*
X143030815Y-70338352D01*
X142995393Y-70374413D01*
X142989716Y-70378206D01*
X142989707Y-70378213D01*
X142878213Y-70489707D01*
X142878210Y-70489711D01*
X142790609Y-70620814D01*
X142790602Y-70620827D01*
X142730264Y-70766498D01*
X142730261Y-70766510D01*
X142699500Y-70921153D01*
X142699500Y-71078846D01*
X142730261Y-71233489D01*
X142730264Y-71233501D01*
X142790602Y-71379172D01*
X142790609Y-71379185D01*
X142878210Y-71510288D01*
X142878213Y-71510292D01*
X142989707Y-71621786D01*
X142989711Y-71621789D01*
X143120814Y-71709390D01*
X143120827Y-71709397D01*
X143258683Y-71766498D01*
X143266503Y-71769737D01*
X143421153Y-71800499D01*
X143421156Y-71800500D01*
X143421158Y-71800500D01*
X143578844Y-71800500D01*
X143578845Y-71800499D01*
X143733497Y-71769737D01*
X143879179Y-71709394D01*
X144010289Y-71621789D01*
X144121789Y-71510289D01*
X144209394Y-71379179D01*
X144269737Y-71233497D01*
X144300500Y-71078842D01*
X144300500Y-70921158D01*
X144300500Y-70921155D01*
X144300499Y-70921153D01*
X144269739Y-70766511D01*
X144269738Y-70766508D01*
X144269737Y-70766503D01*
X144260937Y-70745258D01*
X144251500Y-70697810D01*
X144251500Y-66240060D01*
X144251501Y-66240047D01*
X144251501Y-66071945D01*
X144251501Y-66071943D01*
X144210577Y-65919215D01*
X144181421Y-65868716D01*
X144131520Y-65782284D01*
X144019716Y-65670480D01*
X144019715Y-65670479D01*
X144015385Y-65666149D01*
X144015374Y-65666139D01*
X143833757Y-65484522D01*
X143800272Y-65423199D01*
X143803507Y-65358523D01*
X143817246Y-65316243D01*
X143850500Y-65106287D01*
X143850500Y-64893713D01*
X143817246Y-64683757D01*
X143751557Y-64481588D01*
X143655051Y-64292184D01*
X143655049Y-64292181D01*
X143655048Y-64292179D01*
X143530109Y-64120213D01*
X143379786Y-63969890D01*
X143207817Y-63844949D01*
X143198504Y-63840204D01*
X143147707Y-63792230D01*
X143130912Y-63724409D01*
X143153449Y-63658274D01*
X143198507Y-63619232D01*
X143207558Y-63614620D01*
X143379459Y-63489727D01*
X143379464Y-63489723D01*
X143529723Y-63339464D01*
X143529727Y-63339459D01*
X143654620Y-63167557D01*
X143751095Y-62978217D01*
X143816757Y-62776129D01*
X143816757Y-62776126D01*
X143827231Y-62710000D01*
X142933012Y-62710000D01*
X142965925Y-62652993D01*
X143000000Y-62525826D01*
X143000000Y-62394174D01*
X142965925Y-62267007D01*
X142933012Y-62210000D01*
X143827231Y-62210000D01*
X143816757Y-62143873D01*
X143816757Y-62143870D01*
X143751095Y-61941782D01*
X143654620Y-61752442D01*
X143529727Y-61580540D01*
X143529723Y-61580535D01*
X143416053Y-61466865D01*
X143382568Y-61405542D01*
X143387552Y-61335850D01*
X143429424Y-61279917D01*
X143460400Y-61263002D01*
X143592331Y-61213796D01*
X143707546Y-61127546D01*
X143793796Y-61012331D01*
X143844091Y-60877483D01*
X143850500Y-60817873D01*
X143850499Y-59022128D01*
X143844091Y-58962517D01*
X143812528Y-58877893D01*
X143793797Y-58827671D01*
X143793793Y-58827664D01*
X143707547Y-58712455D01*
X143707544Y-58712452D01*
X143592335Y-58626206D01*
X143592328Y-58626202D01*
X143457482Y-58575908D01*
X143457483Y-58575908D01*
X143397883Y-58569501D01*
X143397881Y-58569500D01*
X143397873Y-58569500D01*
X143397865Y-58569500D01*
X142050097Y-58569500D01*
X141983058Y-58549815D01*
X141962416Y-58533181D01*
X140567590Y-57138355D01*
X140567588Y-57138352D01*
X140448717Y-57019481D01*
X140448716Y-57019480D01*
X140361904Y-56969360D01*
X140361904Y-56969359D01*
X140361900Y-56969358D01*
X140311785Y-56940423D01*
X140159057Y-56899499D01*
X140000943Y-56899499D01*
X139993347Y-56899499D01*
X139993331Y-56899500D01*
X127594169Y-56899500D01*
X127594153Y-56899499D01*
X127586557Y-56899499D01*
X127428443Y-56899499D01*
X127321087Y-56928265D01*
X127275710Y-56940424D01*
X127275709Y-56940425D01*
X127225596Y-56969359D01*
X127225595Y-56969360D01*
X127182189Y-56994420D01*
X127138785Y-57019479D01*
X127138782Y-57019481D01*
X127026978Y-57131286D01*
X126425082Y-57733181D01*
X126363759Y-57766666D01*
X126337401Y-57769500D01*
X125708901Y-57769500D01*
X125642117Y-57775568D01*
X125642106Y-57775571D01*
X125488401Y-57823467D01*
X125350608Y-57906766D01*
X125350607Y-57906767D01*
X125299196Y-57958180D01*
X125237873Y-57991666D01*
X125211514Y-57994500D01*
X118691669Y-57994500D01*
X118691653Y-57994499D01*
X118684057Y-57994499D01*
X118525943Y-57994499D01*
X118418587Y-58023265D01*
X118373210Y-58035424D01*
X118373209Y-58035425D01*
X118323096Y-58064359D01*
X118323095Y-58064360D01*
X118279689Y-58089420D01*
X118236285Y-58114479D01*
X118236282Y-58114481D01*
X118124480Y-58226283D01*
X118124480Y-58226284D01*
X118124478Y-58226286D01*
X118064611Y-58286153D01*
X118037582Y-58313182D01*
X117976258Y-58346666D01*
X117949901Y-58349500D01*
X116602129Y-58349500D01*
X116602123Y-58349501D01*
X116542516Y-58355908D01*
X116407671Y-58406202D01*
X116407664Y-58406206D01*
X116292455Y-58492452D01*
X116292452Y-58492455D01*
X116206206Y-58607664D01*
X116206202Y-58607671D01*
X116155908Y-58742517D01*
X116149501Y-58802116D01*
X116149500Y-58802135D01*
X116149500Y-60597870D01*
X116149501Y-60597876D01*
X116155908Y-60657483D01*
X116206202Y-60792328D01*
X116206206Y-60792335D01*
X116292452Y-60907544D01*
X116292455Y-60907547D01*
X116407664Y-60993793D01*
X116407671Y-60993797D01*
X116407674Y-60993798D01*
X116539598Y-61043002D01*
X116595531Y-61084873D01*
X116619949Y-61150337D01*
X116605098Y-61218610D01*
X116583947Y-61246865D01*
X116470271Y-61360541D01*
X116345379Y-61532442D01*
X116248904Y-61721782D01*
X116183242Y-61923870D01*
X116183242Y-61923873D01*
X116172769Y-61990000D01*
X117066988Y-61990000D01*
X117034075Y-62047007D01*
X117000000Y-62174174D01*
X117000000Y-62305826D01*
X117034075Y-62432993D01*
X117066988Y-62490000D01*
X116172769Y-62490000D01*
X116183242Y-62556126D01*
X116183242Y-62556129D01*
X116248904Y-62758217D01*
X116345379Y-62947557D01*
X116470272Y-63119459D01*
X116470276Y-63119464D01*
X116489227Y-63138415D01*
X116522712Y-63199738D01*
X116517728Y-63269430D01*
X116489227Y-63313777D01*
X115868481Y-63934522D01*
X115868479Y-63934525D01*
X115848058Y-63969896D01*
X115824738Y-64010289D01*
X115818361Y-64021334D01*
X115818359Y-64021336D01*
X115789425Y-64071449D01*
X115789424Y-64071450D01*
X115789423Y-64071455D01*
X115748499Y-64224183D01*
X115748499Y-64382297D01*
X115748499Y-64382299D01*
X115748500Y-64392293D01*
X115748500Y-66082330D01*
X115748499Y-66082348D01*
X115748499Y-66248054D01*
X115748498Y-66248054D01*
X115000500Y-66248054D01*
X115000500Y-53624000D01*
X115020185Y-53556961D01*
X115072989Y-53511206D01*
X115124500Y-53500000D01*
X144875500Y-53500000D01*
X144942539Y-53519685D01*
G37*
%TD.AperFunction*%
%TD*%
M02*
