%TF.GenerationSoftware,KiCad,Pcbnew,9.0.0*%
%TF.CreationDate,2025-03-23T12:51:39+01:00*%
%TF.ProjectId,ppicoV1,70706963-6f56-4312-9e6b-696361645f70,rev?*%
%TF.SameCoordinates,Original*%
%TF.FileFunction,Legend,Bot*%
%TF.FilePolarity,Positive*%
%FSLAX46Y46*%
G04 Gerber Fmt 4.6, Leading zero omitted, Abs format (unit mm)*
G04 Created by KiCad (PCBNEW 9.0.0) date 2025-03-23 12:51:39*
%MOMM*%
%LPD*%
G01*
G04 APERTURE LIST*
%ADD10C,0.150000*%
%ADD11C,0.120000*%
G04 APERTURE END LIST*
D10*
X130761904Y-56354819D02*
X130761904Y-57164342D01*
X130761904Y-57164342D02*
X130714285Y-57259580D01*
X130714285Y-57259580D02*
X130666666Y-57307200D01*
X130666666Y-57307200D02*
X130571428Y-57354819D01*
X130571428Y-57354819D02*
X130380952Y-57354819D01*
X130380952Y-57354819D02*
X130285714Y-57307200D01*
X130285714Y-57307200D02*
X130238095Y-57259580D01*
X130238095Y-57259580D02*
X130190476Y-57164342D01*
X130190476Y-57164342D02*
X130190476Y-56354819D01*
X129190476Y-57354819D02*
X129761904Y-57354819D01*
X129476190Y-57354819D02*
X129476190Y-56354819D01*
X129476190Y-56354819D02*
X129571428Y-56497676D01*
X129571428Y-56497676D02*
X129666666Y-56592914D01*
X129666666Y-56592914D02*
X129761904Y-56640533D01*
X144143169Y-74931009D02*
X144000312Y-74978628D01*
X144000312Y-74978628D02*
X143952693Y-75026247D01*
X143952693Y-75026247D02*
X143905074Y-75121485D01*
X143905074Y-75121485D02*
X143905074Y-75264342D01*
X143905074Y-75264342D02*
X143952693Y-75359580D01*
X143952693Y-75359580D02*
X144000312Y-75407200D01*
X144000312Y-75407200D02*
X144095550Y-75454819D01*
X144095550Y-75454819D02*
X144476502Y-75454819D01*
X144476502Y-75454819D02*
X144476502Y-74454819D01*
X144476502Y-74454819D02*
X144143169Y-74454819D01*
X144143169Y-74454819D02*
X144047931Y-74502438D01*
X144047931Y-74502438D02*
X144000312Y-74550057D01*
X144000312Y-74550057D02*
X143952693Y-74645295D01*
X143952693Y-74645295D02*
X143952693Y-74740533D01*
X143952693Y-74740533D02*
X144000312Y-74835771D01*
X144000312Y-74835771D02*
X144047931Y-74883390D01*
X144047931Y-74883390D02*
X144143169Y-74931009D01*
X144143169Y-74931009D02*
X144476502Y-74931009D01*
X143619359Y-74454819D02*
X143047931Y-74454819D01*
X143333645Y-75454819D02*
X143333645Y-74454819D01*
X142190788Y-75454819D02*
X142762216Y-75454819D01*
X142476502Y-75454819D02*
X142476502Y-74454819D01*
X142476502Y-74454819D02*
X142571740Y-74597676D01*
X142571740Y-74597676D02*
X142666978Y-74692914D01*
X142666978Y-74692914D02*
X142762216Y-74740533D01*
D11*
%TO.C,U1*%
X127240000Y-57740000D02*
X127240000Y-58010000D01*
X127240000Y-63260000D02*
X127240000Y-62990000D01*
X130000000Y-57740000D02*
X127240000Y-57740000D01*
X130000000Y-57740000D02*
X132760000Y-57740000D01*
X130000000Y-63260000D02*
X127240000Y-63260000D01*
X130000000Y-63260000D02*
X132760000Y-63260000D01*
X132760000Y-57740000D02*
X132760000Y-58010000D01*
X132760000Y-63260000D02*
X132760000Y-62990000D01*
X133525000Y-58010000D02*
X133285000Y-57680000D01*
X133765000Y-57680000D01*
X133525000Y-58010000D01*
G36*
X133525000Y-58010000D02*
G01*
X133285000Y-57680000D01*
X133765000Y-57680000D01*
X133525000Y-58010000D01*
G37*
%TO.C,BT1*%
X139957455Y-77000000D02*
X139957455Y-78000000D01*
X140457455Y-77500000D02*
X139457455Y-77500000D01*
X140957454Y-80600000D02*
G75*
G02*
X140957454Y-74400000I-11499999J3100000D01*
G01*
%TD*%
M02*
