%TF.GenerationSoftware,KiCad,Pcbnew,8.0.3*%
%TF.CreationDate,2024-07-05T09:55:12+02:00*%
%TF.ProjectId,ppicoV1,70706963-6f56-4312-9e6b-696361645f70,rev?*%
%TF.SameCoordinates,Original*%
%TF.FileFunction,Drillmap*%
%TF.FilePolarity,Positive*%
%FSLAX45Y45*%
G04 Gerber Fmt 4.5, Leading zero omitted, Abs format (unit mm)*
G04 Created by KiCad (PCBNEW 8.0.3) date 2024-07-05 09:55:12*
%MOMM*%
%LPD*%
G01*
G04 APERTURE LIST*
%ADD10C,0.050000*%
%ADD11C,0.200000*%
%ADD12C,0.100000*%
G04 APERTURE END LIST*
D10*
X11850000Y-7200000D02*
G75*
G02*
X12950000Y-7200000I550000J0D01*
G01*
X11300000Y-7600000D02*
G75*
G02*
X11696989Y-7203010I396990J0D01*
G01*
X13103011Y-7203011D02*
G75*
G02*
X13499999Y-7600000I-1J-396989D01*
G01*
X11700000Y-10656989D02*
G75*
G02*
X11303011Y-10260000I0J396989D01*
G01*
X13496275Y-10259287D02*
G75*
G02*
X13099287Y-10656275I-396985J-3D01*
G01*
X13496275Y-10259287D02*
X13500000Y-7600000D01*
X11300000Y-7600000D02*
X11303011Y-10260000D01*
X11700000Y-10656989D02*
X13099287Y-10656275D01*
X11850000Y-7200000D02*
X11696989Y-7203011D01*
X12950000Y-7200000D02*
X13103011Y-7203011D01*
X12580278Y-6950000D02*
G75*
G02*
X12219722Y-6950000I-180278J0D01*
G01*
X12219722Y-6950000D02*
G75*
G02*
X12580278Y-6950000I180278J0D01*
G01*
D11*
D12*
X11385000Y-8385000D02*
X11415000Y-8415000D01*
X11415000Y-8385000D02*
X11385000Y-8415000D01*
X11597500Y-7765000D02*
X11627500Y-7795000D01*
X11627500Y-7765000D02*
X11597500Y-7795000D01*
X11632500Y-8635000D02*
X11662500Y-8665000D01*
X11662500Y-8635000D02*
X11632500Y-8665000D01*
X11632500Y-8835000D02*
X11662500Y-8865000D01*
X11662500Y-8835000D02*
X11632500Y-8865000D01*
X11765000Y-10305000D02*
X11795000Y-10335000D01*
X11795000Y-10305000D02*
X11765000Y-10335000D01*
X11825000Y-8465000D02*
X11855000Y-8495000D01*
X11855000Y-8465000D02*
X11825000Y-8495000D01*
X11835000Y-7335000D02*
X11865000Y-7365000D01*
X11865000Y-7335000D02*
X11835000Y-7365000D01*
X11885000Y-8665000D02*
X11915000Y-8695000D01*
X11915000Y-8665000D02*
X11885000Y-8695000D01*
X11945000Y-9125000D02*
X11975000Y-9155000D01*
X11975000Y-9125000D02*
X11945000Y-9155000D01*
X11985000Y-8505000D02*
X12015000Y-8535000D01*
X12015000Y-8505000D02*
X11985000Y-8535000D01*
X12145000Y-8445000D02*
X12175000Y-8475000D01*
X12175000Y-8445000D02*
X12145000Y-8475000D01*
X12245000Y-9865000D02*
X12275000Y-9895000D01*
X12275000Y-9865000D02*
X12245000Y-9895000D01*
X12507750Y-9967750D02*
X12537750Y-9997750D01*
X12537750Y-9967750D02*
X12507750Y-9997750D01*
X12525000Y-9445000D02*
X12555000Y-9475000D01*
X12555000Y-9445000D02*
X12525000Y-9475000D01*
X12605000Y-7765000D02*
X12635000Y-7795000D01*
X12635000Y-7765000D02*
X12605000Y-7795000D01*
X12645000Y-9025000D02*
X12675000Y-9055000D01*
X12675000Y-9025000D02*
X12645000Y-9055000D01*
X12765000Y-7105000D02*
X12795000Y-7135000D01*
X12795000Y-7105000D02*
X12765000Y-7135000D01*
X12935000Y-7585000D02*
X12965000Y-7615000D01*
X12965000Y-7585000D02*
X12935000Y-7615000D01*
X13035000Y-10385000D02*
X13065000Y-10415000D01*
X13065000Y-10385000D02*
X13035000Y-10415000D01*
X13225000Y-7765000D02*
X13255000Y-7795000D01*
X13255000Y-7765000D02*
X13225000Y-7795000D01*
D11*
X11558277Y-10970972D02*
X11558277Y-10770972D01*
X11558277Y-10770972D02*
X11605896Y-10770972D01*
X11605896Y-10770972D02*
X11634467Y-10780496D01*
X11634467Y-10780496D02*
X11653515Y-10799544D01*
X11653515Y-10799544D02*
X11663039Y-10818591D01*
X11663039Y-10818591D02*
X11672562Y-10856687D01*
X11672562Y-10856687D02*
X11672562Y-10885258D01*
X11672562Y-10885258D02*
X11663039Y-10923353D01*
X11663039Y-10923353D02*
X11653515Y-10942401D01*
X11653515Y-10942401D02*
X11634467Y-10961449D01*
X11634467Y-10961449D02*
X11605896Y-10970972D01*
X11605896Y-10970972D02*
X11558277Y-10970972D01*
X11758277Y-10970972D02*
X11758277Y-10837639D01*
X11758277Y-10875734D02*
X11767801Y-10856687D01*
X11767801Y-10856687D02*
X11777324Y-10847163D01*
X11777324Y-10847163D02*
X11796372Y-10837639D01*
X11796372Y-10837639D02*
X11815420Y-10837639D01*
X11882086Y-10970972D02*
X11882086Y-10837639D01*
X11882086Y-10770972D02*
X11872562Y-10780496D01*
X11872562Y-10780496D02*
X11882086Y-10790020D01*
X11882086Y-10790020D02*
X11891610Y-10780496D01*
X11891610Y-10780496D02*
X11882086Y-10770972D01*
X11882086Y-10770972D02*
X11882086Y-10790020D01*
X12005896Y-10970972D02*
X11986848Y-10961449D01*
X11986848Y-10961449D02*
X11977324Y-10942401D01*
X11977324Y-10942401D02*
X11977324Y-10770972D01*
X12110658Y-10970972D02*
X12091610Y-10961449D01*
X12091610Y-10961449D02*
X12082086Y-10942401D01*
X12082086Y-10942401D02*
X12082086Y-10770972D01*
X12339229Y-10970972D02*
X12339229Y-10770972D01*
X12339229Y-10770972D02*
X12405896Y-10913830D01*
X12405896Y-10913830D02*
X12472562Y-10770972D01*
X12472562Y-10770972D02*
X12472562Y-10970972D01*
X12653515Y-10970972D02*
X12653515Y-10866211D01*
X12653515Y-10866211D02*
X12643991Y-10847163D01*
X12643991Y-10847163D02*
X12624943Y-10837639D01*
X12624943Y-10837639D02*
X12586848Y-10837639D01*
X12586848Y-10837639D02*
X12567801Y-10847163D01*
X12653515Y-10961449D02*
X12634467Y-10970972D01*
X12634467Y-10970972D02*
X12586848Y-10970972D01*
X12586848Y-10970972D02*
X12567801Y-10961449D01*
X12567801Y-10961449D02*
X12558277Y-10942401D01*
X12558277Y-10942401D02*
X12558277Y-10923353D01*
X12558277Y-10923353D02*
X12567801Y-10904306D01*
X12567801Y-10904306D02*
X12586848Y-10894782D01*
X12586848Y-10894782D02*
X12634467Y-10894782D01*
X12634467Y-10894782D02*
X12653515Y-10885258D01*
X12748753Y-10837639D02*
X12748753Y-11037639D01*
X12748753Y-10847163D02*
X12767801Y-10837639D01*
X12767801Y-10837639D02*
X12805896Y-10837639D01*
X12805896Y-10837639D02*
X12824943Y-10847163D01*
X12824943Y-10847163D02*
X12834467Y-10856687D01*
X12834467Y-10856687D02*
X12843991Y-10875734D01*
X12843991Y-10875734D02*
X12843991Y-10932877D01*
X12843991Y-10932877D02*
X12834467Y-10951925D01*
X12834467Y-10951925D02*
X12824943Y-10961449D01*
X12824943Y-10961449D02*
X12805896Y-10970972D01*
X12805896Y-10970972D02*
X12767801Y-10970972D01*
X12767801Y-10970972D02*
X12748753Y-10961449D01*
X12929705Y-10951925D02*
X12939229Y-10961449D01*
X12939229Y-10961449D02*
X12929705Y-10970972D01*
X12929705Y-10970972D02*
X12920182Y-10961449D01*
X12920182Y-10961449D02*
X12929705Y-10951925D01*
X12929705Y-10951925D02*
X12929705Y-10970972D01*
X12929705Y-10847163D02*
X12939229Y-10856687D01*
X12939229Y-10856687D02*
X12929705Y-10866211D01*
X12929705Y-10866211D02*
X12920182Y-10856687D01*
X12920182Y-10856687D02*
X12929705Y-10847163D01*
X12929705Y-10847163D02*
X12929705Y-10866211D01*
D12*
X11267500Y-11284489D02*
X11297500Y-11314489D01*
X11297500Y-11284489D02*
X11267500Y-11314489D01*
D11*
X11596372Y-11190972D02*
X11615420Y-11190972D01*
X11615420Y-11190972D02*
X11634467Y-11200496D01*
X11634467Y-11200496D02*
X11643991Y-11210020D01*
X11643991Y-11210020D02*
X11653515Y-11229068D01*
X11653515Y-11229068D02*
X11663039Y-11267163D01*
X11663039Y-11267163D02*
X11663039Y-11314782D01*
X11663039Y-11314782D02*
X11653515Y-11352877D01*
X11653515Y-11352877D02*
X11643991Y-11371925D01*
X11643991Y-11371925D02*
X11634467Y-11381449D01*
X11634467Y-11381449D02*
X11615420Y-11390972D01*
X11615420Y-11390972D02*
X11596372Y-11390972D01*
X11596372Y-11390972D02*
X11577324Y-11381449D01*
X11577324Y-11381449D02*
X11567801Y-11371925D01*
X11567801Y-11371925D02*
X11558277Y-11352877D01*
X11558277Y-11352877D02*
X11548753Y-11314782D01*
X11548753Y-11314782D02*
X11548753Y-11267163D01*
X11548753Y-11267163D02*
X11558277Y-11229068D01*
X11558277Y-11229068D02*
X11567801Y-11210020D01*
X11567801Y-11210020D02*
X11577324Y-11200496D01*
X11577324Y-11200496D02*
X11596372Y-11190972D01*
X11748753Y-11371925D02*
X11758277Y-11381449D01*
X11758277Y-11381449D02*
X11748753Y-11390972D01*
X11748753Y-11390972D02*
X11739229Y-11381449D01*
X11739229Y-11381449D02*
X11748753Y-11371925D01*
X11748753Y-11371925D02*
X11748753Y-11390972D01*
X11824943Y-11190972D02*
X11948753Y-11190972D01*
X11948753Y-11190972D02*
X11882086Y-11267163D01*
X11882086Y-11267163D02*
X11910658Y-11267163D01*
X11910658Y-11267163D02*
X11929705Y-11276687D01*
X11929705Y-11276687D02*
X11939229Y-11286210D01*
X11939229Y-11286210D02*
X11948753Y-11305258D01*
X11948753Y-11305258D02*
X11948753Y-11352877D01*
X11948753Y-11352877D02*
X11939229Y-11371925D01*
X11939229Y-11371925D02*
X11929705Y-11381449D01*
X11929705Y-11381449D02*
X11910658Y-11390972D01*
X11910658Y-11390972D02*
X11853515Y-11390972D01*
X11853515Y-11390972D02*
X11834467Y-11381449D01*
X11834467Y-11381449D02*
X11824943Y-11371925D01*
X12072562Y-11190972D02*
X12091610Y-11190972D01*
X12091610Y-11190972D02*
X12110658Y-11200496D01*
X12110658Y-11200496D02*
X12120182Y-11210020D01*
X12120182Y-11210020D02*
X12129705Y-11229068D01*
X12129705Y-11229068D02*
X12139229Y-11267163D01*
X12139229Y-11267163D02*
X12139229Y-11314782D01*
X12139229Y-11314782D02*
X12129705Y-11352877D01*
X12129705Y-11352877D02*
X12120182Y-11371925D01*
X12120182Y-11371925D02*
X12110658Y-11381449D01*
X12110658Y-11381449D02*
X12091610Y-11390972D01*
X12091610Y-11390972D02*
X12072562Y-11390972D01*
X12072562Y-11390972D02*
X12053515Y-11381449D01*
X12053515Y-11381449D02*
X12043991Y-11371925D01*
X12043991Y-11371925D02*
X12034467Y-11352877D01*
X12034467Y-11352877D02*
X12024943Y-11314782D01*
X12024943Y-11314782D02*
X12024943Y-11267163D01*
X12024943Y-11267163D02*
X12034467Y-11229068D01*
X12034467Y-11229068D02*
X12043991Y-11210020D01*
X12043991Y-11210020D02*
X12053515Y-11200496D01*
X12053515Y-11200496D02*
X12072562Y-11190972D01*
X12263039Y-11190972D02*
X12282086Y-11190972D01*
X12282086Y-11190972D02*
X12301134Y-11200496D01*
X12301134Y-11200496D02*
X12310658Y-11210020D01*
X12310658Y-11210020D02*
X12320182Y-11229068D01*
X12320182Y-11229068D02*
X12329705Y-11267163D01*
X12329705Y-11267163D02*
X12329705Y-11314782D01*
X12329705Y-11314782D02*
X12320182Y-11352877D01*
X12320182Y-11352877D02*
X12310658Y-11371925D01*
X12310658Y-11371925D02*
X12301134Y-11381449D01*
X12301134Y-11381449D02*
X12282086Y-11390972D01*
X12282086Y-11390972D02*
X12263039Y-11390972D01*
X12263039Y-11390972D02*
X12243991Y-11381449D01*
X12243991Y-11381449D02*
X12234467Y-11371925D01*
X12234467Y-11371925D02*
X12224943Y-11352877D01*
X12224943Y-11352877D02*
X12215420Y-11314782D01*
X12215420Y-11314782D02*
X12215420Y-11267163D01*
X12215420Y-11267163D02*
X12224943Y-11229068D01*
X12224943Y-11229068D02*
X12234467Y-11210020D01*
X12234467Y-11210020D02*
X12243991Y-11200496D01*
X12243991Y-11200496D02*
X12263039Y-11190972D01*
X12415420Y-11390972D02*
X12415420Y-11257639D01*
X12415420Y-11276687D02*
X12424943Y-11267163D01*
X12424943Y-11267163D02*
X12443991Y-11257639D01*
X12443991Y-11257639D02*
X12472563Y-11257639D01*
X12472563Y-11257639D02*
X12491610Y-11267163D01*
X12491610Y-11267163D02*
X12501134Y-11286210D01*
X12501134Y-11286210D02*
X12501134Y-11390972D01*
X12501134Y-11286210D02*
X12510658Y-11267163D01*
X12510658Y-11267163D02*
X12529705Y-11257639D01*
X12529705Y-11257639D02*
X12558277Y-11257639D01*
X12558277Y-11257639D02*
X12577324Y-11267163D01*
X12577324Y-11267163D02*
X12586848Y-11286210D01*
X12586848Y-11286210D02*
X12586848Y-11390972D01*
X12682086Y-11390972D02*
X12682086Y-11257639D01*
X12682086Y-11276687D02*
X12691610Y-11267163D01*
X12691610Y-11267163D02*
X12710658Y-11257639D01*
X12710658Y-11257639D02*
X12739229Y-11257639D01*
X12739229Y-11257639D02*
X12758277Y-11267163D01*
X12758277Y-11267163D02*
X12767801Y-11286210D01*
X12767801Y-11286210D02*
X12767801Y-11390972D01*
X12767801Y-11286210D02*
X12777324Y-11267163D01*
X12777324Y-11267163D02*
X12796372Y-11257639D01*
X12796372Y-11257639D02*
X12824943Y-11257639D01*
X12824943Y-11257639D02*
X12843991Y-11267163D01*
X12843991Y-11267163D02*
X12853515Y-11286210D01*
X12853515Y-11286210D02*
X12853515Y-11390972D01*
X13243991Y-11181449D02*
X13072563Y-11438591D01*
X13501134Y-11190972D02*
X13520182Y-11190972D01*
X13520182Y-11190972D02*
X13539229Y-11200496D01*
X13539229Y-11200496D02*
X13548753Y-11210020D01*
X13548753Y-11210020D02*
X13558277Y-11229068D01*
X13558277Y-11229068D02*
X13567801Y-11267163D01*
X13567801Y-11267163D02*
X13567801Y-11314782D01*
X13567801Y-11314782D02*
X13558277Y-11352877D01*
X13558277Y-11352877D02*
X13548753Y-11371925D01*
X13548753Y-11371925D02*
X13539229Y-11381449D01*
X13539229Y-11381449D02*
X13520182Y-11390972D01*
X13520182Y-11390972D02*
X13501134Y-11390972D01*
X13501134Y-11390972D02*
X13482086Y-11381449D01*
X13482086Y-11381449D02*
X13472563Y-11371925D01*
X13472563Y-11371925D02*
X13463039Y-11352877D01*
X13463039Y-11352877D02*
X13453515Y-11314782D01*
X13453515Y-11314782D02*
X13453515Y-11267163D01*
X13453515Y-11267163D02*
X13463039Y-11229068D01*
X13463039Y-11229068D02*
X13472563Y-11210020D01*
X13472563Y-11210020D02*
X13482086Y-11200496D01*
X13482086Y-11200496D02*
X13501134Y-11190972D01*
X13653515Y-11371925D02*
X13663039Y-11381449D01*
X13663039Y-11381449D02*
X13653515Y-11390972D01*
X13653515Y-11390972D02*
X13643991Y-11381449D01*
X13643991Y-11381449D02*
X13653515Y-11371925D01*
X13653515Y-11371925D02*
X13653515Y-11390972D01*
X13786848Y-11190972D02*
X13805896Y-11190972D01*
X13805896Y-11190972D02*
X13824944Y-11200496D01*
X13824944Y-11200496D02*
X13834467Y-11210020D01*
X13834467Y-11210020D02*
X13843991Y-11229068D01*
X13843991Y-11229068D02*
X13853515Y-11267163D01*
X13853515Y-11267163D02*
X13853515Y-11314782D01*
X13853515Y-11314782D02*
X13843991Y-11352877D01*
X13843991Y-11352877D02*
X13834467Y-11371925D01*
X13834467Y-11371925D02*
X13824944Y-11381449D01*
X13824944Y-11381449D02*
X13805896Y-11390972D01*
X13805896Y-11390972D02*
X13786848Y-11390972D01*
X13786848Y-11390972D02*
X13767801Y-11381449D01*
X13767801Y-11381449D02*
X13758277Y-11371925D01*
X13758277Y-11371925D02*
X13748753Y-11352877D01*
X13748753Y-11352877D02*
X13739229Y-11314782D01*
X13739229Y-11314782D02*
X13739229Y-11267163D01*
X13739229Y-11267163D02*
X13748753Y-11229068D01*
X13748753Y-11229068D02*
X13758277Y-11210020D01*
X13758277Y-11210020D02*
X13767801Y-11200496D01*
X13767801Y-11200496D02*
X13786848Y-11190972D01*
X14043991Y-11390972D02*
X13929706Y-11390972D01*
X13986848Y-11390972D02*
X13986848Y-11190972D01*
X13986848Y-11190972D02*
X13967801Y-11219544D01*
X13967801Y-11219544D02*
X13948753Y-11238591D01*
X13948753Y-11238591D02*
X13929706Y-11248115D01*
X14234467Y-11390972D02*
X14120182Y-11390972D01*
X14177325Y-11390972D02*
X14177325Y-11190972D01*
X14177325Y-11190972D02*
X14158277Y-11219544D01*
X14158277Y-11219544D02*
X14139229Y-11238591D01*
X14139229Y-11238591D02*
X14120182Y-11248115D01*
X14348753Y-11276687D02*
X14329706Y-11267163D01*
X14329706Y-11267163D02*
X14320182Y-11257639D01*
X14320182Y-11257639D02*
X14310658Y-11238591D01*
X14310658Y-11238591D02*
X14310658Y-11229068D01*
X14310658Y-11229068D02*
X14320182Y-11210020D01*
X14320182Y-11210020D02*
X14329706Y-11200496D01*
X14329706Y-11200496D02*
X14348753Y-11190972D01*
X14348753Y-11190972D02*
X14386848Y-11190972D01*
X14386848Y-11190972D02*
X14405896Y-11200496D01*
X14405896Y-11200496D02*
X14415420Y-11210020D01*
X14415420Y-11210020D02*
X14424944Y-11229068D01*
X14424944Y-11229068D02*
X14424944Y-11238591D01*
X14424944Y-11238591D02*
X14415420Y-11257639D01*
X14415420Y-11257639D02*
X14405896Y-11267163D01*
X14405896Y-11267163D02*
X14386848Y-11276687D01*
X14386848Y-11276687D02*
X14348753Y-11276687D01*
X14348753Y-11276687D02*
X14329706Y-11286210D01*
X14329706Y-11286210D02*
X14320182Y-11295734D01*
X14320182Y-11295734D02*
X14310658Y-11314782D01*
X14310658Y-11314782D02*
X14310658Y-11352877D01*
X14310658Y-11352877D02*
X14320182Y-11371925D01*
X14320182Y-11371925D02*
X14329706Y-11381449D01*
X14329706Y-11381449D02*
X14348753Y-11390972D01*
X14348753Y-11390972D02*
X14386848Y-11390972D01*
X14386848Y-11390972D02*
X14405896Y-11381449D01*
X14405896Y-11381449D02*
X14415420Y-11371925D01*
X14415420Y-11371925D02*
X14424944Y-11352877D01*
X14424944Y-11352877D02*
X14424944Y-11314782D01*
X14424944Y-11314782D02*
X14415420Y-11295734D01*
X14415420Y-11295734D02*
X14405896Y-11286210D01*
X14405896Y-11286210D02*
X14386848Y-11276687D01*
X14501134Y-11190972D02*
X14501134Y-11229068D01*
X14577325Y-11190972D02*
X14577325Y-11229068D01*
X14872563Y-11467163D02*
X14863039Y-11457639D01*
X14863039Y-11457639D02*
X14843991Y-11429068D01*
X14843991Y-11429068D02*
X14834468Y-11410020D01*
X14834468Y-11410020D02*
X14824944Y-11381449D01*
X14824944Y-11381449D02*
X14815420Y-11333829D01*
X14815420Y-11333829D02*
X14815420Y-11295734D01*
X14815420Y-11295734D02*
X14824944Y-11248115D01*
X14824944Y-11248115D02*
X14834468Y-11219544D01*
X14834468Y-11219544D02*
X14843991Y-11200496D01*
X14843991Y-11200496D02*
X14863039Y-11171925D01*
X14863039Y-11171925D02*
X14872563Y-11162401D01*
X14939229Y-11210020D02*
X14948753Y-11200496D01*
X14948753Y-11200496D02*
X14967801Y-11190972D01*
X14967801Y-11190972D02*
X15015420Y-11190972D01*
X15015420Y-11190972D02*
X15034468Y-11200496D01*
X15034468Y-11200496D02*
X15043991Y-11210020D01*
X15043991Y-11210020D02*
X15053515Y-11229068D01*
X15053515Y-11229068D02*
X15053515Y-11248115D01*
X15053515Y-11248115D02*
X15043991Y-11276687D01*
X15043991Y-11276687D02*
X14929706Y-11390972D01*
X14929706Y-11390972D02*
X15053515Y-11390972D01*
X15177325Y-11190972D02*
X15196372Y-11190972D01*
X15196372Y-11190972D02*
X15215420Y-11200496D01*
X15215420Y-11200496D02*
X15224944Y-11210020D01*
X15224944Y-11210020D02*
X15234468Y-11229068D01*
X15234468Y-11229068D02*
X15243991Y-11267163D01*
X15243991Y-11267163D02*
X15243991Y-11314782D01*
X15243991Y-11314782D02*
X15234468Y-11352877D01*
X15234468Y-11352877D02*
X15224944Y-11371925D01*
X15224944Y-11371925D02*
X15215420Y-11381449D01*
X15215420Y-11381449D02*
X15196372Y-11390972D01*
X15196372Y-11390972D02*
X15177325Y-11390972D01*
X15177325Y-11390972D02*
X15158277Y-11381449D01*
X15158277Y-11381449D02*
X15148753Y-11371925D01*
X15148753Y-11371925D02*
X15139229Y-11352877D01*
X15139229Y-11352877D02*
X15129706Y-11314782D01*
X15129706Y-11314782D02*
X15129706Y-11267163D01*
X15129706Y-11267163D02*
X15139229Y-11229068D01*
X15139229Y-11229068D02*
X15148753Y-11210020D01*
X15148753Y-11210020D02*
X15158277Y-11200496D01*
X15158277Y-11200496D02*
X15177325Y-11190972D01*
X15482087Y-11390972D02*
X15482087Y-11190972D01*
X15567801Y-11390972D02*
X15567801Y-11286210D01*
X15567801Y-11286210D02*
X15558277Y-11267163D01*
X15558277Y-11267163D02*
X15539230Y-11257639D01*
X15539230Y-11257639D02*
X15510658Y-11257639D01*
X15510658Y-11257639D02*
X15491610Y-11267163D01*
X15491610Y-11267163D02*
X15482087Y-11276687D01*
X15691610Y-11390972D02*
X15672563Y-11381449D01*
X15672563Y-11381449D02*
X15663039Y-11371925D01*
X15663039Y-11371925D02*
X15653515Y-11352877D01*
X15653515Y-11352877D02*
X15653515Y-11295734D01*
X15653515Y-11295734D02*
X15663039Y-11276687D01*
X15663039Y-11276687D02*
X15672563Y-11267163D01*
X15672563Y-11267163D02*
X15691610Y-11257639D01*
X15691610Y-11257639D02*
X15720182Y-11257639D01*
X15720182Y-11257639D02*
X15739230Y-11267163D01*
X15739230Y-11267163D02*
X15748753Y-11276687D01*
X15748753Y-11276687D02*
X15758277Y-11295734D01*
X15758277Y-11295734D02*
X15758277Y-11352877D01*
X15758277Y-11352877D02*
X15748753Y-11371925D01*
X15748753Y-11371925D02*
X15739230Y-11381449D01*
X15739230Y-11381449D02*
X15720182Y-11390972D01*
X15720182Y-11390972D02*
X15691610Y-11390972D01*
X15872563Y-11390972D02*
X15853515Y-11381449D01*
X15853515Y-11381449D02*
X15843991Y-11362401D01*
X15843991Y-11362401D02*
X15843991Y-11190972D01*
X16024944Y-11381449D02*
X16005896Y-11390972D01*
X16005896Y-11390972D02*
X15967801Y-11390972D01*
X15967801Y-11390972D02*
X15948753Y-11381449D01*
X15948753Y-11381449D02*
X15939230Y-11362401D01*
X15939230Y-11362401D02*
X15939230Y-11286210D01*
X15939230Y-11286210D02*
X15948753Y-11267163D01*
X15948753Y-11267163D02*
X15967801Y-11257639D01*
X15967801Y-11257639D02*
X16005896Y-11257639D01*
X16005896Y-11257639D02*
X16024944Y-11267163D01*
X16024944Y-11267163D02*
X16034468Y-11286210D01*
X16034468Y-11286210D02*
X16034468Y-11305258D01*
X16034468Y-11305258D02*
X15939230Y-11324306D01*
X16110658Y-11381449D02*
X16129706Y-11390972D01*
X16129706Y-11390972D02*
X16167801Y-11390972D01*
X16167801Y-11390972D02*
X16186849Y-11381449D01*
X16186849Y-11381449D02*
X16196372Y-11362401D01*
X16196372Y-11362401D02*
X16196372Y-11352877D01*
X16196372Y-11352877D02*
X16186849Y-11333829D01*
X16186849Y-11333829D02*
X16167801Y-11324306D01*
X16167801Y-11324306D02*
X16139230Y-11324306D01*
X16139230Y-11324306D02*
X16120182Y-11314782D01*
X16120182Y-11314782D02*
X16110658Y-11295734D01*
X16110658Y-11295734D02*
X16110658Y-11286210D01*
X16110658Y-11286210D02*
X16120182Y-11267163D01*
X16120182Y-11267163D02*
X16139230Y-11257639D01*
X16139230Y-11257639D02*
X16167801Y-11257639D01*
X16167801Y-11257639D02*
X16186849Y-11267163D01*
X16263039Y-11467163D02*
X16272563Y-11457639D01*
X16272563Y-11457639D02*
X16291611Y-11429068D01*
X16291611Y-11429068D02*
X16301134Y-11410020D01*
X16301134Y-11410020D02*
X16310658Y-11381449D01*
X16310658Y-11381449D02*
X16320182Y-11333829D01*
X16320182Y-11333829D02*
X16320182Y-11295734D01*
X16320182Y-11295734D02*
X16310658Y-11248115D01*
X16310658Y-11248115D02*
X16301134Y-11219544D01*
X16301134Y-11219544D02*
X16291611Y-11200496D01*
X16291611Y-11200496D02*
X16272563Y-11171925D01*
X16272563Y-11171925D02*
X16263039Y-11162401D01*
M02*
