M48
; DRILL file {KiCad 9.0.0} date 2025-03-23T12:51:41+0100
; FORMAT={-:-/ absolute / metric / decimal}
; #@! TF.CreationDate,2025-03-23T12:51:41+01:00
; #@! TF.GenerationSoftware,Kicad,Pcbnew,9.0.0
; #@! TF.FileFunction,Plated,1,2,PTH
FMAT,2
METRIC
; #@! TA.AperFunction,Plated,PTH,ViaDrill
T1C0.300
; #@! TA.AperFunction,Plated,PTH,ComponentDrill
T2C0.400
; #@! TA.AperFunction,Plated,PTH,ComponentDrill
T3C1.000
; #@! TA.AperFunction,Plated,PTH,ComponentDrill
T4C1.500
%
G90
G05
T1
X125.5Y-77.5
X126.412Y-58.595
X126.412Y-59.865
X126.412Y-61.135
X126.412Y-62.405
X127.5Y-72.0
X129.155Y-61.135
X130.5Y-61.805
X130.5Y-63.5
X132.5Y-65.5
X133.0Y-75.5
X133.026Y-70.436
X133.588Y-58.595
X133.588Y-62.405
X137.0Y-58.365
X137.0Y-89.5
X137.525Y-65.5
X137.525Y-69.5
X141.0Y-83.5
X143.5Y-71.0
T2
X121.0Y-41.5
X123.0Y-41.5
X123.0Y-46.5
X125.0Y-41.5
X125.0Y-46.5
X127.0Y-41.5
X127.0Y-46.5
X129.0Y-41.5
X129.0Y-46.5
X131.0Y-41.5
X131.0Y-46.5
X133.0Y-41.5
X133.0Y-46.5
X135.0Y-41.5
X135.0Y-46.5
X137.0Y-41.5
X137.0Y-46.5
X139.0Y-41.5
X139.0Y-46.5
T3
X117.5Y-59.7
X117.5Y-62.24
X117.5Y-64.78
X117.5Y-67.32
X125.92Y-92.46
X125.92Y-95.0
X128.46Y-92.46
X128.46Y-95.0
X131.0Y-92.46
X131.0Y-95.0
X133.54Y-92.46
X133.54Y-95.0
X142.5Y-59.92
X142.5Y-62.46
X142.5Y-65.0
X142.5Y-67.54
T4
X121.057Y-77.5
X141.857Y-77.5
M30
