%TF.GenerationSoftware,KiCad,Pcbnew,9.0.0*%
%TF.CreationDate,2025-03-23T12:51:39+01:00*%
%TF.ProjectId,ppicoV1,70706963-6f56-4312-9e6b-696361645f70,rev?*%
%TF.SameCoordinates,Original*%
%TF.FileFunction,Soldermask,Top*%
%TF.FilePolarity,Negative*%
%FSLAX46Y46*%
G04 Gerber Fmt 4.6, Leading zero omitted, Abs format (unit mm)*
G04 Created by KiCad (PCBNEW 9.0.0) date 2025-03-23 12:51:39*
%MOMM*%
%LPD*%
G01*
G04 APERTURE LIST*
G04 Aperture macros list*
%AMRoundRect*
0 Rectangle with rounded corners*
0 $1 Rounding radius*
0 $2 $3 $4 $5 $6 $7 $8 $9 X,Y pos of 4 corners*
0 Add a 4 corners polygon primitive as box body*
4,1,4,$2,$3,$4,$5,$6,$7,$8,$9,$2,$3,0*
0 Add four circle primitives for the rounded corners*
1,1,$1+$1,$2,$3*
1,1,$1+$1,$4,$5*
1,1,$1+$1,$6,$7*
1,1,$1+$1,$8,$9*
0 Add four rect primitives between the rounded corners*
20,1,$1+$1,$2,$3,$4,$5,0*
20,1,$1+$1,$4,$5,$6,$7,0*
20,1,$1+$1,$6,$7,$8,$9,0*
20,1,$1+$1,$8,$9,$2,$3,0*%
G04 Aperture macros list end*
%ADD10RoundRect,0.250000X-0.337500X-0.475000X0.337500X-0.475000X0.337500X0.475000X-0.337500X0.475000X0*%
%ADD11RoundRect,0.250000X0.337500X0.475000X-0.337500X0.475000X-0.337500X-0.475000X0.337500X-0.475000X0*%
%ADD12RoundRect,0.250000X-0.475000X0.337500X-0.475000X-0.337500X0.475000X-0.337500X0.475000X0.337500X0*%
%ADD13RoundRect,0.100000X0.400000X0.400000X-0.400000X0.400000X-0.400000X-0.400000X0.400000X-0.400000X0*%
%ADD14RoundRect,0.105000X0.420000X0.995000X-0.420000X0.995000X-0.420000X-0.995000X0.420000X-0.995000X0*%
%ADD15R,1.700000X1.700000*%
%ADD16O,1.700000X1.700000*%
%ADD17RoundRect,0.317500X1.157500X0.317500X-1.157500X0.317500X-1.157500X-0.317500X1.157500X-0.317500X0*%
%ADD18R,2.000000X2.000000*%
%ADD19C,2.000000*%
G04 APERTURE END LIST*
D10*
%TO.C,R3*%
X125500000Y-55500000D03*
X127575000Y-55500000D03*
%TD*%
D11*
%TO.C,R2*%
X139537500Y-55500000D03*
X137462500Y-55500000D03*
%TD*%
D10*
%TO.C,R1*%
X131462500Y-55500000D03*
X133537500Y-55500000D03*
%TD*%
%TO.C,R5*%
X116462500Y-56500000D03*
X118537500Y-56500000D03*
%TD*%
D12*
%TO.C,R4*%
X121000000Y-54425000D03*
X121000000Y-56500000D03*
%TD*%
D13*
%TO.C,J4*%
X117000000Y-54000000D03*
D14*
X115525000Y-52500000D03*
D13*
X117000000Y-51000000D03*
D14*
X118475000Y-52500000D03*
%TD*%
D15*
%TO.C,J3*%
X117500000Y-59700000D03*
D16*
X117500000Y-62240000D03*
X117500000Y-64780000D03*
X117500000Y-67320000D03*
%TD*%
D15*
%TO.C,J2*%
X142500000Y-59920000D03*
D16*
X142500000Y-62460000D03*
X142500000Y-65000000D03*
X142500000Y-67540000D03*
%TD*%
D17*
%TO.C,U2*%
X137525000Y-73500000D03*
X137525000Y-71500000D03*
X137525000Y-69500000D03*
X137525000Y-67500000D03*
X137525000Y-65500000D03*
X137525000Y-63500000D03*
X137525000Y-61500000D03*
X137525000Y-59500000D03*
X122475000Y-59500000D03*
X122475000Y-61500000D03*
X122475000Y-63500000D03*
X122475000Y-65500000D03*
X122475000Y-67500000D03*
X122475000Y-69500000D03*
X122475000Y-71500000D03*
X122475000Y-73500000D03*
%TD*%
D15*
%TO.C,J1*%
X133540000Y-92460000D03*
D16*
X133540000Y-95000000D03*
X131000000Y-92460000D03*
X131000000Y-95000000D03*
X128460000Y-92460000D03*
X128460000Y-95000000D03*
X125920000Y-92460000D03*
X125920000Y-95000000D03*
%TD*%
D18*
%TO.C,BT1*%
X141857455Y-77500000D03*
D19*
X121057455Y-77500000D03*
%TD*%
M02*
