%TF.GenerationSoftware,KiCad,Pcbnew,8.0.3*%
%TF.CreationDate,2024-07-05T09:55:12+02:00*%
%TF.ProjectId,ppicoV1,70706963-6f56-4312-9e6b-696361645f70,rev?*%
%TF.SameCoordinates,Original*%
%TF.FileFunction,Drillmap*%
%TF.FilePolarity,Positive*%
%FSLAX45Y45*%
G04 Gerber Fmt 4.5, Leading zero omitted, Abs format (unit mm)*
G04 Created by KiCad (PCBNEW 8.0.3) date 2024-07-05 09:55:12*
%MOMM*%
%LPD*%
G01*
G04 APERTURE LIST*
%ADD10C,0.050000*%
%ADD11C,0.200000*%
G04 APERTURE END LIST*
D10*
X11850000Y-7200000D02*
G75*
G02*
X12950000Y-7200000I550000J0D01*
G01*
X11300000Y-7600000D02*
G75*
G02*
X11696989Y-7203010I396990J0D01*
G01*
X13103011Y-7203011D02*
G75*
G02*
X13499999Y-7600000I-1J-396989D01*
G01*
X11700000Y-10656989D02*
G75*
G02*
X11303011Y-10260000I0J396989D01*
G01*
X13496275Y-10259287D02*
G75*
G02*
X13099287Y-10656275I-396985J-3D01*
G01*
X13496275Y-10259287D02*
X13500000Y-7600000D01*
X11300000Y-7600000D02*
X11303011Y-10260000D01*
X11700000Y-10656989D02*
X13099287Y-10656275D01*
X11850000Y-7200000D02*
X11696989Y-7203011D01*
X12950000Y-7200000D02*
X13103011Y-7203011D01*
X12580278Y-6950000D02*
G75*
G02*
X12219722Y-6950000I-180278J0D01*
G01*
X12219722Y-6950000D02*
G75*
G02*
X12580278Y-6950000I180278J0D01*
G01*
D11*
X11558277Y-10970972D02*
X11558277Y-10770972D01*
X11558277Y-10770972D02*
X11605896Y-10770972D01*
X11605896Y-10770972D02*
X11634467Y-10780496D01*
X11634467Y-10780496D02*
X11653515Y-10799544D01*
X11653515Y-10799544D02*
X11663039Y-10818591D01*
X11663039Y-10818591D02*
X11672562Y-10856687D01*
X11672562Y-10856687D02*
X11672562Y-10885258D01*
X11672562Y-10885258D02*
X11663039Y-10923353D01*
X11663039Y-10923353D02*
X11653515Y-10942401D01*
X11653515Y-10942401D02*
X11634467Y-10961449D01*
X11634467Y-10961449D02*
X11605896Y-10970972D01*
X11605896Y-10970972D02*
X11558277Y-10970972D01*
X11758277Y-10970972D02*
X11758277Y-10837639D01*
X11758277Y-10875734D02*
X11767801Y-10856687D01*
X11767801Y-10856687D02*
X11777324Y-10847163D01*
X11777324Y-10847163D02*
X11796372Y-10837639D01*
X11796372Y-10837639D02*
X11815420Y-10837639D01*
X11882086Y-10970972D02*
X11882086Y-10837639D01*
X11882086Y-10770972D02*
X11872562Y-10780496D01*
X11872562Y-10780496D02*
X11882086Y-10790020D01*
X11882086Y-10790020D02*
X11891610Y-10780496D01*
X11891610Y-10780496D02*
X11882086Y-10770972D01*
X11882086Y-10770972D02*
X11882086Y-10790020D01*
X12005896Y-10970972D02*
X11986848Y-10961449D01*
X11986848Y-10961449D02*
X11977324Y-10942401D01*
X11977324Y-10942401D02*
X11977324Y-10770972D01*
X12110658Y-10970972D02*
X12091610Y-10961449D01*
X12091610Y-10961449D02*
X12082086Y-10942401D01*
X12082086Y-10942401D02*
X12082086Y-10770972D01*
X12339229Y-10970972D02*
X12339229Y-10770972D01*
X12339229Y-10770972D02*
X12405896Y-10913830D01*
X12405896Y-10913830D02*
X12472562Y-10770972D01*
X12472562Y-10770972D02*
X12472562Y-10970972D01*
X12653515Y-10970972D02*
X12653515Y-10866211D01*
X12653515Y-10866211D02*
X12643991Y-10847163D01*
X12643991Y-10847163D02*
X12624943Y-10837639D01*
X12624943Y-10837639D02*
X12586848Y-10837639D01*
X12586848Y-10837639D02*
X12567801Y-10847163D01*
X12653515Y-10961449D02*
X12634467Y-10970972D01*
X12634467Y-10970972D02*
X12586848Y-10970972D01*
X12586848Y-10970972D02*
X12567801Y-10961449D01*
X12567801Y-10961449D02*
X12558277Y-10942401D01*
X12558277Y-10942401D02*
X12558277Y-10923353D01*
X12558277Y-10923353D02*
X12567801Y-10904306D01*
X12567801Y-10904306D02*
X12586848Y-10894782D01*
X12586848Y-10894782D02*
X12634467Y-10894782D01*
X12634467Y-10894782D02*
X12653515Y-10885258D01*
X12748753Y-10837639D02*
X12748753Y-11037639D01*
X12748753Y-10847163D02*
X12767801Y-10837639D01*
X12767801Y-10837639D02*
X12805896Y-10837639D01*
X12805896Y-10837639D02*
X12824943Y-10847163D01*
X12824943Y-10847163D02*
X12834467Y-10856687D01*
X12834467Y-10856687D02*
X12843991Y-10875734D01*
X12843991Y-10875734D02*
X12843991Y-10932877D01*
X12843991Y-10932877D02*
X12834467Y-10951925D01*
X12834467Y-10951925D02*
X12824943Y-10961449D01*
X12824943Y-10961449D02*
X12805896Y-10970972D01*
X12805896Y-10970972D02*
X12767801Y-10970972D01*
X12767801Y-10970972D02*
X12748753Y-10961449D01*
X12929705Y-10951925D02*
X12939229Y-10961449D01*
X12939229Y-10961449D02*
X12929705Y-10970972D01*
X12929705Y-10970972D02*
X12920182Y-10961449D01*
X12920182Y-10961449D02*
X12929705Y-10951925D01*
X12929705Y-10951925D02*
X12929705Y-10970972D01*
X12929705Y-10847163D02*
X12939229Y-10856687D01*
X12939229Y-10856687D02*
X12929705Y-10866211D01*
X12929705Y-10866211D02*
X12920182Y-10856687D01*
X12920182Y-10856687D02*
X12929705Y-10847163D01*
X12929705Y-10847163D02*
X12929705Y-10866211D01*
M02*
